<svg xmlns="http://www.w3.org/2000/svg" style="isolation:isolate" width="1922" height="1082"><defs><clipPath id="a"><path d="M0 0h1922v1082H0z"/></clipPath></defs><g clip-path="url(#a)"><path d="M0 0v1082h1922V0H0z" fill="#FFF"/><path d="M356 226l3 1m0-1l6 1m-16 0l3 1"/><path d="M305 246v2c8 3 16 7 22 12 11 9 18 24 22 38 7 29 3 58-6 86-19 60-63 108-96 161-24 40-39 84-40 131-1 21-1 44 8 64 13 30 42 46 73 53 51 11 104 8 155 6 26-2 51-7 75-16 5-4 10-14 12-21-17 2-33 7-50 9-20 2-39 0-59 0-27-1-54-1-81-7-13-3-25-7-36-13-29-16-38-45-41-76-4-40 5-81 21-117 10-21 23-40 35-59l35-52c14-21 28-43 38-66 15-35 21-74 11-112-4-17-13-36-31-41-24-7-46 9-67 18z" fill="#1B1565"/><path d="M370 227l1 1m0-1l1 1m-27 0l1 1m0-1l1 1"/><path d="M374 228l1 1-1-1zm-32 1l1 1-1-1z" fill="#9391A5"/><path d="M376 229l1 1m0-1l1 1m-40 0l1 1m0-1l1 1m38-1l1 1m-44 0l1 1m0-1l1 1"/><path d="M380 231l1 1-1-1zm-47 1l1 1-1-1z" fill="#9391A5"/><path d="M330 233l1 1m0-1l1 1m51-1l1 1m-56 0l1 1m55-1l1 1m-60 0l1 1m0-1l1 1m58-1l1 1m-63 0l1 1m0-1l1 1"/><path d="M321 237l1 1-1-1zm-2 1l1 1-1-1z" fill="#9B99BB"/><path d="M388 238l1 1m-72 0l1 1m71-1l1 1"/><path d="M315 240l1 1-1-1zm75 0l1 1-1-1z" fill="#9B99BB"/><path d="M313 241l1 1m-3 0l1 1"/><path d="M312 242l1 1-1-1zm-2 1l1 1-1-1z" fill="#55518C"/><path d="M392 243l1 1-1-1zm-84 1l1 1-1-1z" fill="#7D7D82"/><path d="M393 244l1 1m-88 0l1 1m-3 0l1 1m89-1l1 1m-91 0l1 1m1 0l1 1m88-1l1 1m-88 0l1 1"/><path d="M309 249l1 1-1-1zm2 1l1 1-1-1zm85 0l1 1-1-1zm-83 1l1 1-1-1z" fill="#7D7D82"/><path d="M1502 251l1 1m2-1l5 1m0-1l1 1m0-1l1 1"/><path d="M315 252l1 1-1-1zm82 0l1 1-1-1z" fill="#7D7D82"/><path d="M1498 252l1 1m0-1l1 1m0-1l1 1"/><path d="M1451 363c-19 0-47 1-62 15-7 7-7 15-8 24-3 17 2 36 7 52 3 8 5 16 10 22 13 16 38 23 57 27 7 1 15 1 21 4 6 2 11 9 17 13 12 7 26 11 40 13l-3 9c4-2 5-5 6-9 29 7 67-6 86-29 9-12 15-29 17-44h4c-1-2-1-2-3-2 2-23 6-46 5-70l-2-31c-1-5-4-13-3-18s7-10 10-14c8-10 22-29 16-43-2-7-11-12-17-15-15-7-32-11-49-13-6 0-19-3-23 2-5 4-2 15-2 21-19-4-39-4-58 1 0-6 1-20-4-24-6-5-17-1-23 1-13 5-26 11-37 19-6 4-13 9-16 16-6 12 3 26 10 35l8 10c1 3 0 6-1 9l-3 19z" fill="#030303"/><path d="M1512 252l1 1m-1196 0l1 1m1176-1l1 1m0-1l1 1m0-1l1 1m16-1l1 1m65-1l1 1"/><path d="M1582 253l4 1-4-1zm6 0l5 1-5-1z" fill="#3F3F3F"/><path d="M1593 253l3 1m0-1l3 1m-1312 0l1 1"/><path d="M249 517c10-8 17-23 24-33 3-3 8-9 8-13 0-3-3-6-5-8-15-20-24-43-28-68-8-50 16-103 57-132v-2c-5-2-11-7-17-6-7 1-15 9-21 13-38 25-64 65-73 110-8 53 14 106 55 139z" fill="#0171BD"/><path d="M290 254l1 1m27-1l1 1m0-1l1 1m78-1l1 1m1092-1l1 1m0-1l1 1m10-1l1 1m2-1l4 1m0-1l1 1m65-1l1 1"/><path d="M1577 254l1 1-1-1zm24 0l3 1-3-1z" fill="#595959"/><path d="M285 255l1 1m6-1l1 1m0-1l1 1m26-1l1 1m1168-1l1 1m9-1l1 1m0-1l1 1"/><path d="M1457 331c8-22 25-40 47-49 3-1 7-2 9-5 3-4 1-21-5-22s-13 2-18 4c-14 5-28 11-39 20-5 4-11 9-13 16-2 13 10 29 19 36z" fill="#FFF"/><path d="M1514 255l1 1m60-1l1 1m33-1l1 1m0-1l1 1m-1328 0l1 1m11-1l1 1m26-1l1 1"/><path d="M399 256l1 1-1-1zm1087 0l1 1-1-1z" fill="#9B99BB"/><path d="M1487 256l1 1m7-1l1 1"/><path d="M1496 256l1 1-1-1zm15 0l1 1-1-1z" fill="#9391A5"/><path d="M1582 256l4 1"/><path d="M1586 257c-13 0-9 14-7 23 2 19 7 38 16 55 3 7 9 15 17 15 7-1 15-6 20-10 11-10 21-22 27-35 3-6 7-16 4-23-4-7-12-11-19-13-18-8-39-13-58-12z" fill="#FFF"/><path d="M1588 256l5 1m0-1l3 1m17-1l1 1m0-1l1 1m0-1l1 1m-1334 0l1 1m14-1l1 1m26-1l1 1m1158-1l1 1"/><path d="M1484 257l1 1-1-1zm8 0l1 1-1-1z" fill="#595959"/><path d="M1493 257l1 1"/><path d="M1574 257l1 1-1-1zm4 0l1 1-1-1z" fill="#BCBCBE"/><path d="M1604 257l1 1m13-1l1 1m0-1l1 1m0-1l1 1m-1341 0l1 1m18-1l1 1"/><path d="M325 258l1 1-1-1zm1156 0l1 1-1-1z" fill="#9B99BB"/><path d="M1489 258l1 1m0-1l1 1m21-1l1 1m2-1l1 1m58-1l1 1m2-1l1 1m29-1l1 1"/><path d="M1610 258l1 1-1-1zm12 0l1 1-1-1z" fill="#3F3F3F"/><path d="M1623 258l1 1m0-1l1 1"/><path d="M279 259l1 1-1-1zm22 0l1 1-1-1z" fill="#55A1D2"/><path d="M400 259l1 1-1-1zm1079 0l1 1-1-1zm8 0l1 1-1-1zm25 0l1 1-1-1z" fill="#7D7D82"/><path d="M1612 259l1 1m0-1l1 1m0-1l1 1m0-1l1 1m10-1l1 1m0-1l1 1m-1351 0l1 1m25-1l1 1m24-1l1 1m1147-1l1 1"/><path d="M1477 260l1 1-1-1zm7 0l1 1-1-1z" fill="#595959"/><path d="M1485 260l1 1-1-1zm27 0l1 1-1-1zm105 0l1 1-1-1z" fill="#BCBCBE"/><path d="M1618 260l1 1m0-1l1 1m10-1l1 1m0-1l1 1m-1356 0l1 1m52-1l1 1"/><path d="M401 261l1 1-1-1zm1073 0l1 1-1-1z" fill="#BCBCBE"/><path d="M1475 261l1 1m6-1l1 1m138-1l1 1m0-1l1 1"/><path d="M1623 261l1 1-1-1zm10 0l1 1-1-1z" fill="#595959"/><path d="M1634 261l1 1m-1361 0l1 1m55-1l1 1m70-1l1 1m1070-1l1 1m6-1l1 1m0-1l1 1m144-1l1 1m0-1l1 1m0-1l1 1m8-1l1 1m0-1l1 1m-1365 0l1 1m1196-1l1 1m6-1l1 1m0-1l1 1m34-1l1 1m115-1l1 1"/><path d="M1630 263l1 1-1-1zm9 0l1 1-1-1z" fill="#595959"/><path d="M1640 263l1 1m-1339 0l1 1m99-1l1 1m1065-1l1 1m6-1l1 1m156-1l1 1m0-1l1 1m8-1l1 1m-1373 0l1 1m30-1l1 1m100-1l1 1m1063-1l1 1m0-1l1 1m5-1l1 1m161-1l1 1m0-1l1 1m7-1l1 1m0-1l1 1m-1377 0l1 1"/><path d="M333 266l1 1-1-1zm1131 0l1 1-1-1z" fill="#BCBCBE"/><path d="M1465 266l1 1m5-1l1 1m166-1l1 1m0-1l1 1m6-1l1 1m0-1l1 1m-1381 0l1 1m30-1l1 1m35-1l1 1"/><path d="M1463 267l1 1-1-1zm6 0l1 1-1-1z" fill="#595959"/><path d="M1641 267l1 1m0-1l1 1m6-1l1 1"/><path d="M266 268l1 1-1-1zm31 0l1 1-1-1z" fill="#8DC1E2"/><path d="M335 268l1 1m67-1l1 1m1057-1l1 1m5-1l1 1m175-1l1 1m0-1l1 1m6-1l1 1m-1387 0l1 1m30-1l1 1m106-1l1 1m1055-1l1 1m5-1l1 1m0-1l1 1m179-1l1 1m6-1l1 1m-1391 0l1 1m72-1l1 1m1121-1l1 1m5-1l1 1m183-1l1 1m5-1l1 1m0-1l1 1m-1394 0l1 1m74-1l1 1m1118-1l1 1"/><path d="M1462 271l1 1-1-1zm188 0l1 1-1-1zm6 0l1 1-1-1z" fill="#7D7D82"/><path d="M261 272l1 1m1193-1l1 1m4-1l1 1m191-1l1 1m5-1l1 1m-1321 0l1 1m1114-1l1 1"/><path d="M1459 273l1 1-1-1zm87 0l5 1-5-1z" fill="#BCBCBE"/><path d="M1653 273l1 1m0-1l1 1m4-1l1 1m-1402 0l1 1m80-1l1 1m1112-1l1 1m4-1l1 1"/><path d="M1536 274l3 1-3-1zm21 0l3 1-3-1z" fill="#3F3F3F"/><path d="M1560 274l3 1m92-1l1 1m4-1l1 1m-1404 0l1 1"/><path d="M1450 275l1 1-1-1zm6 0l1 1-1-1z" fill="#BCBCBE"/><path d="M1525 275l3 1m39-1l1 1m0-1l3 1m3-1l1 1m81-1l1 1m4-1l1 1m-1406 0l1 1m83-1l1 1m1108-1l1 1m4-1l1 1m65-1l1 1m0-1l1 1m0-1l1 1m0-1l1 1m22-1l5 1m21-1l1 1m85-1l1 1"/><path d="M1662 276l1 1-1-1zm-214 1l1 1-1-1z" fill="#2D2D30"/><path d="M1453 277l1 1m60-1l1 1m19-1l3 1m0-1l3 1"/><path d="M1454 362c11 0 24 0 35 3-2-9-3-17 2-26 1-3 4-7 8-6s5 6 5 9c1 10-2 17-7 25l41 12c6 2 13 3 16 8-24-4-46-15-70-20-27-4-55 0-81 6 4 2 8 0 12 0 8 0 18 2 24 7 4 5 3 11 2 16-3 11-12 27-24 30-6 2-10-2-14-6-9-9-14-21-16-33-6 9-4 22-3 32 1 19 6 45 20 59 6 6 14 9 21 12 16 7 32 11 49 13 14 1 29 1 42-3 8-3 15-8 15-17h4c-2 24-34 24-52 24 7 10 21 15 32 19 35 12 83 4 106-27 10-13 14-30 16-46 5-25 5-49 4-74-1-13-1-26-4-38-9 4-17 14-28 12-8-1-14-10-17-17-9-17-15-37-17-56-38-7-84-1-106 34-10 14-12 31-15 48z" fill="#FFF"/><path d="M1557 277l3 1m99-1l1 1m3-1l1 1m-1323 0l1 1m1104-1l1 1m4-1l1 1m61-1l1 1m12-1l1 1"/><path d="M1527 278l3 1-3-1zm39 0l3 1-3-1z" fill="#9B99BB"/><path d="M1660 278l1 1m3-1l1 1m-220 0l1 1m4-1l1 1m59-1l1 1m0-1l1 1m9-1l1 1m0-1l1 1"/><path d="M1523 279l1 1-1-1zm49 0l1 1-1-1z" fill="#BCBCBE"/><path d="M1573 279l1 1m0-1l1 1m3-1l1 1m82-1l1 1m3-1l1 1m-1415 0l1 1m90-1l1 1"/><path d="M1444 280l1 1-1-1zm5 0l1 1-1-1z" fill="#9B99BB"/><path d="M1507 280l1 1m0-1l1 1m8-1l1 1m0-1l1 1m0-1l1 1m55-1l1 1m86-1l1 1m-1413 0l1 1m1192-1l1 1"/><path d="M1448 281l1 1-1-1zm56 0l1 1-1-1z" fill="#BCBCBE"/><path d="M1505 281l1 1m7-1l1 1m0-1l1 1m0-1l1 1"/><path d="M1575 281l1 1-1-1zm91 0l1 1-1-1z" fill="#7D7D82"/><path d="M249 282l1 1m93-1l1 1m1098-1l1 1m4-1l1 1m54-1l1 1m7-1l1 1m0-1l1 1m151-1l1 1m-1416 0l1 1m33-1l1 1m1158-1l1 1m3-1l1 1m54-1l1 1m7-1l1 1m158-1l1 1m-1421 0l1 1m33-1l1 1m62-1l1 1m1095-1l1 1m3-1l1 1m52-1l1 1"/><path d="M1498 284l1 1-1-1zm7 0l1 1-1-1z" fill="#595959"/><path d="M1506 284l1 1"/><path d="M246 285l1 1-1-1zm34 0l1 1-1-1z" fill="#55A1D2"/><path d="M344 285l1 1m1094-1l1 1m3-1l1 1m51-1l1 1m0-1l1 1m6-1l1 1m75-1l1 1m-1335 0l1 1m1192-1l1 1m55-1l1 1m5-1l1 1m0-1l1 1m77-1l1 1m-1235 0l1 1m1092-1l1 1m3-1l1 1m49-1l1 1m5-1l1 1m0-1l1 1m76-1l1 1m87-1l1 1m-228 0l1 1m3-1l1 1m48-1l1 1m5-1l1 1m0-1l1 1m-1221 0l1 1m68-1l1 1m1093-1l1 1m48-1l1 1m5-1l1 1m-1220 0l1 1m69-1l1 1m1089-1l1 1m2-1l1 1m47-1l1 1m5-1l1 1m86-1l1 1m-1341 0l1 1"/><path d="M1435 291l1 1-1-1zm4 0l1 1-1-1z" fill="#BCBCBE"/><path d="M1486 291l1 1m4-1l1 1m85-1l1 1m2-1l1 1m83-1l1 1m-1426 0l1 1m107-1l1 1"/><path d="M1435 292l1 1-1-1zm3 0l1 1-1-1z" fill="#595959"/><path d="M1484 292l1 1m5-1l1 1m86-1l1 1m2-1l1 1m-1343 0l1 1m35-1l1 1m72-1l1 1m1090-1l1 1m44-1l1 1m4-1l1 1m88-1l1 1m2-1l1 1m82-1l1 1"/><path d="M237 294l1 1-1-1zm36 0l1 1-1-1z" fill="#55A1D2"/><path d="M1434 294l1 1"/><path d="M1437 294l1 1-1-1zm45 0l1 1-1-1z" fill="#2D2D30"/><path d="M1487 294l1 1m175-1l1 1m2-1l1 1m-1431 0l1 1"/><path d="M1434 295l1 1-1-1zm3 0l1 1-1-1z" fill="#7D7D82"/><path d="M1480 295l1 1m4-1l1 1m95-1l1 1m81-1l1 1m2-1l1 1m-1432 0l1 1m112-1l1 1m1130-1l1 1m4-1l1 1m93-1l1 1m2-1l1 1"/><path d="M234 297l1 1-1-1zm37 0l1 1-1-1z" fill="#8DC1E2"/><path d="M348 297l1 1m1129-1l1 1m4-1l1 1m94-1l1 1m2-1l1 1m80-1l1 1m2-1l1 1m-189 0l1 1"/><path d="M1482 298l1 1-1-1zm96 0l1 1-1-1z" fill="#C7C6D6"/><path d="M1662 298l1 1m2-1l1 1m-1258 0v16m1068-16l1 1m3-1l1 1m101-1l1 1m78-1l1 1m-1393 0l1 1m1205-1l1 1m3-1l1 1m99-1l1 1m2-1l1 1m78-1l1 1m2-1l1 1m-231 0l1 1"/><path d="M1474 301l1 1-1-1zm4 0l1 1-1-1z" fill="#595959"/><path d="M1579 301l1 1m2-1l1 1m81-1l1 1m-1435 0l1 1m37-1l1 1m1165-1l1 1"/><path d="M1473 302l1 1-1-1zm4 0l1 1-1-1z" fill="#595959"/><path d="M1579 302l1 1m80-1l1 1m-1432 0l1 1m37-1l1 1m1170-1l1 1m33-1l1 1m3-1l1 1m106-1l1 1m79-1l1 1m-1436 0l1 1m1206-1l1 1m2-1l1 1m32-1l1 1m3-1l1 1m104-1l1 1m2-1l1 1m75-1l1 1m-1394 0l1 1m1168-1l1 1m34-1l1 1m3-1l1 1m105-1l1 1m2-1l1 1m78-1l1 1m-224 0l1 1m218-1l1 1m-1433 0l1 1m38-1l1 1"/><path d="M1436 307l1 1-1-1zm3 0l1 1-1-1z" fill="#595959"/><path d="M1469 307l1 1m3-1l1 1m110-1l1 1m76-1l1 1m-1437 0l1 1m38-1l1 1m1171-1l1 1m31-1l1 1m3-1l1 1m108-1l1 1m2-1l1 1m72-1l1 1m-221 0l1 1m2-1l1 1m26-1l1 1m3-1l1 1m109-1l1 1m78-1l1 1m-1398 0l1 1m1173-1l1 1m32-1l1 1m114-1l1 1m70-1l1 1m-1434 0l1 1m1217-1l1 1m24-1l1 1m3-1l1 1m111-1l1 1m2-1l1 1m73-1l1 1"/><path d="M222 312l1 1-1-1zm40 0l1 1-1-1z" fill="#8DC1E2"/><path d="M1438 312l1 1"/><path d="M1442 312l1 1-1-1zm23 0l1 1-1-1z" fill="#BCBCBE"/><path d="M1469 312l1 1m112-1l1 1m2-1l1 1"/><path d="M1655 312l1 1-1-1zm-216 1l1 1-1-1zm3 0l1 1-1-1zm26 0l1 1-1-1z" fill="#3F3F3F"/><path d="M1654 313l1 1m3-1l1 1m-1398 0l1 1m1177-1l1 1m3-1l1 1m20-1l1 1m118-1l1 1m2-1l1 1m70-1l1 1m-1438 0l1 1m1219-1l1 1m26-1l1 1m115-1l1 1m2-1l1 1m66-1l1 1m-1394 0l1 1"/><path d="M1444 316l1 1-1-1zm19 0l1 1-1-1z" fill="#595959"/><path d="M1652 316l1 1"/><path d="M1656 316l1 1-1-1zm-215 1l1 1-1-1z" fill="#9391A5"/><path d="M1445 317l1 1m20-1l1 1m117-1l1 1m2-1l1 1m67-1l1 1m-1438 0l1 1m40-1l1 1m1182-1l1 1m19-1l1 1m121-1l1 1m2-1l1 1m63-1l1 1m-206 0l1 1"/><path d="M1465 319l1 1-1-1zm185 0l1 1-1-1z" fill="#9B99BB"/><path d="M1654 319l1 1m-1397 0l1 1"/><path d="M1443 320l1 1-1-1zm4 0l1 1-1-1z" fill="#9391A5"/><path d="M1461 320l1 1-1-1zm124 0l1 1-1-1z" fill="#595959"/><path d="M1588 320l1 1m64-1l1 1m-1438 0l1 1m41-1l1 1m1185-1l1 1m3-1l1 1"/><path d="M1464 321l1 1-1-1zm121 0l1 1-1-1z" fill="#9B99BB"/><path d="M1649 321l1 1m-190 0l1 1m128-1l1 1m58-1l1 1m3-1l1 1m-1438 0l1 1m41-1l1 1m1187-1l1 1m3-1l1 1m13-1l1 1"/><path d="M1586 323l1 1-1-1zm3 0l1 1-1-1z" fill="#595959"/><path d="M1647 323l1 1m3-1l1 1m-1438 0l1 1m1231-1l1 1m3-1l1 1"/><path d="M1459 324l1 1-1-1zm127 0l1 1-1-1z" fill="#BCBCBE"/><path d="M1646 324l1 1m3-1l1 1m-1395 0l1 1m1190-1l1 1m3-1l1 1"/><path d="M1459 325l1 1-1-1zm3 0l1 1-1-1z" fill="#595959"/><path d="M1590 325l1 1m-1378 0l1 1m42-1l1 1m1191-1l1 1"/><path d="M1452 326l1 1-1-1zm10 0l1 1-1-1z" fill="#C7C6D6"/><path d="M1587 326l1 1m2-1l1 1m54-1l1 1"/><path d="M1649 326l1 1-1-1zm-196 1l1 1-1-1z" fill="#C7C6D6"/><path d="M1458 327l1 1m2-1l1 1m129-1l1 1m52-1l1 1m3-1l1 1"/><path d="M212 328l1 1-1-1zm43 0l1 1-1-1z" fill="#55A1D2"/><path d="M1449 328l1 1"/><path d="M1453 328l1 1-1-1zm5 0l1 1-1-1z" fill="#2D2D30"/><path d="M1461 328l1 1"/><path d="M1588 328l1 1-1-1zm3 0l1 1-1-1z" fill="#595959"/><path d="M1643 328l1 1m3-1l1 1m-1437 0l1 1m1238-1l1 1m3-1l1 1m2-1l1 1m130-1l1 1m53-1l1 1m3-1l1 1m-1436 0l1 1m1239-1l1 1m3-1l1 1m1-1l1 1m2-1l1 1m128-1l1 1m2-1l1 1m48-1l1 1m3-1l1 1m-1436 0l1 1m43-1l1 1m1197-1l1 1m7-1l1 1m78-1l1 1m49-1l1 1m50-1l1 1"/><path d="M1453 332l1 1-1-1zm42 0l1 1-1-1z" fill="#595959"/><path d="M1500 332l1 1m37-1l1 1"/><path d="M1539 333c-3 1-4 5-5 8-1 8 0 17 4 24 1 4 5 10 10 7 3-2 4-6 4-9 1-7 0-16-3-23-2-3-5-9-10-7z" fill="#030303"/><path d="M1543 332l1 1m49-1l1 1"/><path d="M1639 332l1 1-1-1zm5 0l1 1-1-1z" fill="#C7C6D6"/><path d="M209 333l1 1"/><path d="M1454 333l1 1-1-1zm5 0l1 1-1-1z" fill="#595959"/><path d="M1494 333l1 1m6-1l1 1"/><path d="M1537 333l1 1-1-1zm7 0l1 1-1-1z" fill="#2D2D30"/><path d="M1590 333l1 1"/><path d="M1638 333l1 1-1-1zm5 0l1 1-1-1z" fill="#C7C6D6"/><path d="M253 334l1 1m1201-1l1 1m3-1l1 1m33-1l1 1m42-1l1 1m8-1l1 1m48-1l1 1m42-1l1 1m4-1l1 1m-1435 0l1 1m1283-1l1 1m9-1l1 1m43-1l1 1m44-1l1 1m44-1l1 1"/><path d="M1641 335l1 1-1-1zm-186 1l1 1-1-1z" fill="#9B99BB"/><path d="M1458 336l1 1m32-1l1 1m43-1l1 1m11-1l1 1m47-1l1 1m39-1l1 1m4-1l1 1m-1434 0l1 1m44-1l1 1m1202-1l1 1m2-1l1 1m32-1l1 1m100-1l1 1m41-1l1 1m-1383 0l1 1m152-1l1 1"/><path d="M1458 338l1 1-1-1zm32 0l1 1-1-1z" fill="#BCBCBE"/><path d="M1503 338l1 1m30-1l1 1m13-1l1 1m47-1l1 1m36-1l1 1m-1428 0l1 1m1283-1l1 1m43-1l1 1"/><path d="M1593 339l1 1-1-1zm4 0l1 1-1-1z" fill="#BCBCBE"/><path d="M1632 339l1 1m7-1l1 1m-1390 0l1 1m1202-1l1 1"/><path d="M1457 340l1 1-1-1zm77 0l1 1-1-1z" fill="#3F3F3F"/><path d="M1549 340l1 1m44-1l1 1m36-1l1 1m4-1l1 1m0-1l1 1m-1433 0l1 1m45-1l1 1m1202-1l1 1m2-1l1 1m31-1l1 1m108-1l1 1"/><path d="M1630 341l1 1-1-1zm4 0l1 1-1-1z" fill="#2D2D30"/><path d="M1637 341l1 1m-1433 0l1 1m45-1l1 1m1205-1l1 1m31-1l1 1m60-1l1 1m44-1l1 1m3-1l1 1m28-1l1 1m4-1l1 1m3-1l1 1m2-1l1 1m-91 0l1 1m45-1l1 1m3-1l1 1m26-1l1 1m4-1l1 1m-1429 0l1 1m1248-1l1 1m2-1l1 1"/><path d="M1488 344l1 1-1-1zm137 0l1 1-1-1zm6 0l1 1-1-1z" fill="#BCBCBE"/><path d="M403 345l1 1"/><path d="M1453 345l1 1-1-1zm3 0l1 1-1-1zm32 0l1 1-1-1z" fill="#7D7D82"/><path d="M1551 345l1 1-1-1zm46 0l1 1-1-1z" fill="#BCBCBE"/><path d="M1601 345l1 1m22-1l1 1m4-1l1 1m8-1l1 1m-1436 0l1 1m199-1l1 1m1049-1l1 1m2-1l1 1m31-1l1 1m62-1l1 1m46-1l1 1m3-1l1 1"/><path d="M1622 346l1 1-1-1zm6 0l1 1-1-1zm13 0l1 1-1-1z" fill="#7D7D82"/><path d="M403 347l1 1-1-1zm1053 0l1 1-1-1z" fill="#C7C6D6"/><path d="M1551 347l1 1m47-1l1 1m3-1l1 1m0-1l1 1m15-1l1 1m5-1l1 1m0-1l1 1m-1426 0l1 1"/><path d="M1600 348l1 1-1-1zm5 0l1 1-1-1z" fill="#7D7D82"/><path d="M1617 348l1 1m0-1l1 1m6-1l1 1"/><path d="M202 349l1 1-1-1zm47 0l1 1-1-1z" fill="#55A1D2"/><path d="M402 349l1 1m1052-1l1 1m145-1l1 1m5-1l1 1"/><path d="M1608 349l1 1-1-1zm6 0l1 1-1-1z" fill="#BCBCBE"/><path d="M1615 349l1 1-1-1zm8 0l1 1-1-1z" fill="#7D7D82"/><path d="M402 350l1 1"/><path d="M1452 350l1 1-1-1zm3 0l1 1-1-1z" fill="#7D7D82"/><path d="M1602 350l1 1m18-1l1 1m-1421 0l1 1m1301-1l1 1m100-1l1 1m13-1l1 1m0-1l1 1m-117 0l1 1m102-1l1 1m0-1l1 1m0-1l1 1m5-1l1 1m0-1l1 1m0-1l1 1m-1216 0l1 1m-202 0l1 1m200-1l1 1m1052 0l1 1m47-1l1 1m31-1l1 1m-1135 0l1 1m1101-1l1 1m31-1l1 1m-1336 0l1 1m200-1l1 1m1100 0l1 1m-1 0l1 1m33-1l1 1m-1338 0l1 1m200-1l1 1m1135-1l1 1"/><path d="M1450 361l-6 1h7l-1-1z" fill="#BCBCBE"/><path d="M1488 361l1 1m11-1l1 1m-51 0l1 1m3-1l8 1m26-1l1 1m47-1l1 1m-1340 0l1 1m200-1l1 1m1032-1l3 1"/><path d="M1434 363l4 1-4-1zm39 0l4 1-4-1z" fill="#3F3F3F"/><path d="M1477 363l3 1"/><path d="M1499 363l1 1-1-1zm37 0l1 1-1-1z" fill="#BCBCBE"/><path d="M197 364l1 1m1224-1l1 1m61-1l1 1m0-1l1 1m0-1l1 1m0-1l1 1"/><path d="M1498 364l1 1-1-1zm54 0l1 1-1-1z" fill="#7D7D82"/><path d="M1417 365l1 1m0-1l1 1"/><path d="M1419 365l1 1-1-1zm26 0c5 2 12 1 17 1-5-2-12-1-17-1zm52 0l1 1-1-1z" fill="#3F3F3F"/><path d="M1537 365l1 1m14-1l1 1m-1156 0l1 1m1014-1l1 1m0-1l1 1m0-1l1 1m14-1l3 1m0-1l3 1"/><path d="M1435 366l3 1-3-1zm37 0l5 1-5-1z" fill="#BCBCBE"/><path d="M1477 366l3 1m16-1l1 1m-1301 0l1 1m1212-1l1 1"/><path d="M1410 367l1 1-1-1zm12 0l3 1-3-1z" fill="#595959"/><path d="M1484 367l1 1m0-1l1 1m0-1l1 1m10-1l1 1m0-1l1 1m39-1l1 1m12-1l1 1m-1356 0l1 1m150-1l1 1m48-1l1 1m1009-1l1 1m0-1l1 1m9-1l1 1m0-1l1 1m0-1l1 1"/><path d="M1420 368l1 1-1-1zm68 0l1 1-1-1z" fill="#C7C6D6"/><path d="M1489 368l1 1"/><path d="M1490 368l1 1-1-1zm10 0l1 1-1-1z" fill="#595959"/><path d="M1501 368l1 1m37-1l1 1m11-1l1 1m-1156 0l1 1m1006-1l1 1m0-1l1 1m8-1l1 1m0-1l1 1m0-1l1 1m76-1l1 1m0-1l1 1m0-1l1 1m8-1l1 1m0-1l1 1"/><path d="M1505 369l1 1-1-1zm34 0l1 1-1-1z" fill="#C7C6D6"/><path d="M1401 370l1 1m8-1l1 1"/><path d="M1411 370l1 1-1-1zm85 0l1 1-1-1z" fill="#BCBCBE"/><path d="M1497 370l1 1-1-1zm10 0l1 1-1-1z" fill="#595959"/><path d="M1508 370l1 1m31-1l1 1m9-1l1 1"/><path d="M395 371l1 1-1-1zm1004 0l1 1-1-1zm8 0l1 1-1-1z" fill="#7D7D82"/><path d="M1408 371l1 1-1-1zm91 0l1 1-1-1z" fill="#C7C6D6"/><path d="M1500 371l1 1m0-1l1 1m8-1l1 1m0-1l1 1m29-1l1 1m7-1l1 1m-1204 0l1 1"/><path d="M1397 372l1 1-1-1zm7 0l1 1-1-1z" fill="#595959"/><path d="M1405 372l1 1m97-1l1 1m0-1l1 1m9-1l1 1"/><path d="M1515 372l1 1-1-1zm27 0l1 1-1-1z" fill="#BCBCBE"/><path d="M1548 372l1 1m-1203 0l1 1"/><path d="M1395 373l1 1-1-1zm7 0l1 1-1-1z" fill="#7D7D82"/><path d="M1411 373l8 1-8-1zm95 0l1 1-1-1z" fill="#BCBCBE"/><path d="M1507 373l1 1m9-1l1 1m0-1l1 1m25-1l3 1m0-1l1 1m-1154 0l1 1m998-1l1 1m6-1l-2 1m3-1l3 1m0-1l3 1m19-1l1 1m83-1l1 1m0-1l1 1m8-1l1 1m0-1l1 1m0-1l1 1m-131 0l1 1"/><path d="M1397 375l-1 2h2l-1-2z" fill="#2D2D30"/><path d="M1400 375l1 1m27-1l1 1m0-1l1 1m0-1l1 1m82-1l1 1"/><path d="M1514 375l1 1-1-1zm10 0l1 1-1-1z" fill="#595959"/><path d="M1525 375l1 1m-1181 0l1 1m47-1l1 1m996-1l1 1m41-1l1 1"/><path d="M1433 376l1 1-1-1zm83 0l1 1-1-1z" fill="#C7C6D6"/><path d="M1517 376l1 1m0-1l1 1m8-1l1 1m0-1l1 1m-140 0l1 1m44-1l1 1m0-1l1 1m84-1l1 1m0-1l1 1m9-1l1 1m0-1l1 1m-1141 0l1 1m995-1l1 1m47-1l1 1m86-1l1 1m0-1l1 1m9-1l1 1m0-1l1 1"/><path d="M344 379l1 1-1-1zm48 0l1 1-1-1zm995 0l1 1-1-1zm51 0l1 1-1-1z" fill="#9B99BB"/><path d="M1527 379l1 1m0-1l1 1m8-1l1 1m0-1l1 1m0-1l1 1m-1196 0l1 1m1041-1l1 1m52-1l1 1m90-1l1 1"/><path d="M1531 380l1 1-1-1zm10 0l1 1-1-1z" fill="#595959"/><path d="M1542 380l1 1m-1152 0l1 1m1048-1l1 1m92-1l1 1m0-1l1 1m0-1l1 1m8-1l1 1m0-1l1 1m-1203 0l1 1m1041-1l1 1m151-1l1 1m0-1l1 1m9-1l1 1m0-1l1 1"/><path d="M343 383l1 1-1-1zm47 0l1 1-1-1z" fill="#7D7D82"/><path d="M1384 383l1 1m3-1l1 1"/><path d="M1441 383l1 1-1-1zm99 0l1 1-1-1z" fill="#BCBCBE"/><path d="M1541 383l1 1m9-1l1 1m0-1l1 1m-166 0l1 1m156-1l1 1m0-1l1 1m-1204 0l1 1m46-1l1 1m993-1l1 1m163-1l1 1m0-1l1 1"/><path d="M1553 385l1 1-1-1zm-1211 1l1 1-1-1z" fill="#7D7D82"/><path d="M389 386l1 1m996-1l1 1m163-1l1 1m0-1l1 1m0-1l1 1m0-1l1 1m-1166 0l1 1m993-1l1 1"/><path d="M341 388l1 1-1-1zm47 0l1 1-1-1z" fill="#BCBCBE"/><path d="M1382 388l1 1"/><path d="M1385 388l1 1-1-1zm-1044 1l1 1-1-1z" fill="#7D7D82"/><path d="M1385 389l1 1m-999 0l1 1m993-1l1 1m-1042 0l1 1m1040-1l1 1m2-1l1 1m-1045 0l1 1m45-1l1 1m994-1l1 1m2-1l1 1m3-1l1 1m52-1l1 1m-54 0l1 1m52-1l1 1m-1250 0v12"/><path d="M339 394l1 1-1-1zm46 0l1 1-1-1zm1003 0l1 1-1-1z" fill="#9B99BB"/><path d="M1380 395l1 1m59-1l1 1m-1103 0l1 1m45-1l1 1"/><path d="M1440 396l1 1-1-1zm-1102 1l1 1-1-1zm1051 0l1 1-1-1z" fill="#7D7D82"/><path d="M1440 397l1 1m-1058 0l1 1m1005-1l1 1m-1053 0l1 1m1101-1l1 1m-1058 0l1 1m1007-1l1 1m-1055 0l1 1m1101-1l1 1m-1103 0l1 1m44-1l1 1m1009-1l1 1m46-1l1 1m-1059 0l1 1m1056-1l1 1m-1188 0l1 1m84-1l1 1m44-1l1 1m1011-1l1 1m44-1l1 1m-1059 0l1 1m1012-1l1 1m-1059 0l1 1m1058-1l1 1m42-1l1 1m-1059 0l1 1m1056-1l1 1m-1185 0l1 1m81-1l1 1m1060-1l1 1m40-1l1 1m-1103 0l1 1m43-1l1 1m1056-1l1 1m-1103 0l1 1m1062-1l1 1m-1064 0l1 1m43-1l1 1m1019-1l1 1m36-1l1 1m-1182 0l1 1m122-1l1 1m1020-1l1 1m35-1l1 1m-1181 0l1 1m78-1l1 1m43-1l1 1m1021-1l1 1m-1024 0l1 1m1023-1l1 1m32-1l1 1m-1102 0l1 1m1099-1l1 1m-1178 0l1 1m119-1l1 1m1025-1l1 1m29-1l1 1m-1177 0l1 1m75-1l1 1m1070-1l1 1m-1029 0l1 1m1028-1l1 1m26-1l1 1m-1175 0l1 1m73-1l1 1m42-1l1 1m1030-1l1 1m24-1l1 1m-1174 0l1 1m1148-1l1 1m22-1l1 1m-1100 0l1 1m42-1l1 1m1033-1l1 1m20-1l1 1m-1171 0l1 1m1149-1l1 1m18-1l1 1m-1170 0l1 1m70-1l1 1m42-1l1 1m1036-1l1 1m15-1l1 1m-1055 0l1 1m1038-1l1 1m0-1l1 1m12-1l1 1m-1166 0l1 1m68-1l1 1m1083-1l1 1m9-1l1 1m-1164 0l1 1m67-1l1 1m42-1l1 1m1043-1l1 1m0-1l1 1m0-1l1 1m2-1l1 1m0-1l1 1m-1094 0l1 1m-130 0l1 1m61-1l1 1m65-1l1 1m42-1l1 1m-2 0l1 1m-108 0l1 1m63-1l1 1m1058-1l1 1m-1124 0l1 1m105-1l1 1m-44 0l1 1m41-1l1 1m1021-1l1 1"/><path d="M196 433l1 1-1-1zm63 0l1 1-1-1z" fill="#55A1D2"/><path d="M1382 433l1 1m2-1l1 1m-1190 0l1 1m123-1l1 1m41-1l1 1m1022-1l1 1m-1126 0l1 1m58-1l1 1m41-1l1 1m1023-1l1 1m-1189 1l1 1m63-1l1 1m56-1l1 1m41-1l1 1m1025-1l1 1m-1190 0l1 1m1185-1l1 1m2-1l1 1m-1125 0l1 1"/><path d="M317 439l1 1-1-1zm1066 0l1 1-1-1z" fill="#7D7D82"/><path d="M1386 439l1 1m-1029 0l1 1m1024-1l1 1m-1186 0l1 1m64-1l1 1m52-1l1 1m-119 0l1 1m116-1l1 1m41-1l1 1m1026-1l1 1m2-1l1 1m-1124 0l1 1"/><path d="M356 443l1 1-1-1zm1028 0l1 1-1-1z" fill="#7D7D82"/><path d="M1387 443l1 1m-1189 0l1 1m114-1l1 1m1069-1l1 1"/><path d="M199 445l1 1-1-1zm66 0l1 1-1-1z" fill="#8DC1E2"/><path d="M355 445l1 1-1-1zm1033 0l1 1-1-1z" fill="#C7C6D6"/><path d="M354 446l1 1m1030-1l1 1m2-1l1 1m-1189 0l1 1m65-1l1 1"/><path d="M312 447l1 1-1-1zm1073 0l1 1-1-1z" fill="#9B99BB"/><path d="M1388 447l1 1m252-1l1 1m-1442 0l1 1m152-1l1 1m1284-1l1 1m-1372 0l1 1m43-1l1 1m40-1l1 1m1033-1l1 1m2-1l1 1m-1189 0l1 1m66-1l1 1m41-1l1 1m1075-1l1 1m2-1l1 1m251-1l1 1m-1441 0l1 1m149-1l1 1m-83 0l1 1m39-1l1 1m40-1l1 1m1036-1l1 1m2-1l1 1m-1189 0l1 1m1184-1l1 1m2-1l1 1m249-1l1 1m-1371 0l1 1m1366-1l1 1m-1367 0l1 1"/><path d="M307 455l1 1-1-1zm41 0l1 1-1-1z" fill="#9391A5"/><path d="M1388 455l1 1m2-1l1 1m-1189 0l1 1m1184-1l1 1"/><path d="M1640 456v2h2l-2-2z" fill="#BCBCBE"/><path d="M272 457l1 1m33-1l1 1m1085-1l1 1m251-1l1 1"/><path d="M1528 549l-1-4c-6 3-10 7-15 12-18 18-24 39-30 62-7 22-10 44-18 65-10 27-27 51-51 68-21 14-45 24-70 28-62 0-124-7-185-19-20-5-40-12-60-16-26-6-53-8-80-8l-26 2c-25 2-51 6-72 20-11 7-21 19-23 33v15c4 25 36 34 57 38 38 8 78 11 117 14l38 3c6 0 14-1 20 2 4 1 3 6 3 9 0 8 0 17 2 25 5 21 23 33 43 36 28 4 57 3 85-4 11-4 24-9 27-21 3-11-3-20-10-27-14-13-32-21-50-25-27-6-55-8-82-10-52-5-105-7-157-14-20-3-43-5-61-15-14-9-18-23-7-36 9-10 20-15 32-18 16-6 34-7 51-8h38c19 2 37 3 56 8l54 14c62 13 126 19 189 20 37-3 77-22 103-48 19-20 32-45 40-71l18-69c3-9 6-21 13-29 4-4 10-6 15-9l24-14c33-20 64-39 90-67 8-9 19-17 24-28-7-2-21-9-27-3-5 5-6 14-8 20-3 9-8 18-14 25a95 95 0 0 1-58 29h-15c-8 1-19 7-19 15z" fill="#1B1565"/><path d="M1647 457l1 1m-1444 0l1 1m68-1l1 1"/><path d="M305 458l1 1-1-1zm41 0l1 1-1-1z" fill="#9B99BB"/><path d="M1389 458l1 1-1-1zm3 0l1 1-1-1z" fill="#595959"/><path d="M1636 458l1 1m14-1l1 1m0-1l1 1m-1308 0l1 1m1043-1l1 1"/><path d="M1636 459l1 1-1-1zm20 0l1 1-1-1z" fill="#7D7D82"/><path d="M1657 459l1 1"/><path d="M205 460l1 1-1-1zm69 0l1 1-1-1z" fill="#55A1D2"/><path d="M304 460l1 1m1088-1l1 1m242-1l1 1m2-1l3 1m17-1l1 1m0-1l1 1"/><path d="M205 461l1 1-1-1zm70 0l1 1-1-1z" fill="#C7DCEB"/><path d="M303 461l1 1-1-1zm41 0l1 1-1-1z" fill="#9B99BB"/><path d="M1390 461l1 1"/><path d="M1639 461v2l2-2h-2z" fill="#C7DCEB"/><path d="M1663 461l1 1m-1458 0l1 1m136-1l1 1m1050-1l1 1m271-1l1 1m-1461 0l1 1m69-1l1 1m25-1l1 1m1088-1l1 1m2-1l1 1m240-1l1 1m-1359 0l1 1"/><path d="M301 464l1 1-1-1zm41 0l1 1-1-1z" fill="#BCBCBE"/><path d="M1395 464l1 1m239-1l1 1m-1429 0l1 1m133-1l1 1m1050-1l1 1m2-1l1 1m239-1l1 1"/><path d="M1667 466c6 5 15 7 22 10 37 21 69 49 94 84 24 37 37 83 30 127-3 24-11 56-35 68-2-13-6-26-11-39-1-5-2-10-7-13 4 16 12 31 15 48 1 6 2 14-1 20s-10 9-16 10c-14 3-30 4-44 2-7-1-13 0-20-2-16-5-30-21-26-38 1-10 8-15 12-23h-3c0-10-1-20 2-29l6-15 8-9c23-20 57 0 78 13l1-3c-17-11-34-20-55-20-11 0-21 2-29 10l-7 10c-5 9-7 20-7 30 0 4 2 9 1 13s-4 7-6 10c-2 5-4 10-4 16-5-3-14-9-16-15-2-3-1-8-1-11v-23l-2-68-1-31c0-4 1-9-3-12l2 42c2 43 2 86 1 129 0 6 1 13-2 19-2 6-12 7-18 8-17 2-42 5-57-5-28-19-21-70 14-75V589h-2v72c-12-13-27-29-34-45-5-10-8-20-11-30-2-5-2-10-5-14l12 42 5 11v74c-33 2-39 48-23 70 11 15 26 13 42 14l17 4h31c8 0 23 0 30-6 3-4 3-10 3-15l1-30c5 5 12 9 15 14 3 3 3 7 4 11 3 6 6 11 11 15 8 7 18 8 28 9h40c8-1 18-1 25-6 9-5 4-13 8-20 2-3 7-5 11-7 22-10 44-17 61-35 5-5 11-12 13-19-17 7-33 11-52 11l4-22c6-49-8-98-37-138-12-16-26-29-40-42-15-14-32-25-50-34-6-3-15-8-22-7z" fill="#030303"/><path d="M1671 465l1 1m0-1l1 1m-1373 0l1 1m1091-1l1 1m280-1l1 1m0-1l1 1m-1467 0l1 1m70-1l1 1m19-1l1 1m40-1l1 1m1052-1l1 1m2-1l1 1m237-1l1 1"/><path d="M1668 467l1 1-1-1zm8 0l1 1-1-1z" fill="#595959"/><path d="M1677 467l1 1m-1398 0l1 1m58-1l1 1m1053-1l1 1m240-1l1 1m30-1l-1 2"/><path d="M1579 659v-70h4v116c-36 1-43 58-14 74 8 5 16 5 25 5l30-1c5 0 16-1 18-6 3-4 2-10 2-14l1-39-2-83-1-31-1-24h4c0 25 2 49 3 74l1 42v21c0 3-1 7 1 10 3 5 9 9 14 12 1-5 2-10 5-14l5-10c2-10-1-21 2-31l5-14c12-20 32-23 53-18 15 4 26 13 39 19v2c-7 0-15-8-22-11-14-6-32-11-47-7-18 5-24 24-26 40-1 6-3 15 3 19-4 6-9 11-12 18-2 8-1 16 2 23 10 23 37 22 59 22l30-3c5-1 11-3 14-8s1-14 0-20c-2-17-9-33-15-49l4-1c3 18 14 34 15 52 12-3 18-15 23-25 9-21 13-44 13-67 0-65-37-121-86-160-17-14-37-25-58-33-7-1-12 8-16 12-12 13-24 27-39 38-18 14-38 25-57 37l-17 10c-3 1-6 3-8 6v7l5 16c7 18 15 33 27 48 4 6 8 12 14 16z" fill="#FFF"/><path d="M1670 468l1 1m0-1l1 1m6-1l1 1m0-1l1 1m-1471 0l1 1m71-1l1 1m16-1l1 1m1098-1l1 1"/><path d="M1673 469l1 1-1-1zm8 0l1 1-1-1z" fill="#7D7D82"/><path d="M297 470l1 1"/><path d="M1394 470l1 1-1-1zm4 0l1 1-1-1zm277 0l1 1-1-1z" fill="#BCBCBE"/><path d="M1676 470l1 1-1-1zm7 0l1 1-1-1z" fill="#595959"/><path d="M210 471l1 1m70-1l1 1m55-1l1 1m1057-1l1 1m2-1l1 1m234-1l1 1m44-1l1 1m6-1l1 1m0-1l1 1m-1476 0l1 1m1183-1l1 1m3-1l1 1m233-1l1 1m46-1l1 1m6-1l1 1m0-1l1 1m-1478 0l1 1m68-1l1 1m14-1l1 1m1100-1l1 1m3-1l1 1m281-1l1 1"/><path d="M1683 473l1 1-1-1zm6 0l1 1-1-1z" fill="#3F3F3F"/><path d="M1690 473l1 1"/><path d="M212 474l1 1-1-1zm67 0l1 1-1-1z" fill="#55A1D2"/><path d="M335 474l1 1m1064-1l1 1"/><path d="M1632 474l1 1-1-1zm52 0l1 1-1-1z" fill="#BCBCBE"/><path d="M1685 474l1 1-1-1zm6 0l1 1-1-1z" fill="#3F3F3F"/><path d="M1692 474l1 1m-1359 0l1 1m1062-1l1 1"/><path d="M1401 475l1 1-1-1zm231 0l1 1-1-1z" fill="#595959"/><path d="M1659 475l1 1m26-1l1 1"/><path d="M1687 475l1 1-1-1zm6 0l1 1-1-1z" fill="#3F3F3F"/><path d="M1694 475l1 1m-1482 0l1 1m64-1l1 1"/><path d="M293 476l1 1-1-1zm1105 0l1 1-1-1z" fill="#7D7D82"/><path d="M1402 476l1 1m255-1l1 1m29-1l1 1m0-1l1 1m5-1l1 1m-1419 0l1 1m14-1l1 1m40-1l1 1m1065-1l1 1m3-1l1 1m227-1l1 1m25-1l1 1m32-1l1 1m0-1l1 1m5-1l1 1m-1484 0l1 1m117-1l1 1m1067-1l1 1m3-1l1 1m226-1l1 1m24-1l1 1m35-1l1 1m0-1l1 1m5-1l1 1m-1485 0l1 1m60-1l1 1m14-1l1 1m1109-1l1 1"/><path d="M1405 479l1 1-1-1zm250 0l1 1-1-1z" fill="#7D7D82"/><path d="M1694 479l1 1-1-1zm7 0l1 1-1-1z" fill="#BCBCBE"/><path d="M275 480l1 1m14-1l1 1m40-1l1 1m1070-1l1 1m3-1l1 1m223-1l1 1m65-1l1 1m5-1l1 1m0-1l1 1m-1488 0l1 1m113-1l1 1m1072-1l1 1m4-1l1 1m221-1l1 1"/><path d="M1698 481l1 1-1-1zm6 0l1 1-1-1z" fill="#7D7D82"/><path d="M289 482l1 1m1114-1l1 1m4-1l1 1m290-1l1 1m5-1l1 1m-1434 0l1 1m14-1l1 1m1116-1l1 1m5-1l1 1m217-1l1 1m71-1l1 1m0-1l1 1m4-1l1 1m-1490 0l1 1m109-1l1 1m1077-1l1 1m0-1l1 1m4-1l1 1m0-1l1 1m289-1l1 1m5-1l1 1m-1423 0l1 1m1120-1l1 1m5-1l1 1m116-1l1 1m96-1l1 1m76-1l1 1m4-1l1 1m0-1l1 1m-1441 0l1 1m14-1l1 1"/><path d="M1410 486l1 1-1-1zm6 0l1 1-1-1zm115 0l1 1-1-1zm97 0l1 1-1-1z" fill="#595959"/><path d="M1649 486l1 1m56-1l1 1m5-1l1 1m-1493 0l1 1m49-1l1 1m55-1l1 1m1084-1l1 1m0-1l1 1m5-1l1 1m115-1l1 1m113-1l1 1m59-1l1 1m5-1l1 1m-1494 0l1 1m103-1l1 1m1087-1l1 1m6-1l1 1m109-1l1 1m96-1l1 1m19-1l1 1m61-1l1 1m0-1l1 1m4-1l1 1m-1447 0l1 1m14-1l1 1m1130-1l1 1m6-1l1 1m0-1l1 1m109-1l1 1m112-1l1 1m64-1l1 1m4-1l1 1m0-1l1 1m-1496 0l1 1m45-1l1 1"/><path d="M324 490l1 1-1-1zm1093 0l1 1-1-1z" fill="#9B99BB"/><path d="M1424 490l1 1m0-1l1 1"/><path d="M1529 490l1 1-1-1zm97 0l1 1-1-1z" fill="#595959"/><path d="M1645 490l1 1m66-1l1 1m0-1l1 1m4-1l1 1m-1496 0l1 1m99-1l1 1m1095-1l1 1m0-1l1 1m6-1l1 1m100-1l1 1m3-1l1 1"/><path d="M1644 491l1 1-1-1zm70 0l1 1-1-1z" fill="#7D7D82"/><path d="M1719 491l1 1m-1496 0l1 1m42-1l1 1m14-1l1 1m1138-1l1 1m0-1l1 1m6-1l1 1m0-1l1 1m96-1l1 1m3-1l1 1m93-1l1 1m17-1l1 1m71-1l1 1m5-1l1 1m-1456 0l1 1m14-1l1 1m40-1l1 1m1101-1l1 1m7-1l1 1m0-1l1 1"/><path d="M1526 493l1 1-1-1zm98 0l1 1-1-1z" fill="#BCBCBE"/><path d="M1642 493l1 1-1-1zm75 0l1 1-1-1z" fill="#7D7D82"/><path d="M1722 493l1 1m-297 0l1 1m0-1l1 1m7-1l1 1m89-1l1 1m4-1l1 1m93-1l1 1m93-1l1 1m4-1l1 1m0-1l1 1m-1499 0l1 1m38-1l1 1m14-1l1 1m1148-1l1 1m7-1l1 1m0-1l1 1m0-1l1 1m84-1l1 1m4-1l1 1m93-1l1 1m96-1l1 1m4-1l1 1"/><path d="M227 496l1 1-1-1zm37 0l1 1-1-1z" fill="#55A1D2"/><path d="M279 496l1 1m40-1l1 1m1110-1l1 1m0-1l1 1m8-1l1 1"/><path d="M1442 496l1 1-1-1zm80 0l1 1-1-1z" fill="#BCBCBE"/><path d="M1528 496l1 1m192-1l1 1m4-1l1 1m-293 0l1 1"/><path d="M1435 497l1 1-1-1zm9 0l1 1-1-1z" fill="#595959"/><path d="M1445 497l1 1m75-1l1 1"/><path d="M1526 497l1 1-1-1zm96 0l1 1-1-1z" fill="#3F3F3F"/><path d="M1722 497l1 1m4-1l1 1m-1450 0l1 1m40-1l1 1m1117-1l1 1m0-1l1 1m8-1l1 1m0-1l1 1m0-1l1 1m69-1l1 1"/><path d="M1525 498l1 1-1-1zm96 0l1 1-1-1z" fill="#9391A5"/><path d="M1724 498l1 1m4-1l1 1m-1468 0l1 1m14-1l1 1m40-1l1 1m1121-1l1 1m0-1l1 1m9-1l1 1m0-1l1 1m0-1l1 1m62-1l1 1"/><path d="M1517 499l1 1-1-1zm6 0l1 1-1-1z" fill="#3F3F3F"/><path d="M1620 499l1 1m104-1l1 1m4-1l1 1m-1470 0l1 1"/><path d="M330 500l-24 39 13 4 6 7c6 5 18 11 26 10 5-1 8-5 10-9l14-23c2-4 4-9 1-13-4-5-17-10-24-11l-10 1-12-5z" fill="#0171BD"/><path d="M332 500l1 1m1110-1l1 1m0-1l1 1m0-1l1 1m10-1l1 1m0-1l1 1m0-1l1 1m54-1l1 1m0-1l1 1m6-1l1 1"/><path d="M1522 500l1 1-1-1zm204 0l1 1-1-1z" fill="#BCBCBE"/><path d="M1731 500l1 1m-1501 0l1 1m44-1l1 1m40-1l1 1"/><path d="M329 501l1 1-1-1zm5 0l1 1-1-1z" fill="#55A1D2"/><path d="M1447 501l1 1m0-1l1 1m0-1l1 1m11-1l1 1"/><path d="M1462 501l3 1-3-1zm48 0l1 1-1-1z" fill="#9B99BB"/><path d="M1511 501l1 1m7-1l1 1m0-1l1 1m98-1l1 1m107-1l1 1"/><path d="M1728 501l1 1-1-1zm4 0l1 1-1-1z" fill="#2D2D30"/><path d="M232 502l1 1-1-1zm28 0l1 1-1-1z" fill="#8DC1E2"/><path d="M275 502l1 1m40-1l1 1m11-1l1 1m7-1l1 1m1114-1l1 1m0-1l1 1m0-1l1 1m13-1l3 1"/><path d="M1470 502l3 1-3-1zm35 0l1 1-1-1z" fill="#BCBCBE"/><path d="M1506 502l1 1"/><path d="M1507 502l1 1-1-1zm10 0l1 1-1-1z" fill="#595959"/><path d="M1518 502l1 1m99-1l1 1m110-1l1 1m4-1l1 1"/><path d="M233 503l1 1-1-1zm26 0l1 1-1-1z" fill="#55A1D2"/><path d="M338 503l1 1m7-1l1 1m0-1l6 1m0-1l1 1m1101-1l1 1m0-1l1 1m0-1l1 1m0-1l1 1m16-1l3 1m0-1l3 1"/><path d="M1481 503l5 1-5-1zm14 0l4 1-4-1z" fill="#BCBCBE"/><path d="M1514 503l1 1m0-1l1 1m101-1l1 1m112-1l1 1m4-1l1 1m-1502 0l1 1m80-1l1 1"/><path d="M327 504l1 1-1-1zm13 0l1 1-1-1zm4 0l1 1-1-1z" fill="#8DC1E2"/><path d="M355 504l1 1m1106-1l1 1m47-1l1 1m0-1l1 1m0-1l1 1"/><path d="M1616 504l1 1-1-1zm115 0l1 1-1-1zm5 0l1 1-1-1z" fill="#9B99BB"/><path d="M235 505l1 1m22-1l1 1m14-1l1 1m68-1l1 1"/><path d="M343 505l1 1-1-1zm14 0l1 1-1-1z" fill="#55A1D2"/><path d="M358 505l1 1m1148-1l1 1m0-1l1 1m106-1l1 1m116-1l1 1m4-1l1 1"/><path d="M236 506l1 1-1-1zm21 0l1 1-1-1z" fill="#55A1D2"/><path d="M272 506l1 1-1-1zm42 0l1 1-1-1z" fill="#C7C6D6"/><path d="M326 506l1 1-1-1zm33 0l1 1-1-1z" fill="#55A1D2"/><path d="M360 506l1 1"/><path d="M1481 506l4 1-4-1zm14 0l4 1-4-1z" fill="#3F3F3F"/><path d="M1499 506l3 1m112-1l1 1m118-1l1 1m4-1l1 1m-1426 0l1 1"/><path d="M325 507l1 1-1-1zm37 0l1 1-1-1z" fill="#8DC1E2"/><path d="M1478 507l1 1"/><path d="M1482 507l1 1-1-1zm131 0l1 1-1-1z" fill="#9B99BB"/><path d="M1735 507l1 1m3-1l1 1m-1484 0l1 1m14-1l1 1m92-1l1 1m1114-1l1 1m3-1l1 1m128-1l1 1m123-1l1 1m3-1l1 1"/><path d="M239 509l1 1-1-1zm16 0l1 1-1-1z" fill="#55A1D2"/><path d="M270 509l1 1m41-1l1 1m11-1l1 1m41-1l1 1m1113-1l1 1m3-1l1 1m126-1l1 1m14-1l1 1m110-1l1 1m3-1l1 1m-1502 0l1 1m70-1l1 1m11-1l1 1m44-1l1 1m1112-1l1 1"/><path d="M1485 510l1 1-1-1zm125 0l1 1-1-1z" fill="#595959"/><path d="M1625 510l1 1m112-1l1 1m3-1l1 1m-1501 0l1 1m26-1l1 1m100-1l1 1"/><path d="M1482 511l1 1-1-1zm4 0l1 1-1-1zm123 0l1 1-1-1z" fill="#2D2D30"/><path d="M1624 511l1 1-1-1zm115 0l1 1-1-1z" fill="#7D7D82"/><path d="M1743 511l1 1m0-1l1 1m-1502 0l1 1m9-1l1 1m14-1l1 1m41-1l1 1m11-1l1 1m49-1l1 1m1110-1l1 1"/><path d="M1488 512l1 1-1-1zm119 0l1 1-1-1z" fill="#BCBCBE"/><path d="M1623 512l1 1-1-1zm117 0l1 1-1-1z" fill="#9B99BB"/><path d="M1745 512l1 1m-1502 0l1 1m129-1l1 1"/><path d="M1484 513l1 1-1-1zm5 0l1 1-1-1zm117 0l1 1-1-1z" fill="#7D7D82"/><path d="M1622 513l1 1-1-1zm119 0l1 1-1-1z" fill="#9B99BB"/><path d="M1746 513l1 1m-1480 0l1 1m41-1l1 1m1175-1l1 1"/><path d="M1490 514l1 1-1-1zm115 0l1 1-1-1z" fill="#3F3F3F"/><path d="M1742 514l1 1m4-1l1 1m-1501 0l1 1m3-1l1 1m14-1l1 1m41-1l1 1m11-1l1 1m1165-1l1 1m0-1l1 1m4-1l1 1m110-1l1 1m139-1l1 1m4-1l1 1m-1501 0l1 1m1-1l1 1m126-1l1 1m1110-1l1 1"/><path d="M1493 516l1 1-1-1zm109 0l1 1-1-1z" fill="#3F3F3F"/><path d="M1618 516l1 1m125-1l1 1m4-1l1 1m-1443 0l1 1m11-1l1 1m1169-1l1 1"/><path d="M1495 517l1 1-1-1zm105 0l1 1-1-1z" fill="#7D7D82"/><path d="M1617 517l1 1"/><path d="M1745 517l1 1-1-1zm5 0l1 1-1-1z" fill="#C7C6D6"/><path d="M264 518l1 1m41-1l1 1m11-1l1 1"/><path d="M368 518c-12 12-25 18-40 25 5 4 16 11 23 9 5-1 7-5 9-9 5-7 13-16 8-25z" fill="#FFF"/><path d="M1491 518l1 1"/><path d="M1497 518l1 1-1-1zm101 0l1 1-1-1z" fill="#BCBCBE"/><path d="M1746 518l1 1m4-1l1 1m-260 0l1 1m5-1l1 1m0-1l1 1m96-1l1 1m0-1l1 1m16-1l1 1m132-1l1 1"/><path d="M1752 519l1 1-1-1zm-1447 1l1 1-1-1z" fill="#9B99BB"/><path d="M317 520l1 1m1176-1l1 1m5-1l1 1m93-1l1 1m0-1l1 1m17-1l1 1m134-1l1 1m4-1l1 1m-1492 0l1 1m53-1l1 1m1179-1l1 1m5-1l1 1m0-1l1 1m88-1l1 1m0-1l1 1m17-1l1 1m137-1l1 1m4-1l1 1m-258 0l1 1"/><path d="M1498 522l1 1-1-1zm6 0l1 1-1-1z" fill="#3F3F3F"/><path d="M1505 522l1 1m84-1l1 1m0-1l1 1m18-1l1 1m139-1l1 1m4-1l1 1m-1453 0l1 1m11-1l1 1m61-1l1 1m1121-1l1 1m0-1l1 1m6-1l1 1m80-1l1 1"/><path d="M1751 523l1 1-1-1zm5 0l1 1-1-1z" fill="#C7C6D6"/><path d="M260 524l1 1m1240-1l1 1m0-1l1 1m6-1l1 1"/><path d="M1510 524l1 1-1-1zm75 0l1 1-1-1z" fill="#BCBCBE"/><path d="M1586 524l1 1m20-1l1 1"/><path d="M1752 524l1 1-1-1zm5 0l1 1-1-1zm-1455 1l1 1-1-1z" fill="#C7C6D6"/><path d="M314 525l1 1-1-1zm46 0l1 1-1-1z" fill="#55A1D2"/><path d="M376 525l1 1m1126-1l1 1m0-1l1 1m7-1l1 1m0-1l1 1m68-1l1 1m0-1l1 1"/><path d="M1606 525l1 1-1-1zm147 0l1 1-1-1zm5 0l1 1-1-1z" fill="#C7C6D6"/><path d="M301 526l1 1"/><path d="M313 526l1 1-1-1zm46 0l1 1-1-1z" fill="#8DC1E2"/><path d="M1506 526l1 1-1-1zm9 0l1 1-1-1z" fill="#7D7D82"/><path d="M1516 526l1 1-1-1zm63 0l1 1-1-1z" fill="#BCBCBE"/><path d="M1580 526l1 1m23-1l1 1"/><path d="M1754 526l1 1-1-1zm5 0l1 1-1-1z" fill="#C7C6D6"/><path d="M258 527l1 1m99-1l1 1m10-1l1 1m5-1l1 1m1132-1l1 1"/><path d="M1509 527l1 1-1-1zm9 0l1 1-1-1z" fill="#595959"/><path d="M1519 527l1 1m55-1l1 1m0-1l1 1m0-1l1 1"/><path d="M1603 527l1 1-1-1zm152 0l1 1-1-1zm5 0l1 1-1-1z" fill="#C7C6D6"/><path d="M300 528l1 1"/><path d="M312 528l1 1-1-1zm44 0l1 1-1-1zm18 0l1 1-1-1z" fill="#55A1D2"/><path d="M1511 528l1 1"/><path d="M1512 528l1 1-1-1zm10 0l1 1-1-1z" fill="#595959"/><path d="M1523 528l1 1m0-1l1 1m46-1l1 1m0-1l1 1m0-1l1 1m27-1l1 1"/><path d="M1756 528l1 1-1-1zm5 0l1 1-1-1z" fill="#C7C6D6"/><path d="M299 529l1 1m11-1l1 1m43-1l1 1m12-1l1 1m1145-1l1 1m0-1l1 1m12-1l1 1"/><path d="M1529 529l1 1-1-1zm37 0l1 1-1-1z" fill="#BCBCBE"/><path d="M1569 529l1 1m30-1l1 1m156-1l1 1m-1502 0l1 1m110-1l1 1m5-1l1 1m1143-1l1 1m0-1l1 1m0-1l1 1"/><path d="M1536 530l3 1-3-1zm21 0l3 1-3-1z" fill="#BCBCBE"/><path d="M1598 530l1 1m159-1l1 1m3-1l1 1m-1465 0l1 1"/><path d="M310 531l1 1-1-1zm42 0l1 1-1-1z" fill="#55A1D2"/><path d="M1521 531l1 1m0-1l1 1m0-1l1 1m19-1l10 1m44-1l1 1m161-1l1 1m3-1l1 1m-1509 0l1 1m95-1l1 1m14-1l1 1m5-1l1 1m1153-1l1 1m0-1l1 1m67-1l1 1m164-1l1 1m3-1l1 1m-1511 0l1 1m42-1l1 1m51-1l1 1m21-1l1 1m1160-1l1 1m228-1l1 1m3-1l1 1m-1470 0l1 1m11-1l1 1"/><path d="M347 534l1 1-1-1zm18 0l1 1-1-1z" fill="#55A1D2"/><path d="M1532 534l1 1m2 4l8-4m0-1l1 1m48-1l1 1"/><path d="M1762 534l1 1-1-1zm4 0l1 1-1-1z" fill="#595959"/><path d="M253 535l1 1m91-1l1 1m18-1l1 1m5-1l1 1m1164-1l1 1m6-1l1 1m47-1l1 1m172-1l1 1m3-1l1 1m-1516 0l1 1m42-1l1 1"/><path d="M307 536l1 1-1-1zm36 0l1 1-1-1z" fill="#55A1D2"/><path d="M1531 536l1 1m8-1l1 1m48-1l1 1m174-1l1 1m3-1l1 1m-1475 0l1 1m11-1l1 1m34-1l1 1m21-1l1 1m5-1l1 1"/><path d="M1531 537l1 1-1-1zm3 0l1 1-1-1z" fill="#595959"/><path d="M1538 537l1 1m48-1l1 1m177-1l1 1m3-1l1 1m-1519 0l1 1m42-1l1 1m44-1l1 1m28-1l1 1m1167-1l1 1"/><path d="M1586 538l1 1-1-1zm184 0l1 1-1-1z" fill="#C7C6D6"/><path d="M293 539l1 1"/><path d="M306 539l1 1-1-1zm30 0l1 1-1-1z" fill="#55A1D2"/><path d="M337 539l1 1m24-1l1 1m1167-1l1 1m4-1l1 1m48-1l1 1m181-1l1 1m3-1l1 1m-1521 0l1 1m58-1l1 1m23-1l1 1m0-1l1 1m26-1l1 1m5-1l1 1m1214-1l1 1m184-1l1 1m3-1l1 1m-1523 0l1 1m42-1l1 1m19-1l1 1"/><path d="M313 541l1 1-1-1zm17 0l1 1-1-1z" fill="#55A1D2"/><path d="M331 541l1 1"/><path d="M1581 541l1 1-1-1zm187 0l1 1-1-1z" fill="#9B99BB"/><path d="M1772 541l1 1m-1458 0l1 1m11-1l-1 2"/><path d="M328 542l1 1-1-1zm32 0l1 1-1-1z" fill="#8DC1E2"/><path d="M366 542l1 1"/><path d="M1529 542l1 1-1-1zm50 0l1 1-1-1z" fill="#55518C"/><path d="M1769 542l1 1m3-1l1 1m-1526 0l1 1m42-1l1 1m35-1l1 1m37-1l1 1m1161-1l1 1m50-1l1 1m191-1l1 1m3-1l1 1m-1528 0l1 1m80-1l1 1m0-1l1 1m29-1l1 1m1166-1l1 5"/><path d="M1576 544l1 1-1-1zm-1286 1l1 1-1-1z" fill="#9391A5"/><path d="M321 545l1 1-1-1zm9 0l1 1-1-1z" fill="#55A1D2"/><path d="M331 545l1 1-1-1zm27 0l1 1-1-1z" fill="#C7DCEB"/><path d="M364 545l1 1m1159-1l1 1m49-1l1 1m196-1l1 1m3-1l1 1m-1530 0l1 1m74-1l1 1m10-1l1 1m0-1l1 1"/><path d="M1523 546l1 1-1-1zm50 0l1 1-1-1z" fill="#9B99BB"/><path d="M1772 546l1 1m3-1l1 1m-1488 0l1 1"/><path d="M322 547l1 1-1-1zm12 0l1 1-1-1z" fill="#55A1D2"/><path d="M335 547l1 1-1-1zm22 0l1 1-1-1z" fill="#8DC1E2"/><path d="M363 547l1 1"/><path d="M1522 547l1 1-1-1zm49 0l1 1-1-1zm202 0l1 1-1-1z" fill="#7D7D82"/><path d="M1777 547l1 1m-1533 0l1 1m91-1l1 1m24-1l1 1m1207-1l1 1m203-1l1 1"/><path d="M1778 548l1 1-1-1zm-1534 1l1 1-1-1z" fill="#C7C6D6"/><path d="M288 549l1 1m50-1l1 1m16-1l1 1m1211-1l1 1m-1325 0l1 1m80-1l1 1m15-1l1 1m13-1l1 1m5-1l1 1m1204-1l1 1m208-1l1 1m3-1l1 1m-1537 0l1 1m43-1l1 1m39-1l1 1m15-1l1 1m9-1l1 1m1163-1l1 1m47-1l1 1m210-1l1 1m3-1l1 1m-1452 0l1 1m15-1l1 1m14-1l1 1m1155-1l1 1m46-1l1 1m213-1l1 1m3-1l1 1m-1540 0l1 1m43-1l1 1m44-1l1 1m27-1l1 1m1155-1l1 1m45-1l1 1m219-1l1 1m-1449 0l1 1m1180-1l1 1m45-1l1 1m217-1l1 1"/><path d="M1782 554l1 1-1-1zm-1541 1l1 1-1-1zm44 0l1 1-1-1z" fill="#7D7D82"/><path d="M335 555l1 1m0-1l1 1m21-1l1 1m1154-1l1 1m44-1l1 1m220-1l1 1m3-1l1 1m-1544 0l1 1m96-1l1 1m0-1l1 1m1173-1l1 1m43-1l1 1m223-1l1 1"/><path d="M240 557l1 1-1-1zm44 0l1 1-1-1z" fill="#55518C"/><path d="M340 557l1 1m1170-1l1 1"/><path d="M1555 557l1 1-1-1zm225 0l1 1-1-1z" fill="#C7C6D6"/><path d="M1784 557l1 1m-1546 0l1 1m44-1l1 1"/><path d="M342 558l1 1-1-1zm13 0l1 1-1-1z" fill="#55A1D2"/><path d="M1510 558l1 1m42-1l1 1m227-1l1 1m3-1l1 1m-1503 0l1 1"/><path d="M344 559l1 1-1-1zm10 0l1 1-1-1z" fill="#8DC1E2"/><path d="M1509 559l1 1m41-1l1 1m230-1l1 1"/><path d="M238 560l1 1-1-1zm45 0l1 1-1-1z" fill="#9B99BB"/><path d="M347 560l5 1"/><path d="M1508 560l1 1-1-1zm42 0l1 1-1-1zm232 0l1 1-1-1z" fill="#C7C6D6"/><path d="M1786 560l1 1m-239 0l1 1m234-1l1 1m3-1l1 1m-1551 0l1 1m44-1l1 1m1263-1l1 1"/><path d="M1784 562l1 1-1-1zm3 0l1 1-1-1z" fill="#2D2D30"/><path d="M1545 563l1 1m238-1l1 1"/><path d="M1788 563l1 1-1-1zm-1552 1l1 1-1-1z" fill="#9391A5"/><path d="M281 564l1 1m1223-1l1 1m37-1l1 1m241-1l1 1m-282 0l1 1m36-1l1 1m247-1l1 1m-1555 0l1 1m44-1l1 1m1222-1l1 1m35-1l1 1m0-1l1 1m245-1l1 1m3-1l1 1"/><path d="M280 567l1 1-1-1zm1258 0l1 1-1-1z" fill="#9B99BB"/><path d="M1787 567l1 1-1-1zm3 0l1 1-1-1z" fill="#3F3F3F"/><path d="M234 568l1 1-1-1zm1302 0l1 1-1-1z" fill="#7D7D82"/><path d="M1787 568l1 1m3-1l1 1m-1513 0l1 1m1221-1l1 1m32-1l1 1m253-1l1 1m-1556 0l1 1"/><path d="M1500 570l1 1-1-1zm33 0l1 1-1-1z" fill="#BCBCBE"/><path d="M1792 570l1 1m-1515 0l1 1"/><path d="M1789 571l1 1-1-1zm-1557 1l1 1-1-1z" fill="#7D7D82"/><path d="M278 572l1 1m1220-1l1 1m293-1l1 1m-296 0l1 1m32-1l1 1m258-1l1 1m-1560 0l1 1m45-1l1 1m1248-1l1 1m1-1l1 1m265-1l1 1"/><path d="M1497 575l1 1-1-1zm27 0l1 1-1-1z" fill="#7D7D82"/><path d="M1791 575l1 1m-1562 0l1 1"/><path d="M1496 576l1 1-1-1zm27 0l1 1-1-1z" fill="#C7C6D6"/><path d="M1529 576l1 1m2-1l1 1m262-1l1 1"/><path d="M276 577l1 1-1-1zm1245 0l1 1-1-1z" fill="#9B99BB"/><path d="M1529 577l1 1m2-1l1 1m259-1l1 1"/><path d="M229 578l1 1-1-1zm1266 0l1 1-1-1z" fill="#9B99BB"/><path d="M1519 578l1 1m9-1l1 1m263-1l1 1m2-1l1 1"/><path d="M275 579l1 1-1-1zm1242 0l1 1-1-1z" fill="#55518C"/><path d="M1533 579l1 1m259-1l1 1m-1566 0l1 1m46-1l1 1m1218-1l1 1m21-1l1 1m13-1l1 1m2-1l1 1m263-1l1 1"/><path d="M228 581l1 1-1-1zm1287 0l1 1-1-1z" fill="#55518C"/><path d="M1530 581l1 1m2-1l1 1m260-1l1 1m-1521 0l1 1m1218-1l1 1"/><path d="M1798 582l1 1-1-1zm-1571 1l1 1-1-1z" fill="#7D7D82"/><path d="M274 583l1 1m1239-1l1 1"/><path d="M1534 583l1 1-1-1zm261 0l1 1-1-1zm-303 1l1 1-1-1z" fill="#9B99BB"/><path d="M1513 584l1 1m17-1l1 1m2-1l1 1"/><path d="M1799 584l1 1-1-1zm-1573 1l1 1-1-1z" fill="#9391A5"/><path d="M273 585l1 1m1257-1l1 1m264-1l1 1m-1524 0l1 1m1217-1l1 1m20-1l1 1m22-1l1 1"/><path d="M1800 586l1 1-1-1zm-1575 1l1 1-1-1z" fill="#9B99BB"/><path d="M1491 587l1 1"/><path d="M1532 587l1 1-1-1zm3 0l1 1-1-1zm262 0l1 1-1-1z" fill="#595959"/><path d="M1800 587l1 1"/><path d="M225 588l1 1-1-1zm47 0l1 1-1-1z" fill="#55518C"/><path d="M1511 588l1 1m20-1l1 1m268-1l1 1"/><path d="M272 589l1 1-1-1zm1218 0l1 1-1-1z" fill="#9B99BB"/><path d="M1536 589l1 1"/><path d="M1579 589v72c2-5 1-12 1-17v-36c0-6 1-14-1-19zm3 0v115c3-8 1-21 1-30v-59c0-8 2-19-1-26z" fill="#7D7D82"/><path d="M1798 589l1 1m2-1l1 1m-1578 0l1 1m1285-1l1 1"/><path d="M1533 590l1 1-1-1zm3 0l1 1-1-1z" fill="#595959"/><path d="M1798 590l1 1-1-1zm-265 1l1 1-1-1z" fill="#BCBCBE"/><path d="M1802 591l1 1"/><path d="M223 592l1 1-1-1zm48 0l1 1-1-1z" fill="#9B99BB"/><path d="M1489 592l1 1-1-1zm20 0l1 1-1-1z" fill="#7D7D82"/><path d="M1537 592l1 1"/><path d="M1799 592l1 1-1-1zm-265 1l1 1-1-1z" fill="#7D7D82"/><path d="M1537 593l1 1m265-1l1 1m-296 0l1 1m25-1l1 1"/><path d="M1800 594l1 1-1-1zm3 0l1 1-1-1z" fill="#595959"/><path d="M222 595l1 1-1-1zm48 0l1 1-1-1zm1218 0l1 1-1-1z" fill="#7D7D82"/><path d="M1508 595l1 1-1-1zm30 0l1 1-1-1z" fill="#9B99BB"/><path d="M1800 595l1 1-1-1zm-1530 1l1 1-1-1z" fill="#BCBCBE"/><path d="M1535 596l1 1m2-1l1 1m265-1l1 1m-1584 0l1 1"/><path d="M1507 597l1 1-1-1zm294 0l1 1-1-1z" fill="#7D7D82"/><path d="M1804 597l1 1m-1584 0l1 1m1265-1l1 1m48-1l1 1m2-1l1 1m265-1l1 1m-1537 0l1 1m1266-1l1 1m2-1l1 1m262-1l1 1m2-1l1 1m-1586 0l1 1m48-1l1 1m1236-1l1 1m33-1l1 1m261-1l1 1m-317 0l1 1m50-1l1 1m2-1l1 1m265-1l1 1m-1539 0l1 1m1268-1l1 1"/><path d="M1803 602l1 1-1-1zm3 0l1 1-1-1z" fill="#595959"/><path d="M219 603l1 1m1285-1l1 1m35-1l1 1m261-1l1 1m-319 0l1 1"/><path d="M1538 604l1 1-1-1zm3 0l1 1-1-1z" fill="#595959"/><path d="M1807 604l1 1m-323 0l1 1m52-1l1 1m265-1l1 1m2-1l1 1m-1590 0l1 1m1285-1l1 1m37-1l1 1m-1276 0l1 1m1216-1l1 1m54-1l1 1"/><path d="M1542 607l1 1-1-1zm263 0l1 1-1-1z" fill="#2D2D30"/><path d="M1808 607l1 1m-325 0l1 1m320-1l1 1m2-1l1 1m-1592 0l1 1m1285-1l1 1m36-1l1 1m2-1l1 1m-41 0l1 1m36-1l1 1m265-1l1 1m2-1l1 1m-327 0l1 1m60-1l1 1m261-1l1 1m2-1l1 1m-1594 0l1 1"/><path d="M1483 612l1 1-1-1zm19 0l1 1-1-1z" fill="#55518C"/><path d="M1541 612l1 1-1-1zm3 0l1 1-1-1z" fill="#595959"/><path d="M216 613l1 1m1285-1l1 1m38-1l1 1m265-1l1 1m2-1l1 1m-329 0l1 1m62-1l1 1m261-1l1 1m2-1l1 1m-1596 0l1 1m1266-1l1 1m59-1l1 1m2-1l1 1m261-1l1 1"/><path d="M215 616l1 1-1-1zm1286 0l1 1-1-1z" fill="#7D7D82"/><path d="M1546 616l1 1m264-1l1 1m-311 0l1 1"/><path d="M1543 617l1 1-1-1zm3 0l1 1-1-1zm262 0l1 1-1-1z" fill="#595959"/><path d="M1811 617l1 1m-331 0l1 1"/><path d="M1543 618l1 1-1-1zm4 0l1 1-1-1zm261 0l1 1-1-1z" fill="#BCBCBE"/><path d="M214 619l1 1"/><path d="M1481 619l1 1-1-1zm19 0l1 1-1-1z" fill="#55518C"/><path d="M1544 619l1 1-1-1zm3 0l1 1-1-1z" fill="#3F3F3F"/><path d="M214 620l1 1m1285-1l1 1m43-1l1 1m3-1l1 1m260-1l1 1m2-1l1 1m-333 0l1 1"/><path d="M1545 621l1 1-1-1zm264 0l1 1-1-1z" fill="#7D7D82"/><path d="M1812 621l1 1m-1600 0l1 1m1266-1l1 1m68-1l1 1m259-1l1 1m-1597 0l1 1"/><path d="M1499 623l1 1-1-1zm47 0l1 1-1-1z" fill="#7D7D82"/><path d="M1550 623l1 1m-1338 0l1 1m1285-1l1 1"/><path d="M1546 624v74c2-6 1-14 1-20v-36c0-6 1-13-1-18z" fill="#BCBCBE"/><path d="M1810 624l1 1m2-1l1 1m-335 0l1 1m71-1l1 1"/><path d="M1810 625l1 1-1-1zm3 0l1 1-1-1z" fill="#7D7D82"/><path d="M212 626l1 1"/><path d="M1552 626l1 1-1-1zm258 0l1 1-1-1z" fill="#BCBCBE"/><path d="M1813 626l1 1m-316 0l1 1m-21 0l1 1"/><path d="M1549 628v72c2-5 1-12 1-17v-36c0-6 1-14-1-19zm4 0l1 1-1-1z" fill="#3F3F3F"/><path d="M1814 628l1 1m-337 0l1 1m71-1l1 1m3-1l1 1m256-1l1 1m2-1l1 1m-318 0l1 1"/><path d="M1550 630v71c-31 4-41 44-23 67 10 12 22 12 36 12-4-6-9-10-12-17-7-16-4-36 7-49l12-10c3-1 7-2 8-4 2-4 1-12 1-16 0-6 1-13-1-18-1-5-6-10-10-14-6-7-11-16-18-22z" fill="#FFF"/><path d="M1551 630l1 1m3-1l1 1m255-1l1 1m2-1l1 1m-1604 0l1 1m1285-1l1 1m54-1l1 1m258-1l1 1m2-1l1 1m-263 0l1 1m3-1l1 1m-61 0l1 1m56-1l1 1m3-1l1 1m-62 0l1 1m57-1l1 1m3-1l1 1m253-1l1 1m-258 0l1 1m259-1l1 1m-261 0l1 1m3-1l1 1m-4 0l1 1m3-1l1 1m-85 0l1 1m80-1l1 1m3-1l1 1m-67 0l1 1m62-1l1 1m3 0l1 1m-69 0l1 1m64-1l1 1m3-1l1 1m-4 0l1 1m3-1l1 1m-4 0l1 1m3-1l1 1m-92 1l1 1m87-1l1 1m3-1l1 1m-4 0l1 1m3-1l1 1m-4 0l1 1m3-1l1 1m-4 0l1 1"/><path d="M1569 648l1 1-1-1zm-96 1l1 1-1-1z" fill="#C7C6D6"/><path d="M1492 650l1 1m73-1l1 1m3-1l1 1m-1309 0v12m1230-12l1 1m74-1l1 1m3-1l1 1"/><path d="M1568 652l1 1-1-1zm4 0l1 1-1-1z" fill="#7D7D82"/><path d="M1569 653l1 1m3-1l1 1m-102 0l1 1m97-1l1 1m3-1l1 1m-4 1l1 1m3-1l1 1m131-1l1 1m2-1l11 1m-149 0l1 1m3-1l1 1m126-1l1 1m0-1l1 1m22-1l1 1m0-1l1 1m0-1l1 1m-259 0l1 1"/><path d="M1573 658l1 1-1-1zm4 0l1 1-1-1z" fill="#7D7D82"/><path d="M1700 658l1 1m0-1l1 1m30-1l1 1m0-1l1 1m0-1l1 1"/><path d="M1471 659l1 1-1-1zm19 0l1 1-1-1z" fill="#7D7D82"/><path d="M1574 659l1 1-1-1zm124 0l1 1-1-1z" fill="#595959"/><path d="M1711 659l10 1m15-1l1 1m0-1l1 1m-248 0l1 1m84-1l1 1m120-1l1 1m6-1l1 1m0-1l1 1m0-1l1 1m20-1l1 1m0-1l1 1m0-1l1 1m0-1l1 1m9-1l1 1m0-1l1 1m-47 0l1 1m6-1l1 1m29-1l1 1m0-1l1 1"/><path d="M1733 661l1 1-1-1zm9 0l1 1-1-1z" fill="#595959"/><path d="M1743 661l1 1-1-1zm-273 1l1 1-1-1z" fill="#9B99BB"/><path d="M1576 662l1 1m116-1l1 1m5-1l1 1m35-1l1 1m0-1l1 1m8-1l1 1m0-1l1 1m-277 0l1 1m18-1l1 1m87-1l1 1m113-1l1 1m0-1l1 1m4-1l1 1m40-1l1 1m0-1l1 1m7-1l1 1m0-1l1 1m-260 0l1 1m88-1l1 1m111-1l1 1m4-1l1 1m45-1l1 1"/><path d="M1742 664l1 1-1-1zm8 0l1 1-1-1z" fill="#7D7D82"/><path d="M1469 665l1 1m109-1l1 1m109-1l1 1m4-1l1 1m49-1l1 1"/><path d="M1745 665l1 1-1-1zm7 0l1 1-1-1z" fill="#595959"/><path d="M1469 666l1 1"/><path d="M1579 666v35c3-7 1-17 1-24l-1-11z" fill="#7D7D82"/><path d="M1688 666l1 1m4-1l1 1m53-1l1 1m6-1l1 1m-267 0l1 1m198-1l1 1m4-1l1 1m56-1l1 1m6-1l1 1m-269 0l1 1m197-1l1 1m4-1l1 1m59-1l1 1m6-1l1 1m-291 0l1 1"/><path d="M1685 669l1 1-1-1zm5 0l1 1-1-1z" fill="#C7C6D6"/><path d="M1753 669l1 1-1-1zm7 0l1 1-1-1z" fill="#9B99BB"/><path d="M1468 670l1 1m216-1l1 1m3-1l1 1m65-1l1 1m5-1l1 1m0-1l1 1m-276 0l1 1m196-1l1 1m3-1l1 1"/><path d="M1757 671l1 1-1-1zm6 0l1 1-1-1z" fill="#7D7D82"/><path d="M1467 672l1 1m19-1l1 1m195-1l1 1m3-1l1 1m71-1l1 1m5-1l1 1m-299 0l1 1m218-1l1 1m73-1l1 1m0-1l1 1m4-1l1 1m-281 0l1 1m195-1l1 1m79-1l1 1m5-1l1 1m-283 0l1 1"/><path d="M1681 675l1 1-1-1zm4 0l1 1-1-1z" fill="#BCBCBE"/><path d="M1764 675l1 1"/><path d="M1769 675l1 1-1-1zm-303 1l1 1-1-1z" fill="#7D7D82"/><path d="M1684 676l1 1m80-1l1 1m4-1l1 1m-91 0l1 1m85-1l1 1m0-1l1 1m-283 0l1 1"/><path d="M1683 678l1 1-1-1zm85 0l1 1-1-1z" fill="#595959"/><path d="M1465 679l1 1"/><path d="M1679 679l1 1-1-1zm90 0l1 1-1-1z" fill="#9B99BB"/><path d="M1771 679l1 1m-93 0l1 1m2-1l1 1m-219 0l1 1m19-1l1 1m193-1l1 1m-215 0l1 1"/><path d="M1678 682l1 1-1-1zm3 0l1 1-1-1z" fill="#595959"/><path d="M1681 683l1 1m-219 0l1 1m19-1l1 1m193-1l1 1m-215 0l1 1m213-1l1 1m2-1l1 1m132-1l1 1m-134 0l1 1m-219 0l1 1m19-1l1 1m193-1l1 1m-1 0l1 1m2-1l1 1m-219 0l1 1m19-1l1 1m194-1l1 1m2-1l1 1m-219 0l1 1m19-1l1 1m330-1l1 1m-138 0l1 1m2-1l1 1"/><path d="M1460 692l1 1-1-1zm20 0l1 1-1-1zm195 0l1 1-1-1zm3 0l1 1-1-1z" fill="#7D7D82"/><path d="M265 693l1 1-1-1zm1215 0l1 1-1-1z" fill="#C7C6D6"/><path d="M1675 693l1 1m2-1l1 1m-220 0l1 1"/><path d="M1678 694l1 1-1-1zm133 0l1 1-1-1z" fill="#C7C6D6"/><path d="M1479 695l1 1-1-1zm332 0l1 1-1-1z" fill="#9B99BB"/><path d="M1814 695l1 1m-357 0l1 1"/><path d="M1811 696l1 1-1-1zm3 0l1 1-1-1zm-336 1l1 1-1-1z" fill="#7D7D82"/><path d="M1677 697l1 1-1-1zm134 0l1 1-1-1z" fill="#3F3F3F"/><path d="M1814 697l1 1m50-1l1 1"/><path d="M266 698l1 1-1-1zm1191 0l1 1-1-1zm21 0l1 1-1-1z" fill="#C7C6D6"/><path d="M1543 698l1 1m0-1l1 1m317-1l1 1m-1597 0l1 1m1190-1l1 1m82-1l1 1m0-1l1 1m103-1v22m3-22v21m162-21l1 1m49-1l1 1m-405 0l1 1m20-1l1 1m60-1l1 1m10-1l1 1m260-1l1 1m2-1l1 1m44-1l1 1m4-1l1 1m-408 0l1 1m79-1l1 1m7-1l1 1m0-1l1 1m0-1l1 1m32-1l1 1m230-1l1 1m2-1l1 1m42-1l1 1"/><path d="M267 702l1 1-1-1zm1188 0l1 1-1-1z" fill="#C7C6D6"/><path d="M1476 702l1 1"/><path d="M1534 702l1 1-1-1zm7 0l1 1-1-1z" fill="#7D7D82"/><path d="M1574 702l1 1m0-1l1 1m185-1l1 1m0-1l1 1m50-1l1 1m39-1l1 1m0-1l1 1m7-1l1 1m-1596 0l1 1m1187-1l1 1m76-1l1 1m5-1l1 1"/><path d="M1539 703l1 1-1-1zm32 0l1 1-1-1z" fill="#BCBCBE"/><path d="M1572 703l1 1m189-1l1 1m86-1l1 1m0-1l1 1m0-1l1 1m9-1l1 1m-1595 0l1 1m1186-1l1 1"/><path d="M1475 704l1 1-1-1zm56 0l1 1-1-1z" fill="#7D7D82"/><path d="M1537 704l1 1m31-1l1 1m8-1l1 1m230-1l1 1m2-1l1 1m33-1l1 1m0-1l1 1m8-1l1 1m-327 0l1 1m4-1l1 1m31-1l1 1m7-1l1 1m0-1l1 1m183-1l1 1m2-1l1 1m45-1l1 1m2-1l1 1m28-1l1 1m0-1l1 1m0-1l1 1m9-1l1 1m0-1l1 1m0-1l1 1m0-1l1 1m3-1l1 1"/><path d="M268 706l1 1-1-1zm1185 0l1 1-1-1z" fill="#9B99BB"/><path d="M1474 706l1 1"/><path d="M1529 706l1 1-1-1zm4 0l1 1-1-1z" fill="#2D2D30"/><path d="M1534 706l1 1"/><path d="M1566 706l1 1-1-1zm6 0l1 1-1-1z" fill="#595959"/><path d="M1573 706l1 1m186-1l1 1m51-1l1 1m24-1l1 1m12-1l1 1m0-1l1 1"/><path d="M1794 747c8-2 16-6 23-10 15-7 30-16 38-31l-31 5c-3 1-9 0-12 2s-4 8-5 11l-13 23z" fill="#FFF"/><path d="M1855 706l1 1"/><path d="M1859 706l1 1-1-1zm-1591 1l1 1-1-1z" fill="#7D7D82"/><path d="M1527 707l1 1m4-1l1 1m31-1l1 1m5-1l1 1m193-1l1 1m43-1l1 1m20-1l3 1m14-1l1 1m0-1l1 1m0-1l1 1m5-1l1 1m3-1l1 1m-407 0l1 1m20-1l1 1m57-1l1 1m31-1l1 1m4-1l1 1m192-1l1 1m2-1l1 1m43-1l1 1m3-1l7 1m0-1l4 1m19-1l1 1m0-1l1 1"/><path d="M1844 708l1 1-1-1zm-1575 1l1 1-1-1z" fill="#BCBCBE"/><path d="M1473 709l1 1m52-1l1 1m3-1l1 1m31-1l1 1m4-1l1 1m240-1l1 1m27-1l1 1m2-1l1 1m13-1l1 1m3-1l1 1"/><path d="M269 710l1 1-1-1zm1182 0l1 1-1-1zm21 0l1 1-1-1z" fill="#55518C"/><path d="M1525 710l1 1m3-1l1 1"/><path d="M1561 710l1 1-1-1zm4 0l1 1-1-1z" fill="#2D2D30"/><path d="M1566 710l1 1m195-1l1 1m2-1l1 1m61-1l3 1m22-1l1 1m3-1l1 1m-407 0l1 1m73-1l1 1m3-1l1 1m31-1l1 1m3-1l1 1m197-1l1 1m44-1l1 1m3-1l8 1m0-1l5 1m27-1l1 1m3-1l1 1m-1586 0l1 1m1200-1l1 1m51-1l1 1m3-1l1 1m31-1l1 1m3-1l1 1m202-1l1 1"/><path d="M1807 712l1 1-1-1zm3 0l1 1-1-1z" fill="#595959"/><path d="M1850 712l1 1m3-1l1 1m-406 0l1 1m76-1l1 1"/><path d="M1558 713l1 1-1-1zm4 0l1 1-1-1zm201 0l1 1-1-1zm3 0l1 1-1-1z" fill="#595959"/><path d="M1810 713l1 1"/><path d="M1849 713l1 1-1-1zm-1578 1l1 1-1-1z" fill="#C7C6D6"/><path d="M1470 714l1 1m51-1l1 1m34-1l1 1m3-1l1 1m201-1l1 1m42-1l1 1m46-1l1 1m-1583 0l1 1m1249-1l1 1"/><path d="M1525 715l1 1-1-1zm31 0l1 1-1-1z" fill="#BCBCBE"/><path d="M1560 715l1 1m206-1l1 1"/><path d="M1806 715l1 1-1-1zm3 0l1 1-1-1z" fill="#595959"/><path d="M1848 715l1 1m3-1l1 1"/><path d="M1447 716l1 1-1-1zm22 0l1 1-1-1z" fill="#9391A5"/><path d="M1524 716l1 1m34-1l1 1m204-1l1 1m2-1l1 1m41-1l1 1m37-1l1 1m3-1l1 1"/><path d="M272 717l1 1-1-1zm1248 0l1 1-1-1z" fill="#7D7D82"/><path d="M1555 717l1 1m212-1l1 1m36-1l1 1m40-1l1 1m3-1l1 1m-383 0l1 1m54-1l1 1m30-1l1 1m3-1l1 1m206-1l1 1m2-1l1 1"/><path d="M1805 718l1 1-1-1zm3 0l1 1-1-1z" fill="#595959"/><path d="M1845 718l1 1m3-1l1 1m-1577 0l1 1m1171-1l1 1m21-1l1 1"/><path d="M1519 719l1 1-1-1zm38 0l1 1-1-1z" fill="#595959"/><path d="M1679 719l1 1m85-1l1 1m42-1l1 1m35-1l1 1m3-1l1 1m-405 0l1 1m77-1l1 1"/><path d="M1553 720l1 1-1-1zm95 0v12c2-4 2-8 0-12z" fill="#7D7D82"/><path d="M1680 720l1 1m88-1l1 1m34-1l1 1m38-1l1 1m3-1l1 1"/><path d="M274 721l1 1-1-1zm1192 0l1 1-1-1zm52 0l1 1-1-1z" fill="#7D7D82"/><path d="M1556 721l1 1m88-1v18m35-18l1 1"/><path d="M1766 721l1 1-1-1zm3 0l1 1-1-1z" fill="#595959"/><path d="M1804 721l1 1m2-1l1 1m34-1l1 1m3-1l1 1m-404 0l1 1m77-1l1 1m30-1l1 1m121-1l1 1m4-1l1 1m86-1l1 1"/><path d="M1807 722l1 1-1-1zm33 0l1 1-1-1z" fill="#C7C6D6"/><path d="M1841 722l1 1m3-1l1 1m-1571 0l1 1m1166-1l1 1"/><path d="M1465 723l1 1-1-1zm52 0l1 1-1-1z" fill="#BCBCBE"/><path d="M1555 723l1 1"/><path d="M1673 723l1 1-1-1zm5 0l1 1-1-1z" fill="#C7C6D6"/><path d="M1770 723l1 1m32-1l1 1m2-1l1 1m32-1l1 1m4-1l1 1m-1569 0l1 1m1164-1l1 1m22-1l1 1"/><path d="M1517 724l1 1-1-1zm3 0l1 1-1-1z" fill="#595959"/><path d="M1551 724l1 1"/><path d="M1672 724l1 1-1-1zm5 0l1 1-1-1z" fill="#C7C6D6"/><path d="M1767 724l1 1-1-1zm3 0l1 1-1-1z" fill="#595959"/><path d="M1806 724l1 1-1-1zm32 0l1 1-1-1zm5 0l1 1-1-1z" fill="#9B99BB"/><path d="M1520 725l1 1m33-1l1 1m117-1l1 1m3-1l1 1m90-1l1 1m34-1l1 1m34-1l1 1m4-1l1 1"/><path d="M210 726l1 1-1-1zm67 0l1 1-1-1z" fill="#7D7D82"/><path d="M1463 726l1 1m52-1l1 1m33-1l1 1m120-1l1 1"/><path d="M1675 726l1 1-1-1zm96 0l1 1-1-1z" fill="#BCBCBE"/><path d="M1802 726l1 1m2-1l1 1m30-1l1 1m4-1l1 1m-1632 0l1 1m67-1l1 1m1160-1l1 1m22-1l1 1m53-1l1 1"/><path d="M1519 727l1 1-1-1zm31 0l1 1-1-1z" fill="#595959"/><path d="M1553 727l1 1m116-1l1 1m3-1l1 1"/><path d="M1768 727l1 1-1-1zm3 0l1 1-1-1z" fill="#595959"/><path d="M1801 727l1 1-1-1zm33 0l1 1-1-1z" fill="#BCBCBE"/><path d="M1839 727l1 1m-402 0l1 1m77-1l1 1m2-1l1 1m33-1l1 1m119-1l1 1m94-1l1 1m32-1l1 1m2-1l1 1"/><path d="M1833 728l1 1-1-1zm5 0l1 1-1-1z" fill="#7D7D82"/><path d="M279 729l1 1"/><path d="M1437 729l1 1-1-1zm24 0l1 1-1-1zm88 0l1 1-1-1z" fill="#9B99BB"/><path d="M1669 729l1 1"/><path d="M1772 729l1 1-1-1zm32 0l1 1-1-1zm27 0l1 1-1-1zm6 0l1 1-1-1z" fill="#BCBCBE"/><path d="M211 730l1 1m68-1l1 1m1179-1l1 1m54-1l1 1m33-1l1 1m2-1l1 1m119-1l1 1m96-1l1 1m2-1l1 1m27-1l1 1m2-1l1 1m26-1l1 1m4-1l1 1m-1625 0l1 1m1340-1l1 1m115-1l1 1m2-1l1 1"/><path d="M1769 731l1 1-1-1zm34 0l1 1-1-1z" fill="#9B99BB"/><path d="M1828 731l1 1m5-1l1 1"/><path d="M1459 732l1 1-1-1zm89 0l1 1-1-1z" fill="#C7C6D6"/><path d="M1648 732l1 1m22-1l1 1m101-1l1 1m25-1l1 1m26-1l1 1m5-1l1 1m-1621 0l1 1m1245-1l1 1m89-1l1 1m2-1l1 1"/><path d="M1649 733l1 1-1-1zm18 0l1 1-1-1z" fill="#595959"/><path d="M1670 733l1 1m99-1l1 1m2-1l1 1"/><path d="M1802 733l1 1-1-1zm22 0l1 1-1-1z" fill="#9B99BB"/><path d="M1831 733l1 1-1-1zm-1619 1l1 1-1-1z" fill="#BCBCBE"/><path d="M283 734l1 1-1-1zm1174 0l1 1-1-1z" fill="#55518C"/><path d="M1551 734l1 1m98-1l1 1m19-1l1 1m99-1l1 1m2-1l1 1m24-1l1 1m23-1l1 1m0-1l1 1"/><path d="M1829 734l1 1-1-1zm-1545 1l1 1-1-1z" fill="#7D7D82"/><path d="M1651 735l1 1m14-1l1 1"/><path d="M1797 735l1 1-1-1zm4 0l1 1-1-1zm19 0l1 1-1-1z" fill="#BCBCBE"/><path d="M1821 735l1 1"/><path d="M1827 735l1 1-1-1zm-1614 1l1 1-1-1zm72 0l1 1-1-1z" fill="#7D7D82"/><path d="M1019 736c4 2 8 1 12 1-4-2-8-1-12-1zm437 0l1 1-1-1z" fill="#C7C6D6"/><path d="M1648 736l1 1m4-1l1 1m12-1l1 1m2-1l1 1m104-1l1 1m22-1l1 1m2-1l1 1m17-1l1 1m0-1l1 1m5-1l1 1m-1540 0l1 1m711-1l3 1m0-1l4 1"/><path d="M1005 737l5 1-5-1zm35 0l5 1-5-1z" fill="#55518C"/><path d="M1045 737l4 1m0-1l3 1m403-1l1 1"/><path d="M1648 737v2l2-2h-2z" fill="#7D7D82"/><path d="M1654 737l1 1m116-1l1 1m2-1l1 1m21-1l1 1"/><path d="M1800 737l1 1-1-1zm16 0l1 1-1-1z" fill="#BCBCBE"/><path d="M1817 737l1 1m5-1l1 1m-1537 0l1 1m701-1l3 1"/><path d="M992 738l3 1-3-1zm63 0l3 1-3-1z" fill="#55518C"/><path d="M1058 738l3 1m393-1l1 1"/><path d="M1650 738l1 1-1-1zm5 0l1 1-1-1zm10 0l1 1-1-1z" fill="#9B99BB"/><path d="M1668 738l1 1m102-1l1 1m27-1l1 1m14-1l1 1"/><path d="M1815 738l1 1-1-1zm6 0l1 1-1-1z" fill="#3F3F3F"/><path d="M1822 738l1 1m-1609 0l1 1m73-1l1 1m1356-1v14"/><path d="M1648 739v15c2-4 2-11 0-15zm3 0l1 1-1-1z" fill="#BCBCBE"/><path d="M1656 739l1 1m8-1l1 1m2-1l1 1m126-1l1 1m16-1l1 1"/><path d="M1813 739l1 1-1-1zm6 0l1 1-1-1z" fill="#3F3F3F"/><path d="M1820 739l1 1m-1532 0l1 1m682-1l3 1m100-1l3 1m574-1l1 1m4-1l1 1m7-1l1 1m2-1l1 1m103-1l1 1m2-1l1 1m18-1l1 1m3-1l1 1m11-1l1 1m6-1l1 1m0-1l1 1m-1604 0l1 1m750-1l1 1"/><path d="M967 741l3 1-3-1zm113 0l3 1-3-1z" fill="#7D7D82"/><path d="M1654 741l1 1-1-1zm4 0l1 1-1-1z" fill="#2D2D30"/><path d="M1772 741l1 1m2-1l1 1m21-1l1 1m10-1l1 1m6-1l1 1m0-1l1 1"/><path d="M961 742l3 1-3-1zm125 0l3 1-3-1z" fill="#7D7D82"/><path d="M1089 742l1 1m361-1l1 1m203-1l1 1m4-1l1 1m111-1l1 1"/><path d="M1793 742l1 1-1-1zm13 0l1 1-1-1zm7 0l1 1-1-1z" fill="#595959"/><path d="M216 743l1 1m76-1l1 1m662-1l1 1m134-1l3 1"/><path d="M1423 743l1 1-1-1zm27 0l1 1-1-1z" fill="#9B99BB"/><path d="M1656 743l1 1m4-1l1 1m130-1l1 1m3-1l1 1m6-1l1 1m0-1l1 1m6-1l1 1m-1596 0l1 1m77-1l1 1m657-1l1 1m0-1l1 1m143-1l3 1m322-1l1 1m26-1l1 1m207-1l1 1m4-1l1 1m110-1l1 1m2-1l1 1m14-1l1 1m3-1l1 1"/><path d="M1801 744l1 1-1-1zm8 0l1 1-1-1z" fill="#9391A5"/><path d="M217 745l1 1m731-1l1 1m153-1l1 1"/><path d="M1421 745l1 1-1-1zm27 0l1 1-1-1z" fill="#7D7D82"/><path d="M1658 745l1 1m4-1l1 1"/><path d="M1773 745l1 1-1-1zm3 0l1 1-1-1z" fill="#7D7D82"/><path d="M1798 745l1 1m0-1l1 1m6-1l1 1m0-1l1 1m-1591 0l1 1m79-1l1 1m647-1l1 1"/><path d="M946 746l1 1-1-1zm160 0l1 1-1-1z" fill="#7D7D82"/><path d="M1107 746l1 1m339-1l1 1m212-1l1 1m112-1l1 1m2-1l1 1m13-1l1 1m5-1l1 1m0-1l1 1m6-1l1 1m0-1l1 1m-1588 0l1 1m79-1l1 1m643-1l1 1"/><path d="M943 747l1 1-1-1zm167 0l1 1-1-1z" fill="#7D7D82"/><path d="M1111 747l1 1m306-1l1 1m99-1l1 1m142-1l1 1m127-1l1 1m12-1l1 1m-1503 0l1 1"/><path d="M940 748l1 1-1-1zm174 0l1 1-1-1z" fill="#7D7D82"/><path d="M1115 748l1 1"/><path d="M1417 748l1 1-1-1zm101 0l1 1-1-1z" fill="#9391A5"/><path d="M1662 748l1 1m114-1l1 1"/><path d="M1788 748l1 1-1-1zm11 0l1 1-1-1z" fill="#595959"/><path d="M1800 748l1 1m-1582 0l1 1m81-1l1 1m635-1l1 1m180-1l1 1m0-1l1 1m296-1l1 1m98-1l1 1m2-1l1 1m144-1l1 1m110-1l1 1m2-1l1 1m9-1l1 1"/><path d="M1797 749l1 1-1-1zm-1494 1l1 1-1-1z" fill="#7D7D82"/><path d="M935 750l1 1m185-1l1 1m0-1l1 1m291-1l1 1m100-1l1 1m2-1l1 1"/><path d="M1664 750l1 1-1-1zm110 0l1 1-1-1zm3 0l1 1-1-1z" fill="#7D7D82"/><path d="M1786 750l1 1m7-1l1 1"/><path d="M1795 750l1 1-1-1zm-1575 1l1 1-1-1z" fill="#BCBCBE"/><path d="M305 751l1 1"/><path d="M933 751l1 1-1-1zm192 0l1 1-1-1zm288 0l1 1-1-1z" fill="#7D7D82"/><path d="M1777 751l1 1m6-1l1 1m6-1l1 1m0-1l1 1m-1572 0l1 1m85-1l1 1m622-1l1 1m0-1l1 1m196-1l1 1"/><path d="M1129 752l1 1-1-1zm390 0l1 1-1-1zm32 0l1 1-1-1zm231 0l1 1-1-1z" fill="#BCBCBE"/><path d="M1783 752l1 1m5-1l1 1m-1481 0l1 1"/><path d="M929 753l1 1-1-1zm202 0l1 1-1-1z" fill="#55518C"/><path d="M1132 753l1 1m277-1l1 1m29-1l1 1m75-1l1 1"/><path d="M1519 753l1 1-1-1zm32 0l1 1-1-1z" fill="#7D7D82"/><path d="M1780 753l1 1m0-1l1 1"/><path d="M1787 753l1 1-1-1zm-1565 1l1 1-1-1zm89 0l1 1-1-1z" fill="#9B99BB"/><path d="M927 754l1 1m206-1l1 1m0-1l1 1m303-1l1 1m76-1l1 1m31-1l1 1m2-1l1 1m116-1l1 1m109-1l1 1m6-1l1 1m-1563 0l1 1m89-1l1 1m611-1l1 1m83-1l6 1"/><path d="M1015 755c5 2 13 1 19 1-5-2-13-1-19-1z" fill="#9391A5"/><path d="M1034 755l7 1-7-1zm103 0l1 1-1-1z" fill="#55518C"/><path d="M1138 755l1 1m268-1l1 1m30-1l1 1"/><path d="M1520 755l1 1-1-1zm28 0l1 1-1-1z" fill="#C7C6D6"/><path d="M1665 755l1 1m2-1l1 1m106-1l1 1m7-1l1 1m0-1l1 1m-1470 0l1 1m607-1l1 1m73-1l4 1"/><path d="M1001 756l3 1-3-1zm44 0l4 1-4-1z" fill="#C7C6D6"/><path d="M1049 756l3 1m0-1l3 1m86-1l1 1m0-1l1 1m262-1l1 1m31-1l1 1m79-1l1 1m2-1l1 1m31-1l1 1m112-1l1 1m2-1l1 1m112-1l1 1m-1465 0l1 1m0-1l1 1m603-1l1 1m64-1l3 1m70-1l3 1m81-1l1 1m0-1l1 1m0-1l1 1m257-1l1 1"/><path d="M1436 757l1 1-1-1zm81 0l1 1-1-1z" fill="#9B99BB"/><path d="M1549 757l1 1"/><path d="M1552 757l1 1-1-1zm227 0l1 1-1-1z" fill="#7D7D82"/><path d="M225 758l1 1m94-1l1 1m599-1l1 1m57-1l3 1m88-1l3 1m76-1l1 1m253-1l1 1"/><path d="M1521 758l1 1-1-1zm28 0l1 1-1-1z" fill="#9B99BB"/><path d="M1552 758l1 1m116-1l1 1m-1444 0l1 1m96-1l1 1m595-1l1 1"/><path d="M973 759l3 1-3-1zm101 0l3 1-3-1z" fill="#9B99BB"/><path d="M1153 759l1 1m246-1l1 1m117-1l1 1m2-1l1 1m144-1l1 1m2-1l1 1m-1443 0l1 1m98-1l1 1m639-1l1 1"/><path d="M967 760l3 1-3-1zm113 0l3 1-3-1z" fill="#BCBCBE"/><path d="M1157 760l1 1m0-1l1 1m239-1l1 1m0-1l1 1m32-1l1 1m89-1l1 1m27-1l1 1m2-1l1 1m116-1l1 1m-1342 0l1 1m0-1l1 1m197-1l1 1m0-1l1 1m1-1l1 1m384-1l1 1m44-1l1 1m124-1l3 1m75-1l1 1m232-1l1 1m33-1l1 1m87-1l1 1m2-1l1 1m27-1l1 1m116-1l1 1m2-1l1 1m-1339 0l1 1"/><path d="M333 762l1 1-1-1zm192 0l1 1-1-1z" fill="#9B99BB"/><path d="M526 762l1 1-1-1zm389 0l1 1-1-1z" fill="#7D7D82"/><path d="M957 762l1 1m0-1l1 1m0-1l1 1m131-1l3 1m301-1l1 1m34-1l1 1m92-1l1 1m30-1l1 1m112-1l1 1m-1332 0l1 1m0-1l1 1m183-1l1 1m0-1l1 1m7-1l1 1m423-1l1 1m0-1l1 1m140-1l1 1m0-1l1 1m0-1l1 1m294-1l1 1m126-1l1 1m30-1l1 1m119-1l1 1m-1332 0l1 1m176-1l1 1"/><path d="M518 764l1 1-1-1zm433 0l1 1-1-1z" fill="#7D7D82"/><path d="M1101 764l1 1"/><path d="M1102 764l1 1-1-1zm75 0l1 1-1-1z" fill="#55518C"/><path d="M1178 764l3 1m209-1l1 1m0-1l1 1"/><path d="M1427 764l1 1-1-1zm97 0l1 1-1-1z" fill="#7D7D82"/><path d="M1555 764l1 1"/><path d="M1668 764l1 1-1-1zm4 0l1 1-1-1z" fill="#BCBCBE"/><path d="M345 765l1 1m167-1l1 1m15-1l1 1m418-1l1 1m156-1l1 1m0-1l1 1m281-1l1 1m0-1l1 1m36-1l1 1m94-1l1 1m3-1l1 1m26-1l1 1m116-1l1 1m-1320 0l3 1m175-1l1 1m416-1l1 1m0-1l1 1m162-1l1 1m0-1l1 1m77-1l3 1m195-1l1 1m37-1l1 1m100-1l1 1m30-1l1 1m112-1l1 1m3-1l1 1m-1440 0l1 1m122-1l3 1m141-1l3 1m439-1l1 1m168-1l1 1m0-1l1 1"/><path d="M1194 767l3 1-3-1zm190 0l1 1-1-1z" fill="#7D7D82"/><path d="M1423 767l1 1m98-1l1 1"/><path d="M1526 767l1 1-1-1zm27 0l1 1-1-1z" fill="#595959"/><path d="M1670 767l1 1m3-1l1 1m-1440 0l1 1m133-1l3 1m155-1l1 1"/><path d="M941 768l1 1-1-1zm175 0l1 1-1-1z" fill="#9B99BB"/><path d="M1117 768l1 1-1-1zm83 0l3 1-3-1z" fill="#7D7D82"/><path d="M1381 768l1 1m0-1l1 1m140-1l1 1m3-1l1 1m29-1l1 1m113-1l1 1m3-1l1 1m-1440 0l1 1m139-1l3 1m0-1l4 1"/><path d="M383 769l5 1-5-1zm102 0l3 1-3-1z" fill="#C7C6D6"/><path d="M938 769l1 1m0-1l1 1m180-1l1 1m87-1l3 1"/><path d="M1379 769l1 1-1-1zm41 0l1 1-1-1z" fill="#9391A5"/><path d="M1524 769l1 1m3-1l1 1m25-1l1 1m3-1l1 1m112-1l1 1m3-1l1 1m102-1l1 1m-1385 0l7 1m0-1l8 1"/><path d="M409 770l8 1-8-1zm63 0l4 1-4-1z" fill="#C7C6D6"/><path d="M476 770l4 1m0-1l3 1m43-1l1 1"/><path d="M907 770l1 1-1-1zm29 0l1 1-1-1z" fill="#55518C"/><path d="M937 770l1 1m185-1l1 1m0-1l1 1m88-1l3 1m160-1l1 1"/><path d="M1377 770l1 1-1-1zm41 0l1 1-1-1z" fill="#55518C"/><path d="M1529 770l1 1m25-1l1 1m116-1l1 1m3-1l1 1"/><path d="M239 771l1 1-1-1zm187 0l11 1-11-1z" fill="#55518C"/><path d="M437 771c6 3 15 1 21 1-6-2-15-1-21-1z" fill="#9391A5"/><path d="M458 771l9 1m439-1l1 1"/><path d="M935 771l1 1-1-1zm191 0l1 1-1-1z" fill="#9B99BB"/><path d="M1127 771l1 1m92-1l3 1m150-1l1 1m0-1l1 1m42-1l1 1"/><path d="M1525 771l1 1-1-1zm5 0l1 1-1-1z" fill="#C7C6D6"/><path d="M1559 771l1 1m113-1l1 1m3-1l1 1m96-1l1 1m2-1l1 1m-1538 0l1 1m284-1l1 1m379-1l1 1m27-1l1 1m195-1l1 1m0-1l1 1m96-1l3 1m140-1l1 1m0-1l1 1m43-1l1 1m110-1l1 1"/><path d="M1531 772l1 1-1-1zm25 0l1 1-1-1z" fill="#BCBCBE"/><path d="M1560 772l1 1-1-1zm114 0l1 1-1-1z" fill="#595959"/><path d="M1678 772l1 1m98-1l1 1"/><path d="M524 773l1 1-1-1zm407 0l1 1-1-1z" fill="#55518C"/><path d="M1132 773l1 1m0-1l1 1m233-1l1 1m0-1l1 1"/><path d="M1414 773l1 1-1-1zm113 0l1 1-1-1z" fill="#C7C6D6"/><path d="M1532 773l1 1m24-1l1 1m3-1l1 1m113-1l1 1m3-1l1 1m0-1l1 1m92-1l1 1m-1531 0l1 1m660-1l1 1"/><path d="M930 774l1 1-1-1zm206 0l1 1-1-1z" fill="#9B99BB"/><path d="M1137 774l1 1m226-1l1 1m0-1l1 1m46-1l1 1m115-1l1 1"/><path d="M1533 774l1 1-1-1zm25 0l1 1-1-1zm4 0l1 1-1-1z" fill="#595959"/><path d="M1646 774l1 1m29-1l1 1m4-1l1 1m90-1l1 1m3-1l1 1m-1533 0l1 1m278-1l1 1m379-1l1 1m235-1l1 1m0-1l1 1m219-1l1 1m0-1l1 1m48-1l1 1m118-1l1 1m5-1l1 1m23-1l1 1m3-1l1 1"/><path d="M1643 775l1 1-1-1zm3 0l1 1-1-1z" fill="#7D7D82"/><path d="M1677 775l1 1m4-1l1 1m88-1l1 1m-1526 0l1 1m680-1l1 1m217-1l1 1m117-1l3 1m91-1l1 1"/><path d="M1358 776l1 1-1-1zm50 0l1 1-1-1z" fill="#55518C"/><path d="M1531 776l1 1-1-1zm5 0l1 1-1-1z" fill="#595959"/><path d="M1560 776l1 1m3-1l1 1m78-1l1 1m2-1l1 1"/><path d="M1678 776l1 1-1-1zm6 0l1 1-1-1z" fill="#BCBCBE"/><path d="M1770 776l1 1m4-1l1 1m-1528 0l1 1m273-1l1 1"/><path d="M902 777l1 1-1-1zm24 0l1 1-1-1z" fill="#7D7D82"/><path d="M1147 777l1 1m123-1l3 1m79-1l1 1"/><path d="M1354 777l1 1-1-1zm52 0l1 1-1-1z" fill="#55518C"/><path d="M1407 777l1 1m124-1l1 1m5-1l1 1"/><path d="M1561 777l1 1-1-1zm4 0l1 1-1-1z" fill="#2D2D30"/><path d="M1646 777l1 1m33-1l1 1m4-1l1 1m82-1l1 1m5-1l1 1m-1526 0l1 1m271-1l1 1m403-1l1 1m353-1l3 1m0-1l3 1m0-1l4 1m58-1l3 1m55-1l1 1m128-1l1 1m5-1l1 1m0-1l1 1m20-1l1 1m4-1l1 1m74-1l1 1m38-1l1 1m5-1l1 1m78-1l1 1m5-1l1 1m0-1l1 1m-1523 0l1 1m649-1l1 1m22-1l1 1m367-1l4 1m0-1l4 1"/><path d="M1300 779l6 1-6-1zm37 0l3 1-3-1z" fill="#C7C6D6"/><path d="M1340 779l3 1m60-1l1 1m131-1l1 1m7-1l1 1m0-1l1 1m0-1l1 1"/><path d="M1549 780c5 2 11 1 16 1-4-2-11-1-16-1z" fill="#7D7D82"/><path d="M1568 779l1 1m71-1l1 1m4-1l1 1m37-1l1 1m5-1l1 1m0-1l1 1m72-1l1 1m0-1l1 1"/><path d="M1771 779l1 1-1-1zm-1518 1l1 1-1-1zm267 0l1 1-1-1z" fill="#7D7D82"/><path d="M900 780l1 1m22-1l1 1m237-1l1 1"/><path d="M1313 780c5 2 13 1 19 1-5-2-13-1-19-1z" fill="#55518C"/><path d="M1401 780l1 1-1-1zm136 0l1 1-1-1z" fill="#9B99BB"/><path d="M1538 780l1 1"/><path d="M1570 780l1 1-1-1zm68 0l1 1-1-1z" fill="#7D7D82"/><path d="M1644 780l1 1m39-1l1 1m0-1l1 1m6-1l1 1"/><path d="M1693 780l1 1-1-1zm65 0l1 1-1-1z" fill="#C7C6D6"/><path d="M1759 780l1 1m0-1l1 1"/><path d="M1769 780l1 1-1-1zm-1514 1l1 1-1-1zm645 0l1 1-1-1z" fill="#7D7D82"/><path d="M922 781l1 1m243-1l1 1m231-1l1 1"/><path d="M1399 781l1 1-1-1zm140 0l1 1-1-1z" fill="#C7C6D6"/><path d="M1540 781l1 1-1-1zm32 0l1 1-1-1z" fill="#595959"/><path d="M1573 781l1 1m60-1l1 1m0-1l1 1m7-1l1 1m42-1l1 1m0-1l1 1m7-1l1 1m0-1l1 1"/><path d="M1697 781l1 1-1-1zm56 0l1 1-1-1z" fill="#BCBCBE"/><path d="M1756 781l1 1m9-1l1 1m0-1l1 1m-1511 0l1 1m261-1l1 1m401-1l1 1m249-1l3 1m222-1l1 1"/><path d="M1397 782l1 1-1-1zm145 0l1 1-1-1z" fill="#C7C6D6"/><path d="M1543 782l1 1m0-1l1 1m29-1l1 1m0-1l1 1m0-1l1 1m53-1l1 1m0-1l1 1m9-1l1 1m46-1l1 1m0-1l1 1m11-1l5 1"/><path d="M1706 782l4 1-4-1zm37 0l3 1-3-1z" fill="#BCBCBE"/><path d="M1746 782l3 1m14-1l1 1m0-1l1 1m0-1l1 1m-1507 0l1 1m258-1l1 1m380-1l1 1"/><path d="M1394 783l1 1-1-1zm153 0c6 3 15 1 22 1-6-3-15-1-22-1z" fill="#7D7D82"/><path d="M1569 783l1 1m8-1l1 1m0-1l3 1m37-1l3 1m16-1l1 1"/><path d="M1639 783l1 1-1-1zm52 0l1 1-1-1z" fill="#9B99BB"/><path d="M1692 783l1 1"/><path d="M1715 783c4 2 9 1 13 1-4-2-9-1-13-1zm15 0l9 1-9-1zm29 0l1 1-1-1z" fill="#3F3F3F"/><path d="M1760 783l1 1m0-1l1 1m-1501 0l1 1m254-1l1 1m0-1l1 1m874-1l1 1m178-1l1 1m0-1l1 1m13-1l9 1"/><path d="M1595 784c4 2 9 1 13 1-4-2-9-1-13-1z" fill="#7D7D82"/><path d="M1608 784l7 1m19-1l1 1m0-1l1 1"/><path d="M1636 784l1 1-1-1zm58 0l1 1-1-1z" fill="#BCBCBE"/><path d="M1695 784l1 1m0-1l1 1m60-1l1 1m-1495 0l1 1"/><path d="M264 785l1 1-1-1zm249 0l1 1-1-1z" fill="#55518C"/><path d="M514 785l1 1-1-1zm384 0l1 1-1-1z" fill="#BCBCBE"/><path d="M919 785l1 1m268-1l1 1m0-1l3 1m197-1l1 1m0-1l1 1m183-1l1 1m0-1l1 1m55-1l1 1m0-1l1 1m68-1l5 1"/><path d="M1706 785l3 1-3-1zm37 0l3 1-3-1z" fill="#3F3F3F"/><path d="M1746 785l3 1"/><path d="M266 786l1 1-1-1zm244 0l1 1-1-1z" fill="#7D7D82"/><path d="M511 786l1 1m386-1l1 1m19-1l1 1m275-1l1 1m0-1l3 1m189-1l1 1m189-1l1 1m0-1l1 1m40-1l3 1m0-1l3 1"/><path d="M1715 786c6 3 16 1 23 1-6-3-16-1-23-1zm-1447 1l1 1-1-1z" fill="#BCBCBE"/><path d="M269 787l1 1m237-1l1 1m0-1l1 1"/><path d="M918 787l1 1-1-1zm282 0l1 1-1-1z" fill="#C7C6D6"/><path d="M1201 787l3 1-3-1zm183 0l1 1-1-1z" fill="#7D7D82"/><path d="M1385 787l1 1-1-1zm201 0l9 1-9-1z" fill="#BCBCBE"/><path d="M1595 787c4 2 8 1 12 1-4-2-8-1-12-1z" fill="#7D7D82"/><path d="M1607 787l8 1m-1344 0l1 1m0-1l1 1m231-1l1 1m412-1l1 1m288-1l3 1"/><path d="M1382 788l1 1-1-1zm-1108 1l1 1-1-1z" fill="#9B99BB"/><path d="M275 789l1 1m224-1l1 1m0-1l1 1m395-1l1 1m19-1l1 1m295-1l3 1m163-1l1 1m-1103 0l1 1m0-1l1 1m217-1l1 1"/><path d="M497 790l1 1-1-1zm723 0l3 1-3-1z" fill="#9B99BB"/><path d="M1376 790l1 1m-1096 0l1 1"/><path d="M282 791l1 1-1-1zm210 0l1 1-1-1z" fill="#55518C"/><path d="M493 791l1 1-1-1zm423 0l1 1-1-1z" fill="#9B99BB"/><path d="M1229 791l3 1m141-1l1 1m-1090 0l1 1m0-1l1 1m0-1l1 1m1082-1l1 1m0-1l1 1m-888 0l1 1m760-1l3 1m119-1l1 1m0-1l1 1m-1075 0l3 1m182-1l1 1m776-1l3 1m104-1l1 1"/><path d="M1363 794l1 1-1-1zm-1065 1l3 1-3-1z" fill="#9B99BB"/><path d="M472 795l3 1m785-1l3 1m2-1l3 1m90-1l1 1"/><path d="M1359 795l1 1-1-1zm-1055 1l3 1-3-1z" fill="#9B99BB"/><path d="M466 796l1 1m0-1l3 1m800-1l3 1m0-1l3 1"/><path d="M1276 796l3 1-3-1zm77 0l1 1-1-1z" fill="#55518C"/><path d="M315 797l3 1m964-1l3 1m0-1l4 1m0-1l4 1m-973 0l3 1m0-1l3 1m0-1l3 1"/><path d="M453 798l3 1-3-1zm844 0l5 1-5-1z" fill="#C7C6D6"/><path d="M1302 798l6 1"/><path d="M1308 798l11 1-11-1zm18 0l9 1-9-1z" fill="#55518C"/><path d="M1335 798l4 1"/><path d="M1339 798l4 1-4-1zm-1006 1l4 1-4-1z" fill="#C7C6D6"/><path d="M337 799l4 1"/><path d="M341 799l6 1-6-1zm96 0l3 1-3-1z" fill="#55518C"/><path d="M440 799l3 1"/><path d="M443 799l3 1-3-1zm-90 1l7 1-7-1z" fill="#C7C6D6"/><path d="M360 800l9 1"/><path d="M369 800l11 1-11-1zm45 0l8 1-8-1z" fill="#55518C"/><path d="M422 800l6 1"/><path d="M428 800l5 1-5-1zm487 2l1 1-1-1z" fill="#C7C6D6"/><path d="M915 803l1 1m0 1l1 1m-1 0l1 1m0 0l1 1m-21 0l1 1m-1 0l1 1m20-1l1 1"/><path d="M919 810l1 1-1-1zm1 1l1 1-1-1z" fill="#7D7D82"/><path d="M898 812l1 1m22-1l1 1m-23 1l1 1m24-1l1 1m0 0l1 1m-26 0l1 1m26-1l1 1m0 0l1 1"/><path d="M929 817l1 1-1-1zm-28 1l1 1-1-1z" fill="#C7C6D6"/><path d="M930 818l1 1m0-1l1 1m-30 0l1 1m29-1l1 1m0-1l1 1m-31 0l1 1m31-1l1 1"/><path d="M937 821l1 1-1-1zm3 1l1 1-1-1zm3 1l1 1-1-1zm3 1l1 1-1-1z" fill="#7D7D82"/><path d="M947 824l1 1m1 0l1 1m0-1l1 1m0-1l1 1m1 0l1 1m0-1l1 1m0-1l1 1m-46 0l1 1m47-1l1 1m-48 0l1 1m50-1l3 1"/><path d="M965 828l1 1-1-1zm-53 1l1 1-1-1z" fill="#C7C6D6"/><path d="M968 829l1 1m0-1l3 1m-58 0l1 1m59-1l3 1m-62 0l1 1m65-1l3 1m-67 0l1 1m70-1l3 1"/><path d="M919 833l1 1-1-1zm77 0l3 1-3-1z" fill="#7D7D82"/><path d="M920 834l1 1m0-1l1 1m0 0l1 1m0-1l1 1m93-1l3 1m-95 0l1 1m96-1l3 1m2-1l3 1m-103 0l1 1m107-1l3 1m0-1l3 1m-112 0l1 1m0-1l1 1m115-1l3 1m0-1l3 1m-120 0l1 1m122-1l3 1m0-1l3 1m0-1l3 1m-129 0l1 1m134-1l4 1m0-1l3 1m-139 0l1 1m141-1l3 1m0-1l3 1m0-1l4 1m-149 0l1 1"/><path d="M942 842l1 1-1-1zm151 0l3 1-3-1z" fill="#55518C"/><path d="M1096 842l3 1"/><path d="M1099 842l4 1-4-1zm-155 1l1 1-1-1z" fill="#C7C6D6"/><path d="M945 843l1 1m160-1l3 1m0-1l4 1m0-1l3 1m-168 0l1 1m170-1l3 1m0-1l4 1m0-1l3 1m3 0l3 1m0-1l3 1"/><path d="M1138 845l3 1-3-1zm-181 1l1 1-1-1z" fill="#C7C6D6"/><path d="M1144 846l3 1m0-1l3 1m0-1l3 1m-191 0l3 1m191-1l3 1m2-1l3 1m-196 0l3 1m198-1l3 1m9 0l3 1m11 1l3 1m-193 1l3 1m203-1l3 1m-197 0l3 1m196-1l1 1m0-1l3 1m-193 0l3 1m0-1l3 1m189-1l3 1m-190 0l3 1m0-1l3 1m0-1l3 1m183-1l1 1m-182 0l3 1m0-1l3 1"/><path d="M1052 857l3 1-3-1zm179 0l1 1-1-1z" fill="#55518C"/><path d="M1232 857l1 1"/><path d="M1233 857l1 1-1-1zm-175 1l3 1-3-1z" fill="#C7C6D6"/><path d="M1061 858l3 1"/><path d="M1064 858l4 1-4-1zm171 0l1 1-1-1z" fill="#55518C"/><path d="M1236 858l1 1m-166 0l3 1m0-1l3 1m0-1l3 1m159-1l1 1m0-1l1 1m-157 0l3 1m0-1l3 1"/><path d="M1090 860l3 1-3-1zm152 0l1 1-1-1z" fill="#55518C"/><path d="M1243 860l1 1m-147 0l3 1m0-1l3 1m0-1l3 1m139-1l1 1"/><path d="M1246 861l1 1-1-1zm-136 1l3 1-3-1z" fill="#C7C6D6"/><path d="M1113 862l3 1m0-1l3 1m129-1l1 1m-126 0l3 1m0-1l3 1m121-1l1 1"/><path d="M1252 864l1 1-1-1zm-102 1l3 1-3-1z" fill="#9391A5"/><path d="M1153 865l3 1m98-1l1 1"/><path d="M1150 866c2 12-1 24 5 35 4 7 12 11 20 13 16 4 36 5 53 2 11-1 22-2 32-5 3-2 9-3 10-7 1-3-2-7-4-9l-20-13c-13-6-28-8-42-10-18-3-36-6-54-6z" fill="#FFF"/><path d="M1158 866l3 1m0-1l3 1m92-1l1 1m-86 0l3 1m84-1l1 1m-109 0v12m109-12l1 1m1 0l1 1m-64 0l3 1m62-1l1 1m-59 0l3 1m56-1l1 1m-55 0l3 1m53-1l1 1m-51 0l1 1m51-1l1 1m-48 0l3 1m45-1l1 1m-44 0l1 1m3 0l1 1m0-1l1 1"/><path d="M1272 876l1 1-1-1zm-38 1l1 1-1-1z" fill="#9B99BB"/><path d="M1235 877l1 1m37-1l1 1m-37 0l1 1m0-1l1 1m1 0l1 1"/><path d="M1242 880l1 1-1-1zm35 0l1 1-1-1z" fill="#9B99BB"/><path d="M1244 881l1 1m33-1l1 1m-33 0l1 1"/><path d="M1279 882l1 1-1-1zm-31 1l1 1-1-1zm32 0l1 1-1-1z" fill="#7D7D82"/><path d="M1250 884l1 1m30-1l1 1m-31 0l1 1m30-1l1 1m-30 0l1 1m29-1l1 1m-29 0l1 1m0 0l1 1m1 0l1 1m26-1l1 1m-27 0l1 1m26-1l1 1m-25 1l1 1m24-1l1 1"/><path d="M1263 893l1 1-1-1zm25 1l1 1-1-1zm-136 1l1 1-1-1z" fill="#9B99BB"/><path d="M1152 896l1 1m136 0l1 1m-157 0l1 1m19-1l1 1m115 0l1 1m-136 0l1 1m19-1l1 1m115-1l1 1m-137 0l1 1m20 0l1 1m-21 0l1 1"/><path d="M1156 903l1 1-1-1zm-21 1l1 1-1-1z" fill="#9B99BB"/><path d="M1136 906l1 1m22-1l1 1m0 0l1 1m106-1l1 1m-131 0l1 1m23-1l1 1m103-1l1 1m23-1l1 1m-127 0l1 1m99-1l1 1m25-1l1 1m-152 0l1 1m26-1l1 1m94-1l1 1m0-1l1 1m-95 0l1 1m89-1l1 1m0-1l1 1m29-1l1 1m-150 0l1 1m29-1l1 1m0-1l1 1m83-1l1 1m0-1l1 1"/><path d="M1140 913l1 1-1-1zm32 0l1 1-1-1z" fill="#7D7D82"/><path d="M1173 913l1 1m77-1l1 1m35-1l1 1m-113 0l1 1m0-1l1 1m0-1l1 1"/><path d="M1244 914l3 1-3-1zm-64 1l3 1-3-1z" fill="#9B99BB"/><path d="M1239 915l3 1m-100 0l1 1m84-1l3 1m0-1l3 1"/><path d="M1285 916l1 1-1-1zm-142 1l1 1-1-1z" fill="#9B99BB"/><path d="M1194 917l4 1"/><path d="M1198 917c6 2 14 1 20 1-6-2-14-1-20-1z" fill="#9391A5"/><path d="M1218 917l5 1m61-1l1 1m-141 0l1 1m138-1l1 1m-139 0l1 1m136-1l1 1"/><path d="M1146 920l1 1-1-1zm135 0l1 1-1-1z" fill="#9B99BB"/><path d="M1278 922l1 1m-129 0l1 1"/><path d="M1277 923l1 1-1-1zm-126 1l1 1-1-1z" fill="#C7C6D6"/><path d="M1275 924l1 1m-123 0l1 1m119-1l1 1m-119 0l1 1m115-1l1 1"/><path d="M1157 927l1 1-1-1zm111 0l1 1-1-1z" fill="#7D7D82"/><path d="M1269 927l1 1m-111 0l1 1m105-1l1 1"/><path d="M1266 928l1 1-1-1zm-105 1l1 1-1-1z" fill="#9B99BB"/><path d="M1262 929l1 1m0-1l1 1"/><path d="M1164 930l1 1-1-1zm95 0l1 1-1-1z" fill="#7D7D82"/><path d="M1260 930l1 1"/><path d="M1167 931l1 1-1-1zm88 0l1 1-1-1z" fill="#7D7D82"/><path d="M1256 931l1 1m-87 0l1 1m0-1l1 1m78-1l3 1"/><path d="M1245 933l3 1-3-1zm-66 1l3 1-3-1z" fill="#9B99BB"/><path d="M1188 935l3 1"/><path d="M1191 935l3 1-3-1zm31 0l4 1-4-1z" fill="#55518C"/><path d="M1226 935l4 1"/><path d="M1230 935l3 1-3-1zm-31 1c5 2 12 1 17 1-5-2-12-1-17-1z" fill="#C7C6D6"/></g></svg>