<svg xmlns="http://www.w3.org/2000/svg" width="1975" height="698"><path d="M0 0v698h1975V0H0z" fill="#215181"/><path d="M839 135c-9 2-17 10-19 19-2 6-1 12-1 18v262c0 9-1 18 5 26 8 11 19 11 31 11h255c8 0 18 1 26-1 19-5 20-22 20-38V170c0-9 1-18-5-26-8-10-19-10-31-10H865c-8 0-18-1-26 1z" fill="#f9fafc"/><path d="M840 144c-6 1-11 7-12 13v277c0 7-1 15 3 21 7 8 15 7 24 7h257c7 0 16 1 23-1 6-1 11-7 12-13V171c0-7 1-15-3-21-5-7-14-7-22-7H863c-7 0-16-1-23 1z" fill="#215181"/><path d="M945 218l1 13c6 26 37 10 53 4l-8 38a2734 2734 0 0 0-19 97c-1 4-1 10-4 12-2 3-8 3-11 4-11 1-20 1-30-2 0 9 2 21 12 24 10 4 24-2 34-3 20-2 42-7 62-5l14 4c0-5 0-9-2-14-2-8-8-10-16-12-12-2-22 1-34 1 4-14 6-29 9-44l12-66c4-17 8-34 10-51 2-7 4-14 4-21-23 7-44 28-70 27-6 0-11-4-17-6m54 319v68h14c0-10-2-23 2-32 1-4 6-8 11-6 4 2 5 7 5 11v27h14v-26c0-5 1-10-1-14-5-13-22-12-31-4v-24h-14m-52 53v13c15 3 41 7 42-15l-1-8c-4-10-17-11-24-18-6-8 5-11 11-9l10 2 4-11c-9-3-18-6-27-3-12 2-18 15-12 26 4 10 16 9 23 17 3 4 0 9-5 10-7 1-14-3-21-4m-151-34c-18 4-22 28-12 42 6 8 17 10 26 7 17-4 22-28 12-41-6-8-16-11-26-8m55 6l-2-6h-12v49h15v-21c0-4-1-8 1-11 2-5 8-9 13-5 3 2 3 7 3 11v26h15v-26c0-5 0-11-2-16-6-10-25-12-31-1m86 30c-11 3-26 8-29-8h32c0-8-1-18-7-24-8-8-25-7-33 1-5 5-7 13-7 20 0 9 4 18 13 23 7 3 16 3 23 1 2 0 5-1 7-3s1-7 1-10m123-33c1 3 2 7 5 8 8 3 16-6 20 4l1 4c-8 0-19-1-26 5-8 6-6 21 4 25 9 4 17-1 24-6 1 7 6 6 12 6v-29c0-6 0-13-6-17-6-5-14-4-21-4-5 0-9 2-13 4m66 5l-2-8h-11v49h14c0-10-4-31 8-36l9-1 1-13c-8 0-15 1-19 9m68 28c-11 3-27 8-29-8h32c0-9 0-18-8-25-15-12-37 0-38 18 0 10 1 20 10 26 7 4 16 4 24 3l8-4c2-2 1-7 1-10z" fill="#f9fafc"/><path d="M908 575h18c-1-13-17-13-18 0m258 0h17c-1-13-16-13-17 0m-367-8c-11 4-8 33 7 27 12-4 8-33-7-27m287 16h-8l-4 1c-11 7 6 19 11 6l1-7z" fill="#215181"/></svg>