<svg xmlns="http://www.w3.org/2000/svg" style="isolation:isolate" width="1000" height="626"><defs><clipPath id="a"><path d="M0 0h1000v626H0z"/></clipPath></defs><g clip-path="url(#a)"><clipPath id="b"><path d="M0 0h1000v626H0V0z" fill="#FFF"/></clipPath><g clip-path="url(#b)"><path d="M691 353l-4-16c-1-5-1-13-3-15v25c1 28 1 55-1 83-4 34-14 68-29 99l-8 15c-1 5 1 12 6 15 7 4 17 0 21-6 22-41 35-86 38-133l1-30-14-21c-1-1-6-11-7-16zm184 11l3-2-3 2z" fill="#61C9E2"/><path d="M916 301l1-25v-56c0-38 9-76 24-111 4-10 11-20 14-30 1-7-3-14-10-15-10-3-16 4-20 12l-16 37c-12 29-17 60-19 90-1 10-3 22-1 32 2 7 8 13 12 20q7 13 15 46z" fill="#45D171"/><path d="M615 82c-9 3-9 12-9 20v308c0 6-1 12 1 18 2 9 12 12 20 9 9-3 8-12 8-20V90c-3-8-13-11-20-8z" fill="#4151DD"/><path d="M916 306c-2 4-6 6-11 7h-15l-3 20c-2 10-9 23-13 33q21 11 22 14c4-5 10-17 12-23q6-16 8-51z" fill="#45D171"/><path d="M147 188c-14 2-28 6-40 14-56 32-78 104-53 163 8 20 23 38 40 51 12 9 25 15 39 19 29 7 60 4 86-10a131 131 0 0 0 14-215c-12-9-25-16-40-19s-31-5-46-3zm13 25c-12 2-23 4-34 9-32 17-52 51-54 86-4 54 44 110 100 104 56-7 92-64 82-118-7-37-36-73-75-79l-19-2zm187 180c41 54 125 58 174 14 40-36 53-99 31-148-14-31-42-57-75-67-13-3-26-4-39-4-17 0-34 3-50 11-14 7-33 17-40 32-4-14 7-43-15-43l-7 1c-8 3-7 13-7 20v304c0 7-2 17 1 23 5 10 24 9 27-2 2-7 0-17 0-25V393zm91-179l-29 6c-24 9-45 30-55 54-21 54 10 123 69 135 9 1 18 2 27 1 53-6 89-60 83-111-6-48-47-84-95-85zm246 108l1 5c3 40 31 80 72 97 16 6 32 7 48 7 29 0 55-12 76-32 6-5 16-14 17-23s-5-22-16-17c-9 4-13 14-20 21a95 95 0 0 1-41 23c-39 11-81-12-99-47-4-8-7-17-9-26l-2-13h158l27-1c9 0 17 0 20-10v-10l-9-28c-9-24-25-46-47-60-50-31-120-15-154 33-17 25-22 52-22 81zm29-29h174c0-9-5-19-9-27a88 88 0 0 0-95-46c-36 7-63 38-70 73z" fill-rule="evenodd" fill="#4151DD"/><path d="M874 366l1 1"/></g></g></svg>