<svg xmlns="http://www.w3.org/2000/svg" width="1053" height="901"><path d="M0 0v901h533V0H0z" fill="#4a4949"/><path d="M533 0v901h520V0H533z" fill="#01bdfd"/><path d="M49 29c10-6 21-13 32-17 21-5 46-2 68-2-4-2-9-1-14-1 9-3 19-1 28-1h240l-4 1h12l-1 2h7c-4-6-16-4-22-4H122c-19 0-38-1-56 8-6 3-14 7-17 14M640 9l2 3 8-1c4-3 8-1 13-1l10-1 57-1h208c11 0 23 0 34 3l3-2c-8-4-21-2-30-2H741c-34 0-67-1-101 2z" fill="#6e6b6d"/><path d="M135 8c7 3 18 1 25 1h243c-7-3-18-1-25-1H135m553 0c7 3 18 1 25 1h246c-7-3-18-1-25-1H688M404 9l7 1-7-1m246 0l11 1-11-1z" fill="#979494"/><path d="M640 12l2-1c-4-2-10 1-14 3-11 5-20 13-27 24-9 16-8 35-8 53l-1 70v534l-1 95c0 17-1 34 1 50 3 14 7 28 20 35 4 2 6 5 11 4l-1 3c4 1 7 1 10 4l3-1-1 2c8-1 17 2 25 2h80c-9 3-19 1-28 1h-54c4 2 9 1 14 1h28l94 1h138c27 0 55 1 78-16 6-5 11-13 14-21 8-21 4-46 4-68V481c0-7-2-19 3-25l-3-3 3 1c-1-2-1-2-3-2V349l2-2h-2l3-1-3-1v-51c0-7-2-15 3-20l-1-49c0-4-3-7-3-11-2-26 0-54 0-80 0-25 2-51-1-75-4-26-26-50-53-50l3 1c-7 1-15-1-23-1H743c-34 0-69-1-103 3z" fill="#4a4949"/><path d="M963 9l5 1-5-1z" fill="#979494"/><path d="M979 9l1 1-1-1z" fill="#6e6b6d"/><path d="M349 13h45c-9-4-22 0-32-1-5-1-9-4-13 1z" fill="#1f1d1d"/><path d="M645 10l3 1-3-1m327 0l3 1-3-1z" fill="#979494"/><path d="M418 11c6 4 15 7 22 10-5-6-14-9-22-10m216 0z" fill="#6e6b6d"/><path d="M977 11l11 4-11-4m-345 3l7-1c-3-1-4 0-7 1z" fill="#979494"/><path d="M791 12c8 3 20 1 28 1-8-3-20-1-28-1m118 0l9 1-9-1z" fill="#1f1d1d"/><path d="M988 12l1 1-1-1z" fill="#6e6b6d"/><path d="M400 13c7 3 15 3 22 5s12 7 19 9c-9-11-27-14-41-14m249 0l5 1-5-1z" fill="#1f1d1d"/><path d="M642 16h10l18-1h68c78 0 157 0 235 2-9-5-21-3-31-3h-61c-61 0-122-4-183 0-19 1-37-2-56 2z" fill="#6e6b6d"/><path d="M958 13c4 2 9 1 14 2l15 4c-8-6-20-6-29-6z" fill="#1f1d1d"/><path d="M990 13l1 1-1-1m-887 1c8 3 20 1 28 1h62l214 1c-8-4-20-2-29-2H103m523 0l1 1-1-1z" fill="#6e6b6d"/><path d="M642 14l4 1-4-1z" fill="#1f1d1d"/><path d="M624 15l1 1-1-1m6 0z" fill="#6e6b6d"/><path d="M989 15l1 1-1-1m-362 1l1 1-1-1z" fill="#979494"/><path d="M630 18c3 1 5 0 7-1-3-1-5 0-7 1z" fill="#1f1d1d"/><path d="M991 16l1 1-1-1z" fill="#979494"/><path d="M996 16l1 1-1-1z" fill="#6e6b6d"/><path d="M993 17l1 1-1-1z" fill="#979494"/><path d="M999 18l1 1-1-1z" fill="#6e6b6d"/><path d="M95 20c-9 2-20 4-28 9-4 3-7 8-10 12-15 21-10 52-10 76v694c0 17 0 35 11 49 7 8 17 16 27 18h291c10 0 22 1 32-1l18-5c33-18 27-62 27-93l-1-299-1-322V84c0-16 0-34-12-47-21-24-61-17-90-17H95m556 1c-9 2-19 5-27 11-11 9-14 22-16 35-3 17-2 35-2 52v686c0 20-1 39 11 56 6 8 19 15 28 17h294c13 0 26 1 39-3l10-5c31-16 25-58 25-87l-1-274-1-335V98c0-21 1-42-13-60-7-10-15-13-27-15-19-5-39-3-58-3H678c-8 0-19-2-27 1m339-1z" fill="#1f1d1d"/><path d="M619 21l1 1-1-1z" fill="#6e6b6d"/><path d="M999 21l1 1-1-1z" fill="#979494"/><path d="M1003 21l1 1-1-1m-389 1l1 1-1-1m376 1c8 9 16 15 21 26 5 13 4 30 4 44v70l1 317 1-11V86c0-12 0-25-4-37-4-11-12-22-23-26m11 0l3 2-3-2z" fill="#6e6b6d"/><path d="M1000 27l1 1-1-1z" fill="#1f1d1d"/><path d="M607 29l1 1-1-1m405 1l1 1-1-1z" fill="#6e6b6d"/><path d="M1005 32l1 1-1-1z" fill="#1f1d1d"/><path d="M604 33l1 1-1-1m411 1l1 1-1-1z" fill="#6e6b6d"/><path d="M104 37c-10 4-3 18 7 14 11-4 3-18-7-14z" fill="#4a4949"/><path d="M602 36l1 1-1-1z" fill="#6e6b6d"/><path d="M665 37c-11 2-7 17 4 15 11-3 6-17-4-15z" fill="#4a4949"/><path d="M1013 37l1 1-1-1z" fill="#6e6b6d"/><path d="M207 39c-4 3 1 8 5 8 20 2 40 0 60 0 5 0 17 2 20-2 2-1 2-5 0-6-4-2-9-1-13-1h-52c-5 0-15-2-20 1m560 0c-3 2-3 6 1 7h77c2 0 5 1 6-1 2-2 1-5-1-6-4-2-9-1-13-1h-50c-5 0-15-2-20 1z" fill="#4a4949"/><path d="M107 48v-3l3 2 2-2c2-8-13-7-8 1l3 2m100-5c13-3 29-1 43-1s30-2 43 1c-3-6-11-4-17-4h-50c-6 0-17-2-19 4m459 5v-3h2l1 3 2-2c3-9-13-8-8 0l3 2m100-5c9-3 20-2 30-2h55c-5-4-13-2-19-2h-47c-6 0-16-2-19 4z" fill="#1f1d1d"/><path d="M1020 44l1 1-1-1z" fill="#30419d"/><path d="M601 45l1 1-1-1m-4 1l1 1-1-1m171 0c7 3 18 1 25 1h57c-7-3-18-1-25-1h-57m-309 1c5 26 4 53 4 80v491c2-4 1-9 1-14v-26l1-89V82c-1-11 2-26-6-35m141 1z" fill="#6e6b6d"/><path d="M603 47l-1 6c1-2 2-4 1-6z" fill="#1f1d1d"/><path d="M667 47l1 1-1-1z" fill="#979494"/><path d="M1018 47c1 5 1 14 5 17-1-5-1-13-5-17zm-422 2l1 1-1-1z" fill="#6e6b6d"/><path d="M1018 49l1 3-1-3z" fill="#1f1d1d"/><path d="M1022 49l1 1-1-1m-423 2c-2 4-3 8-3 13h2c0-4 2-9 1-13m-4 1l1 1-1-1zm-141 2l2 22v232l1 172c3-8 1-20 1-29V86c0-8 0-15-2-23 0-3 0-6-2-9zM38 57c-5 20-2 42-2 62v115c2-4 1-9 1-14V101l1-32c0-4 2-8 0-12m986 0l1 1-1-1zm-422 4c-3 16-1 34-1 50v387c3-8 1-21 1-30V78c1-5 2-12 0-17m423 2z" fill="#6e6b6d"/><path d="M599 67v160c2-4 1-9 1-14V80c0-4 1-9-1-13z" fill="#1f1d1d"/><path d="M595 68v120c3-8 1-20 1-28V97c0-8 4-22-1-29M42 71v370c3-8 1-20 1-28V96c0-7 2-18-1-25m550 0v53c2-4 1-9 1-13V86c0-5 1-11-1-15m431 0l-1 17h2c0-5 1-12-1-17m3 2v146c2-4 1-9 1-13V85c0-4 1-8-1-12z" fill="#6e6b6d"/><path d="M1018 74v328c3-7 1-18 1-25V97c0-7 2-17-1-23z" fill="#1f1d1d"/><path d="M1022 89l1 360 1-11V89h-2z" fill="#6e6b6d"/><path d="M54 95v25l393 1V95H54m559 0v26h393V95H613z" fill="#30419d"/><path d="M54 120c4 2 8 1 12 1h97c-4-2-8-1-12-1H54z" fill="#6e6b6d"/><path d="M53 121v109c3-7 1-18 1-25v-56c0-8 2-20-1-28z" fill="#4a4949"/><path d="M54 121v109c59 0 109-50 109-109H54z" fill="#f9fcfd"/><path d="M163 121l-1 15c2-4 3-11 1-15z" fill="#61d3fa"/><path d="M164 121c0 60-51 109-110 109v517h393V121H164z" fill="#01bdfd"/><path d="M613 121v626h393V230c-13 0-26-1-38-6-42-16-72-58-72-103H613z" fill="#4a4949"/><path d="M897 121c0 59 50 109 109 109V121H897z" fill="#f9fcfd"/><path d="M1021 132v185c2-4 1-9 1-14V148c0-5 1-11-1-16z" fill="#1f1d1d"/><path d="M954 135l-3 8c3-2 3-5 5-7l-2-1z" fill="#979494"/><path d="M956 135l11 1-11-1m-59 1z" fill="#6e6b6d"/><path d="M954 136c-1 12-12 6-17 12-6 7 1 9 2 15 0 4-3 6-4 9-2 4 2 9 4 12 8-1 15 0 15 9h14c0-5 2-9 8-10 3 0 6 1 8-1 7-7 0-11 0-18 0-4 4-6 4-10-1-13-19-5-20-18h-14z" fill="#4a4949"/><path d="M968 136l1 7c1-3 0-5-1-7z" fill="#6e6b6d"/><path d="M88 143l1-5h13c-6-2-13-2-14 5z" fill="#61d3fa"/><path d="M89 138c-1 5-3 9-8 9-3 1-6 0-8 2-4 4-5 10 1 12 0 8-7 13-2 21 3 3 5 2 9 3 5 0 8 4 8 9h14c1-13 19-5 19-18 1-3-3-6-3-9 0-7 7-10 1-17-5-6-15-1-16-12H89z" fill="#01bdfd"/><path d="M970 142l1 1-1-1zm-31 3l3-1c-2-1-2-1-3 1m10-2l1 1-1-1m23 0z" fill="#979494"/><path d="M83 147l5-2c-3-1-3 0-5 2z" fill="#61d3fa"/><path d="M940 144l3 1-3-1z" fill="#6e6b6d"/><path d="M948 144l1 1-1-1m25 0l1 1-1-1m6 0l4 1-4-1zm-41 1l1 1-1-1m6 0l3 1-3-1m31 0l3 1-3-1m8 0l1 1-1-1z" fill="#979494"/><path d="M74 146l4 1-4-1m39 0l5 1-5-1z" fill="#61d3fa"/><path d="M937 146l1 1-1-1m47 0l1 1-1-1z" fill="#979494"/><path d="M73 147l1 1-1-1m5 0l5 1-5-1m32 0l3 1-3-1m8 0l3 4-3-4m41 0z" fill="#61d3fa"/><path d="M985 147l1 1-1-1m-50 2l1 1-1-1m51 0l1 1-1-1z" fill="#979494"/><path d="M71 150l-1 3 1-3m87 0zm-37 1l2 3-2-3z" fill="#61d3fa"/><path d="M934 151l1 1-1-1z" fill="#979494"/><path d="M958 151l5 1-5-1z" fill="#6e6b6d"/><path d="M956 152l11 2c-3-2-7-2-11-2m32 0v6c2-2 2-4 0-6z" fill="#979494"/><path d="M85 172c1-5-1-9 3-14 9-8 19 0 20 10 6-14-21-22-24-5l1 9z" fill="#61d3fa"/><path d="M954 153l1 1-1-1z" fill="#6e6b6d"/><path d="M955 154c-13 7-1 27 12 20s1-27-12-20m-862 1c-13 4-8 27 6 22 14-4 8-27-6-22z" fill="#f9fcfd"/><path d="M953 154l1 1-1-1m15 0l1 1-1-1zm-16 1l1 1-1-1m17 0l1 1-1-1m-18 1l1 1-1-1m19 0l1 1-1-1m-36 1l1 1-1-1z" fill="#979494"/><path d="M950 157l1 1-1-1z" fill="#6e6b6d"/><path d="M971 157l1 1-1-1zm-36 1l1 1-1-1z" fill="#979494"/><path d="M986 158l1 1-1-1z" fill="#6e6b6d"/><path d="M987 158l1 1-1-1z" fill="#979494"/><path d="M122 159l1 1-1-1z" fill="#61d3fa"/><path d="M903 159l1 4-1-4z" fill="#6e6b6d"/><path d="M936 159l1 1-1-1m49 0l1 1-1-1z" fill="#979494"/><path d="M121 160l1 1-1-1z" fill="#61d3fa"/><path d="M937 160l-1 9c3-2 2-6 1-9z" fill="#979494"/><path d="M120 161l1 1-1-1m35 1zm-36 0c0 3-1 7 2 9l-2-9z" fill="#61d3fa"/><path d="M905 162l1 4-1-4z" fill="#979494"/><path d="M152 166l-1 4c2-1 2-2 1-4zm-45 3l-1 3 1-3z" fill="#61d3fa"/><path d="M908 169l1 1-1-1m27 0l1 1-1-1m50 0l1 1-1-1z" fill="#979494"/><path d="M71 170l1 1-1-1z" fill="#61d3fa"/><path d="M908 170l1 4-1-4z" fill="#6e6b6d"/><path d="M934 170l1 1-1-1m37 0l1 1-1-1m16 0l1 1-1-1z" fill="#979494"/><path d="M70 171l1 1-1-1m80 0l-1 3 1-3z" fill="#61d3fa"/><path d="M909 171l1 1-1-1zm42 0l1 1-1-1m19 0l1 1-1-1m18 0l1 3 1-3h-2m-36 1l1 1-1-1z" fill="#979494"/><path d="M105 173l1 1-1-1m18 0z" fill="#61d3fa"/><path d="M910 173l1 1-1-1m43 0l1 1-1-1m16 0z" fill="#979494"/><path d="M104 174l1 1-1-1m44 0l-2 6c2-2 3-3 2-6z" fill="#61d3fa"/><path d="M954 174l1 1-1-1m13 0l1 1-1-1z" fill="#979494"/><path d="M103 175l1 1-1-1z" fill="#61d3fa"/><path d="M911 175l1 1-1-1m54 0z" fill="#979494"/><path d="M99 178l3-2-3 2z" fill="#61d3fa"/><path d="M934 176l1 1-1-1zm25 0l4 1-4-1zm-47 1l1 1-1-1z" fill="#979494"/><path d="M93 178l5 1-5-1z" fill="#61d3fa"/><path d="M935 178l1 1-1-1m51 0l1 1-1-1z" fill="#979494"/><path d="M121 179l-1 4c1-2 2-2 1-4m24 1l-6 9c4-2 7-5 6-9z" fill="#61d3fa"/><path d="M914 180l1 1-1-1m22 0l1 1-1-1m49 0l1 1-1-1m-48 1l1 1-1-1m47 1z" fill="#979494"/><path d="M72 182l1 1-1-1z" fill="#61d3fa"/><path d="M938 182l1 1-1-1z" fill="#6e6b6d"/><path d="M944 182l3 1-3-1zm-28 1l1 1-1-1m22 0l1 1-1-1m9 0l1 1-1-1m27 0l1 1-1-1zm9 0l1 1-1-1z" fill="#979494"/><path d="M74 185h9-9m32 1c3 1 4 0 7-1-3-1-4 0-7 1m12-2l1 1-1-1z" fill="#61d3fa"/><path d="M917 184l1 1-1-1m22 0l3 1-3-1m33 0l1 1-1-1m7 0l4 1-4-1z" fill="#979494"/><path d="M83 185l3 2-3-2m30 0l5 1-5-1z" fill="#61d3fa"/><path d="M918 186l1 1-1-1m34 0l1 7c1-3 0-5-1-7z" fill="#979494"/><path d="M104 187l-1 7 3-7h-2z" fill="#61d3fa"/><path d="M919 187l1 1-1-1zm-324 1v520c2-4 1-8 1-12V201c0-4 1-9-1-13m325 0l1 1-1-1z" fill="#979494"/><path d="M138 189l1 1-1-1z" fill="#61d3fa"/><path d="M922 191l1 1-1-1m100 0v242c0 5-2 14 2 17-2-8-1-16-1-24V212c0-6 2-15-1-21z" fill="#979494"/><path d="M136 192l1 1-1-1z" fill="#61d3fa"/><path d="M923 192l1 1-1-1z" fill="#979494"/><path d="M135 193l1 1-1-1z" fill="#61d3fa"/><path d="M924 193l1 1-1-1m32 0l10 1-10-1z" fill="#979494"/><path d="M89 194c4 2 9 1 14 1-4-2-9-1-14-1m45 0l1 1-1-1z" fill="#61d3fa"/><path d="M925 194l1 1-1-1z" fill="#979494"/><path d="M133 195l1 1-1-1z" fill="#61d3fa"/><path d="M926 195l1 1-1-1z" fill="#979494"/><path d="M132 196l1 1-1-1z" fill="#61d3fa"/><path d="M927 196l1 1-1-1z" fill="#979494"/><path d="M131 197l1 1-1-1z" fill="#61d3fa"/><path d="M928 197l1 1-1-1z" fill="#979494"/><path d="M130 198l1 1-1-1z" fill="#61d3fa"/><path d="M929 198l1 1-1-1z" fill="#979494"/><path d="M129 199l1 1-1-1z" fill="#61d3fa"/><path d="M930 199l1 1-1-1z" fill="#979494"/><path d="M128 200l1 1-1-1z" fill="#61d3fa"/><path d="M931 200l1 1-1-1z" fill="#979494"/><path d="M127 201l1 1-1-1z" fill="#61d3fa"/><path d="M932 201l1 1-1-1z" fill="#979494"/><path d="M126 202l1 1-1-1z" fill="#61d3fa"/><path d="M933 202l1 1-1-1z" fill="#979494"/><path d="M125 203l1 1-1-1z" fill="#61d3fa"/><path d="M934 203l1 1-1-1m1 1l1 1-1-1z" fill="#979494"/><path d="M122 205l1 1-1-1z" fill="#61d3fa"/><path d="M936 205l1 1-1-1z" fill="#979494"/><path d="M121 206l1 1-1-1z" fill="#61d3fa"/><path d="M938 206l1 1-1-1m1 1l1 1-1-1z" fill="#979494"/><path d="M118 208l1 1-1-1z" fill="#61d3fa"/><path d="M940 208l1 1-1-1z" fill="#979494"/><path d="M796 209l6 1-6-1z" fill="#6e6b6d"/><path d="M802 209c5 2 11 1 16 1-5-2-11-1-16-1z" fill="#979494"/><path d="M818 209c3 2 7 2 11 2-3-2-7-2-11-2z" fill="#6e6b6d"/><path d="M942 209l1 1-1-1z" fill="#979494"/><path d="M791 210l4 1-4-1z" fill="#6e6b6d"/><path d="M797 210c-31 5-55 26-64 56-3 8-5 17-6 25 0 4 0 10-2 14-3 5-8 5-13 7s-8 6-10 11c-2 6-1 12-1 18 0 13-1 29 15 33l12 1c5 0 10-1 13-6 2-5 1-11 1-16v-35c0-33 7-73 40-89 7-3 14-3 22-4s17 0 25 2c44 12 49 63 49 101v30c0 5 0 11 4 15 4 3 12 2 17 2l7-2c15-6 12-21 12-34 0-6 1-13-1-18-3-5-7-8-12-10-4-1-8-2-10-6-2-5-1-12-2-17-1-9-4-19-7-28a80 80 0 0 0-89-50z" fill="#f9fcfd"/><path d="M943 210l1 1-1-1z" fill="#979494"/><path d="M107 215c3 1 6-1 9-3l-9 3z" fill="#61d3fa"/><path d="M787 211l3 1-3-1z" fill="#6e6b6d"/><path d="M944 211l1 1-1-1m-160 1l3 1-3-1m49 0zm113 0l1 1-1-1m-110 1l3 1-3-1m111 0l1 1-1-1m2 1l1 1-1-1m-108 1l3 1-3-1m110 0l1 1-1-1zm-177 1l1 1-1-1m71 0l1 1-1-1z" fill="#979494"/><path d="M952 216l1 1-1-1z" fill="#6e6b6d"/><path d="M953 216l1 1-1-1zm-181 1l1 1-1-1m75 0l1 1-1-1m108 0z" fill="#979494"/><path d="M468 218c2 9 1 19 1 29 0 9 1 19-1 28 5-2 4-8 4-13v-32c0-5 1-9-4-12z" fill="#6e6b6d"/><path d="M770 218l1 1-1-1m79 0l1 1-1-1m108 0zm-189 1l1 1-1-1m83 0l1 1-1-1m176 0c3 5 2 11 2 17v33c2-3 1-6 1-9v-29c0-4 2-10-3-12z" fill="#979494"/><path d="M94 223l5-2c-2-1-4 0-5 2z" fill="#61d3fa"/><path d="M766 220l1 1-1-1z" fill="#6e6b6d"/><path d="M767 220l1 1-1-1m86 0l1 1-1-1m108 0zm-491 1v34c3-7 1-17 1-24l-1-10m295 0l1 1-1-1m89 0l1 1-1-1m-91 1l1 1-1-1m93 0l1 1-1-1m109 0z" fill="#979494"/><path d="M231 225c5 2 11-1 16-1l23 2c-12-6-26-2-39-1z" fill="#61d3fa"/><path d="M762 223l1 1-1-1m95 0l1 1-1-1z" fill="#979494"/><path d="M966 223l3 1-3-1z" fill="#6e6b6d"/><path d="M243 224c-23 4-45 12-58 32-6 8-9 18-12 27l-4 17c-1 6 0 13-3 18-2 6-8 6-13 8-4 2-6 5-9 9-3 6-2 12-2 19 0 15 1 34 21 35 5 0 12 1 17-3 4-4 3-11 3-16v-37c0-21 2-47 13-65 15-26 47-35 75-26 43 12 48 61 48 99v32c0 5 0 10 3 13 4 4 13 3 18 3 8-1 16-7 19-15v-21c0-6 1-13-2-18-4-9-16-8-21-16-3-6-2-15-3-21-1-8-4-16-7-24a78 78 0 0 0-83-50z" fill="#f9fcfd"/><path d="M760 224l1 1-1-1m45 0l7 1-7-1m54 0l1 1-1-1m110 0l6 2-6-2z" fill="#979494"/><path d="M83 225l4 1-4-1z" fill="#61d3fa"/><path d="M759 225l1 1-1-1m32 1h9-9z" fill="#979494"/><path d="M800 225l5 1-5-1m12 0l6 1-6-1z" fill="#6e6b6d"/><path d="M818 225l4 1-4-1m42 0l1 1-1-1zm-102 1l1 1-1-1z" fill="#979494"/><path d="M822 226l3 1-3-1z" fill="#6e6b6d"/><path d="M861 226l1 1-1-1m115 0l4 1-4-1z" fill="#979494"/><path d="M222 227l5 1-5-1m56 0z" fill="#61d3fa"/><path d="M757 227l1 1-1-1m27 1h5-5z" fill="#979494"/><path d="M789 227l3 1-3-1m38 0l6 2-6-2z" fill="#6e6b6d"/><path d="M863 227l1 1-1-1z" fill="#979494"/><path d="M979 227l3 1-3-1z" fill="#6e6b6d"/><path d="M70 228l3 1-3-1m211 0z" fill="#61d3fa"/><path d="M755 228l1 1-1-1z" fill="#6e6b6d"/><path d="M756 228l1 1-1-1zm108 0l1 1-1-1z" fill="#979494"/><path d="M984 228l3 1-3-1z" fill="#6e6b6d"/><path d="M62 229l7 1-7-1m155 0l3 1-3-1m67 0z" fill="#61d3fa"/><path d="M754 229l-1 2h2l-1-2m25 1h5-5m86-1l1 1-1-1z" fill="#979494"/><path d="M989 229l3 1-3-1z" fill="#6e6b6d"/><path d="M992 229l3 1-3-1z" fill="#979494"/><path d="M214 232l3-2-3 2z" fill="#61d3fa"/><path d="M837 230l1 1-1-1z" fill="#6e6b6d"/><path d="M866 230l1 1-1-1z" fill="#979494"/><path d="M287 231l3 2-3-2z" fill="#61d3fa"/><path d="M752 231l1 1-1-1m26 0l1 1-1-1m89 0l1 1-1-1zm-116 1l1 1-1-1m25 0l1 1-1-1z" fill="#979494"/><path d="M841 232l1 1-1-1z" fill="#6e6b6d"/><path d="M842 232l1 1-1-1m26 0l1 1-1-1zm-94 1l1 1-1-1m95 0l1 1-1-1m-833 1v460c4-8 1-22 1-31V246c0-4 1-8-1-12z" fill="#979494"/><path d="M749 234l1 1-1-1z" fill="#6e6b6d"/><path d="M773 234l1 1-1-1m72 0l1 1-1-1m25 0l1 1-1-1z" fill="#979494"/><path d="M295 235l3 2-3-2z" fill="#61d3fa"/><path d="M748 235l1 1-1-1m23 0l1 1-1-1m100 0l1 1-1-1z" fill="#979494"/><path d="M747 236l1 1-1-1z" fill="#6e6b6d"/><path d="M770 236l1 1-1-1m78 0l1 1-1-1m24 0l1 1-1-1z" fill="#979494"/><path d="M298 237l2 2v-2h-2z" fill="#61d3fa"/><path d="M747 237l1 1-1-1m22 0l1 1-1-1m80 0l2 2v-2h-2m-103 1l1 1-1-1m22 0l1 1-1-1m105 0l1 1-1-1z" fill="#979494"/><path d="M238 239c7 3 17 1 24 1-7-3-17-1-24-1z" fill="#61d3fa"/><path d="M745 239l1 1-1-1m22 0z" fill="#979494"/><path d="M851 239l1 1-1-1z" fill="#6e6b6d"/><path d="M852 239l1 1-1-1m22 0l1 1-1-1z" fill="#979494"/><path d="M234 240l3 1-3-1m29 0l3 1-3-1z" fill="#61d3fa"/><path d="M744 240l1 1-1-1z" fill="#6e6b6d"/><path d="M765 240l1 1-1-1m88 0l1 1-1-1m22 0l1 1-1-1z" fill="#979494"/><path d="M198 241l1 1-1-1m32 0l3 1-3-1m37 0l7 2c-2-2-4-2-7-2m36 0l1 1-1-1z" fill="#61d3fa"/><path d="M744 241l1 1-1-1m20 0l1 1-1-1m90 0l1 1-1-1z" fill="#979494"/><path d="M876 241l1 1-1-1z" fill="#6e6b6d"/><path d="M197 242l1 1-1-1m107 0l1 1-1-1z" fill="#61d3fa"/><path d="M743 242l1 1-1-1m112 0l1 1-1-1z" fill="#979494"/><path d="M196 243l1 1-1-1m27 0l4 1-4-1m52 0z" fill="#61d3fa"/><path d="M742 243l1 1-1-1m114 0l1 1-1-1m21 0l1 1-1-1z" fill="#979494"/><path d="M195 244l1 1-1-1m81 0l3 1-3-1z" fill="#61d3fa"/><path d="M762 244l1 1-1-1m95 0l1 1-1-1z" fill="#979494"/><path d="M194 245l1 1-1-1m86 0z" fill="#61d3fa"/><path d="M741 245l1 1-1-1m20 0l1 1-1-1m97 0l1 1-1-1m20 0l1 1-1-1z" fill="#979494"/><path d="M193 246l1 1-1-1m23 2l3-2-3 2z" fill="#61d3fa"/><path d="M760 246l1 1-1-1m99 1z" fill="#979494"/><path d="M879 246l1 1-1-1z" fill="#6e6b6d"/><path d="M192 247l1 1-1-1m92 0z" fill="#61d3fa"/><path d="M740 247l1 1-1-1m19 0l1 1-1-1m120 0l1 1-1-1z" fill="#979494"/><path d="M191 248l1 1-1-1m19 3c3 0 4-1 6-3l-6 3m76-3z" fill="#61d3fa"/><path d="M739 248l1 1-1-1z" fill="#6e6b6d"/><path d="M758 248l1 1-1-1m102 0l1 1-1-1m20 0l1 1-1-1z" fill="#979494"/><path d="M190 249l1 1-1-1m97 0l3 2-3-2z" fill="#61d3fa"/><path d="M861 249l1 1-1-1z" fill="#979494"/><path d="M189 250l1 1-1-1z" fill="#61d3fa"/><path d="M738 250l1 1-1-1z" fill="#6e6b6d"/><path d="M757 250l1 1-1-1m124 1z" fill="#979494"/><path d="M188 251l1 1-1-1m102 0l1 1-1-1z" fill="#61d3fa"/><path d="M756 251l1 1-1-1z" fill="#979494"/><path d="M187 252l1 1-1-1m22 0l1 1-1-1m82 0l1 1-1-1m23 0l1 1-1-1z" fill="#61d3fa"/><path d="M808 252l8 1-8-1z" fill="#6e6b6d"/><path d="M863 252l1 1-1-1m19 0l1 1-1-1z" fill="#979494"/><path d="M208 253l1 1-1-1m84 0l1 1-1-1z" fill="#61d3fa"/><path d="M755 253l1 1-1-1z" fill="#979494"/><path d="M801 253l3 1-3-1z" fill="#6e6b6d"/><path d="M806 253c-23 4-42 25-37 49 2 12 10 19 16 29 3 6 2 18 8 22l10 1h23c8-2 6-8 8-14l5-10c6-9 14-17 16-28 4-28-21-53-49-49z" fill="#f9fcfd"/><path d="M816 253l3 1-3-1z" fill="#979494"/><path d="M863 253l1 4-1-4m-269 1l1 507c2-4 1-9 1-13v-24l-1-89V266c0-4 1-8-1-12z" fill="#6e6b6d"/><path d="M821 254l3 1-3-1m43 0l1 1-1-1m19 1z" fill="#979494"/><path d="M206 255l1 1-1-1z" fill="#61d3fa"/><path d="M795 255l1 1-1-1zm-41 1l-1 4 1-4z" fill="#6e6b6d"/><path d="M793 256l1 1-1-1m36 0l1 1-1-1m36 0l1 1-1-1m19 1z" fill="#979494"/><path d="M204 257l1 1-1-1z" fill="#61d3fa"/><path d="M753 257l1 1-1-1m38 0l1 1-1-1m40 0l1 1-1-1z" fill="#979494"/><path d="M203 258l1 1-1-1z" fill="#61d3fa"/><path d="M789 258l1 1-1-1m44 0l1 1-1-1m33 0l2 6c1-3 0-4-2-6m19 1z" fill="#979494"/><path d="M182 259l-1 4c1-2 2-2 1-4m20 0l1 1-1-1m117 1z" fill="#61d3fa"/><path d="M787 259l1 1-1-1m48 0l1 1-1-1m-49 1l1 1-1-1m50 0l1 1-1-1z" fill="#979494"/><path d="M200 261l1 1-1-1m100 0l1 1-1-1m20 1z" fill="#61d3fa"/><path d="M784 261l1 1-1-1m54 0l1 1-1-1z" fill="#979494"/><path d="M301 262l1 1-1-1z" fill="#61d3fa"/><path d="M783 262l1 1-1-1m56 0l1 1-1-1z" fill="#979494"/><path d="M180 263l-1 3 1-3z" fill="#61d3fa"/><path d="M782 263l1 1-1-1m33 10l-4-2c-3-2-2-5 1-6h9c-3-2-8-3-11-1-6 4 1 9 5 9m25-10l1 1-1-1z" fill="#979494"/><path d="M198 264l-1 3 1-3m124 1z" fill="#61d3fa"/><path d="M781 264l1 1-1-1z" fill="#979494"/><path d="M810 265c-2 2-2 4 0 6l12 4c9 4 10 11 13 20 1 2 3 3 6 2 4-3 1-10 0-14-3-9-11-15-20-18-3-1-8-2-11 0z" fill="#4a4949"/><path d="M842 264l1 1-1-1m26 0l1 4-1-4z" fill="#6e6b6d"/><path d="M303 265l2 3-2-3z" fill="#61d3fa"/><path d="M822 265l1 1-1-1z" fill="#6e6b6d"/><path d="M823 265l1 1-1-1m20 0l1 1-1-1m26 0l1 1-1-1m18 1z" fill="#979494"/><path d="M35 266v475c5-9 2-24 2-34l-1-82V278c0-4 1-8-1-12z" fill="#6e6b6d"/><path d="M844 266l1 1-1-1z" fill="#979494"/><path d="M196 267l-1 4 1-4m49 0c4 2 10 1 15 1-4-2-10-1-15-1z" fill="#61d3fa"/><path d="M778 267l1 1-1-1m49 0l1 1-1-1z" fill="#979494"/><path d="M845 267l1 1-1-1z" fill="#6e6b6d"/><path d="M239 268l3 1-3-1z" fill="#61d3fa"/><path d="M242 268c-23 5-38 29-32 52 3 10 11 17 16 26 4 6 2 16 8 20 2 2 6 2 9 2h24c8-2 6-10 8-16l5-9c6-9 14-16 16-27 5-31-25-53-54-48z" fill="#f9fcfd"/><path d="M777 268l1 1-1-1m52 0l1 1-1-1zm-53 1l1 1-1-1m54 0l1 1-1-1m16 0l1 1-1-1zm-71 1l1 1-1-1m57 0l1 1-1-1m15 0l1 1-1-1z" fill="#979494"/><path d="M325 271l1 4c1-2 0-2-1-4z" fill="#61d3fa"/><path d="M774 271l1 1-1-1z" fill="#6e6b6d"/><path d="M833 271l1 1-1-1m15 0l1 1-1-1m23 0l1 6c1-3 0-4-1-6m18 0z" fill="#979494"/><path d="M230 272l1 1-1-1m43 0l1 1-1-1m34 1z" fill="#61d3fa"/><path d="M774 272l1 1-1-1m60 0l1 1-1-1m195 0l1 1-1-1z" fill="#979494"/><path d="M175 273l-2 9c2-3 3-6 2-9m100 0l1 1-1-1z" fill="#61d3fa"/><path d="M773 273l1 1-1-1m43 0l3 1-3-1m19 0l1 1-1-1m14 0l1 1-1-1z" fill="#979494"/><path d="M227 274l1 1-1-1m50 0l1 1-1-1z" fill="#61d3fa"/><path d="M821 274l1 1-1-1m15 0l1 1-1-1m193 0l1 1-1-1z" fill="#979494"/><path d="M226 275l1 1-1-1m52 0l1 1-1-1m49 0l2 10c1-4 0-7-2-10z" fill="#61d3fa"/><path d="M772 275l1 1-1-1m51 0l1 1-1-1m14 0l1 1-1-1z" fill="#979494"/><path d="M224 276l1 1-1-1m56 0l1 1-1-1z" fill="#61d3fa"/><path d="M824 276l1 1-1-1m27 0l1 1-1-1z" fill="#979494"/><path d="M223 277l1 1-1-1m28 0l10 2c-3-2-6-2-10-2m30 0l1 1-1-1z" fill="#61d3fa"/><path d="M771 277l1 1-1-1m55 0l1 1-1-1m12 0l1 1-1-1z" fill="#979494"/><path d="M222 278l1 1-1-1z" fill="#61d3fa"/><path d="M251 279c-2 1-2 5 0 6 1 2 5 1 7 2l9 5c7 5 6 11 10 18 1 2 3 2 5 1 4-3 2-10 0-13-3-10-10-16-20-19-3-1-8-2-11 0z" fill="#01bdfd"/><path d="M282 278l1 1-1-1m27 1z" fill="#61d3fa"/><path d="M827 278l1 1-1-1m12 0l1 1-1-1m13 0l1 1-1-1m21 0z" fill="#979494"/><path d="M221 279l1 1-1-1m28 0l1 1-1-1m34 0l1 1-1-1z" fill="#61d3fa"/><path d="M770 279l1 1-1-1m58 0l1 1-1-1z" fill="#979494"/><path d="M220 280l1 1-1-1m64 0l1 1-1-1m26 1z" fill="#61d3fa"/><path d="M746 280l-1 9c2-3 2-6 1-9z" fill="#6e6b6d"/><path d="M829 280l1 1-1-1m11 0l1 1-1-1m51 1z" fill="#979494"/><path d="M219 281l1 1-1-1m66 0l1 1-1-1z" fill="#61d3fa"/><path d="M830 281l1 1-1-1z" fill="#979494"/><path d="M190 282l-2 9c2-3 3-6 2-9m28 0l1 1-1-1m68 0l1 1-1-1z" fill="#61d3fa"/><path d="M841 282l1 1-1-1m33 0z" fill="#979494"/><path d="M217 283l1 1-1-1m54 0l1 1-1-1m16 0l1 1-1-1m24 1z" fill="#61d3fa"/><path d="M727 283l-2 17c2-4 4-13 2-17z" fill="#6e6b6d"/><path d="M831 283l1 1-1-1z" fill="#979494"/><path d="M216 284l1 1-1-1m56 0l1 1-1-1m16 0l1 1-1-1zm-14 1l1 1-1-1m56 0z" fill="#61d3fa"/><path d="M832 285l1 1-1-1z" fill="#979494"/><path d="M874 285l1 10c1-3 1-7-1-10z" fill="#6e6b6d"/><path d="M215 286l1 1-1-1m36 0l5 1-5-1m24 0l1 1-1-1z" fill="#61d3fa"/><path d="M893 286l1 13c2-4 1-9-1-13z" fill="#6e6b6d"/><path d="M214 287l1 1-1-1m42 0l6 2c-2-2-3-2-6-2m20 0l1 1-1-1m14 0l1 1-1-1zm-13 1l1 1-1-1m54 0l1 8c1-3 1-5-1-8z" fill="#61d3fa"/><path d="M855 288v12c2-4 2-8 0-12z" fill="#979494"/><path d="M263 289l1 1-1-1m50 1zm-48 0l1 1-1-1m1 1l1 1-1-1m13 0l1 1-1-1z" fill="#61d3fa"/><path d="M744 291l-1 10c2-3 2-7 1-10z" fill="#6e6b6d"/><path d="M268 292l1 1-1-1m46 0zm-45 1l1 1-1-1zm1 1l1 1-1-1m24 1z" fill="#61d3fa"/><path d="M835 296l1 1-1-1z" fill="#979494"/><path d="M842 296l1 1-1-1m34 0z" fill="#6e6b6d"/><path d="M272 297l1 1-1-1m43 0l1 12c2-4 1-8-1-12z" fill="#61d3fa"/><path d="M841 297l1 1-1-1zm-4 1l4 1-4-1z" fill="#979494"/><path d="M186 299l-3 19v63c2-5 1-12 1-17v-39c1-7 5-19 2-26zm110 3v12c2-4 2-8 0-12z" fill="#61d3fa"/><path d="M742 302v65c2-5 1-11 1-16v-32c0-5 1-12-1-17m26 1zm109 0v64c2-5 1-11 1-16v-31c0-5 1-12-1-17zm-153 3l1 1-1-1m171 0l1 1-1-1zm-172 1l1 1-1-1zm173 0l1 1-1-1m-174 1z" fill="#979494"/><path d="M712 310h5-5z" fill="#6e6b6d"/><path d="M717 309l4 1-4-1m53 0l1 1-1-1m128 0l3 1-3-1z" fill="#979494"/><path d="M283 310l1 1-1-1m34 0l1 71c2-5 1-13 1-19v-33c0-6 1-13-2-19zm-41 1l1 1-1-1z" fill="#61d3fa"/><path d="M711 311l1 1-1-1m60 0l1 1-1-1m135 0z" fill="#979494"/><path d="M277 312l5 1-5-1z" fill="#61d3fa"/><path d="M710 312l1 1-1-1m141 0l1 1-1-1m57 0l1 1-1-1zm-200 1l1 1-1-1m64 0l1 1-1-1m138 0zm-203 1l1 1-1-1m143 0l1 1-1-1m61 0l1 1-1-1zm-205 1l1 1-1-1m67 0l1 1-1-1m76 0l1 1-1-1m63 0l1 1-1-1z" fill="#979494"/><path d="M705 316l1 1-1-1z" fill="#6e6b6d"/><path d="M913 316l1 1-1-1m-208 1l1 1-1-1m69 0l1 1-1-1m74 0l1 1-1-1m66 0l1 1-1-1z" fill="#979494"/><path d="M295 318l-1 4 1-4z" fill="#61d3fa"/><path d="M704 318l1 1-1-1m71 0l1 1-1-1m72 0l1 1-1-1m68 0l1 1-1-1m-212 1l1 1-1-1m73 0l1 1-1-1z" fill="#979494"/><path d="M165 320l1 1-1-1z" fill="#61d3fa"/><path d="M846 320l1 1-1-1z" fill="#6e6b6d"/><path d="M916 320l1 1-1-1z" fill="#979494"/><path d="M164 321l1 1-1-1z" fill="#61d3fa"/><path d="M777 321l1 1-1-1z" fill="#6e6b6d"/><path d="M845 321l1 1-1-1zm-67 1l1 1-1-1m66 0l1 1-1-1m73 0l1 1-1-1z" fill="#979494"/><path d="M158 323l4 1-4-1m181 0l3 1-3-1z" fill="#61d3fa"/><path d="M779 323l1 1-1-1m64 0l1 1-1-1m75 0v38l1-11c0-8 2-20-1-27z" fill="#979494"/><path d="M151 327l6-2c-3-1-4 0-6 2m191-3l3 1-3-1z" fill="#61d3fa"/><path d="M780 324l1 1-1-1m62 0l1 1-1-1z" fill="#979494"/><path d="M345 325l3 1-3-1z" fill="#61d3fa"/><path d="M841 325l1 1-1-1zm-141 1v32c3-6 1-15 1-22l-1-10m81 0l1 1-1-1z" fill="#979494"/><path d="M213 327l1 1-1-1m78 0l1 1-1-1m60 0z" fill="#61d3fa"/><path d="M782 327l1 1-1-1m58 0l1 1-1-1m-57 1l1 1-1-1m56 0l1 1-1-1z" fill="#979494"/><path d="M214 329l1 1-1-1m76 0l1 1-1-1m-75 1l1 1-1-1z" fill="#61d3fa"/><path d="M784 330l1 1-1-1m54 0l1 1-1-1z" fill="#979494"/><path d="M146 331l1 1-1-1m143 0l1 1-1-1z" fill="#61d3fa"/><path d="M837 331l1 1-1-1z" fill="#979494"/><path d="M145 332l-1 3 1-3m71 0l1 1-1-1m72 0l1 1-1-1z" fill="#61d3fa"/><path d="M785 332l1 1-1-1z" fill="#979494"/><path d="M217 333l1 1-1-1z" fill="#61d3fa"/><path d="M836 333l1 1-1-1zm-50 1l1 1-1-1z" fill="#979494"/><path d="M286 335l1 1-1-1z" fill="#61d3fa"/><path d="M835 335l1 1-1-1z" fill="#979494"/><path d="M285 336l1 1-1-1m73 0c2 13 1 26 1 39 3-8 1-20 1-28 0-4 0-8-2-11m-138 1l1 1-1-1m64 0l1 1-1-1zm-63 1l1 1-1-1m62 0l1 1-1-1z" fill="#61d3fa"/><path d="M597 338v12c2-4 2-8 0-12z" fill="#6e6b6d"/><path d="M222 339l1 1-1-1m60 0l1 1-1-1zm-141 2v31c2-6 1-15 1-21l-1-10m82 0l1 1-1-1m1 1l1 1-1-1m56 0l1 1-1-1m-55 2l1 1-1-1z" fill="#61d3fa"/><path d="M1029 344l1 1-1-1z" fill="#6e6b6d"/><path d="M278 345l1 1-1-1z" fill="#61d3fa"/><path d="M1029 346v68c2-5 1-11 1-16v-34c0-6 1-13-1-18z" fill="#979494"/><path d="M277 347l-1 3 1-3z" fill="#61d3fa"/><path d="M470 347v58c2-5 1-11 1-16v-28c0-5 1-10-1-14z" fill="#979494"/><path d="M471 347v58c-2-6-1-13-1-20v-37c-3 8-1 20-1 29v64c5-6 3-16 3-23v-49c0-7 2-16-1-22zm556 1v104h3l-1-104h-2z" fill="#6e6b6d"/><path d="M832 349l1 1-1-1zm-42 1l1 1-1-1z" fill="#979494"/><path d="M597 351v11c2-4 2-8 0-11z" fill="#6e6b6d"/><path d="M831 351l1 1-1-1m-39 1l1 1-1-1m38 0l1 1-1-1zm-37 1l1 1-1-1m35 0l1 1-1-1m-33 1c4 2 8 1 12 1h20c-4-2-8-1-12-1h-20zm-2 2l-1 2 1-2z" fill="#979494"/><path d="M794 357c-3 2-1 6 2 7 7 2 16 0 23 0 3 0 6 1 8-2 3-3 0-5-3-6h-21c-3 0-6-1-9 1z" fill="#f9fcfd"/><path d="M827 356l1 1-1-1m1 1l1 1-1-1zm-127 4l1 1-1-1zm1 1l1 1-1-1z" fill="#979494"/><path d="M792 362l1 1-1-1z" fill="#6e6b6d"/><path d="M828 362l1 1-1-1m89 0l1 1-1-1z" fill="#979494"/><path d="M273 363l1 1-1-1m113 1l4 1-4-1z" fill="#61d3fa"/><path d="M671 363c-10 18-23 34-34 51-3 5-12 14-12 20s9 16 12 21l34 50 4-2c-3-8-9-14-13-21l-20-29c-3-5-11-13-11-19s9-15 12-20l21-31c4-6 9-11 11-18l-4-2z" fill="#f9fcfd"/><path d="M793 363l1 1-1-1z" fill="#6e6b6d"/><path d="M827 363l1 1-1-1m89 1z" fill="#979494"/><path d="M231 364l1 1-1-1z" fill="#61d3fa"/><path d="M385 365c2 7 7 12 11 18l21 32c4 5 12 13 12 19s-8 14-11 19l-22 32c-4 6-9 11-11 18 5 1 7-3 10-7l15-23 18-26c2-3 6-8 7-12 1-6-8-15-11-19l-35-52-4 1z" fill="#f9fcfd"/><path d="M670 364l1 1-1-1m3 0l1 1-1-1m30 1z" fill="#979494"/><path d="M795 364c4 2 8 1 12 1h20c-4-2-8-1-12-1h-20z" fill="#6e6b6d"/><path d="M232 365l1 1-1-1m40 0l1 1-1-1m112 1z" fill="#61d3fa"/><path d="M793 366c11 2 23 0 34 0-4-2-8-1-12-1-7 0-15-1-22 1m122-1l1 1-1-1z" fill="#979494"/><path d="M271 366l1 1-1-1m119 0l1 1-1-1z" fill="#61d3fa"/><path d="M704 366l1 1-1-1z" fill="#979494"/><path d="M794 367c-3 2-1 5 2 6h22c3 0 6 1 9-1s1-5-2-6h-21c-3 0-7-1-10 1z" fill="#f9fcfd"/><path d="M914 366l1 1-1-1z" fill="#979494"/><path d="M234 367l-1 9 4-5c3-2 7-1 10-1 7 0 15-1 22 1v-3c-12 0-24 1-35-1m151 0l1 1-1-1m6 0l1 1-1-1z" fill="#61d3fa"/><path d="M668 367l1 1-1-1m6 0l1 1-1-1m31 0l1 1-1-1m-32 1l1 1-1-1m33 0l1 1-1-1zm207 0l1 1-1-1z" fill="#979494"/><path d="M386 369l1 1-1-1m6 0l1 1-1-1z" fill="#61d3fa"/><path d="M912 369l1 1-1-1z" fill="#979494"/><path d="M234 377h24c3 0 7 1 10-1 2-1 2-3 0-5s-7-1-10-1c-8 0-23-4-24 7z" fill="#f9fcfd"/><path d="M387 370l1 1-1-1m6 0l1 1-1-1z" fill="#61d3fa"/><path d="M666 370l1 1-1-1m42 0l1 1-1-1m32 0l1 1-1-1m139 0l1 1-1-1m31 0l1 1-1-1z" fill="#979494"/><path d="M911 370l1 1-1-1z" fill="#6e6b6d"/><path d="M671 371l1 1-1-1m38 0l1 1-1-1m30 0l1 1-1-1m53 0l1 1-1-1m36 0l1 1-1-1m52 0l1 1-1-1m29 0l1 1-1-1z" fill="#979494"/><path d="M394 372l1 1-1-1z" fill="#61d3fa"/><path d="M710 372l1 1-1-1z" fill="#6e6b6d"/><path d="M738 372l1 1-1-1m55 0l1 1-1-1m34 0l1 1-1-1m54 0l1 1-1-1m26 0l1 1-1-1z" fill="#979494"/><path d="M142 373l1 4c1-2 0-2-1-4m247 0l1 1-1-1m6 0l1 1-1-1z" fill="#61d3fa"/><path d="M664 373l1 1-1-1z" fill="#979494"/><path d="M670 373l1 1-1-1z" fill="#6e6b6d"/><path d="M737 373l1 1-1-1z" fill="#979494"/><path d="M794 373c4 2 8 1 13 1h20c-4-2-8-1-12-1h-21z" fill="#6e6b6d"/><path d="M882 373l1 1-1-1m20 1h5-5z" fill="#979494"/><path d="M390 374l1 1-1-1z" fill="#61d3fa"/><path d="M663 374l1 1-1-1z" fill="#6e6b6d"/><path d="M669 374l1 1-1-1m132 0c6 3 15 1 21 1-6-2-15-1-21-1m83 0z" fill="#979494"/><path d="M358 375l-1 3 1-3m38 0l1 1-1-1z" fill="#61d3fa"/><path d="M717 375c5 2 12 1 17 1-5-2-12-1-17-1m81 0l1 1-1-1z" fill="#979494"/><path d="M800 376c-3 2-1 5 1 6h16l5-1c3-2 1-5-1-6h-16l-5 1z" fill="#f9fcfd"/><path d="M823 375l1 1-1-1m62 0c5 2 12 1 17 1-5-2-12-1-17-1z" fill="#979494"/><path d="M269 376l1 1-1-1m122 0l1 1-1-1m6 0l1 1-1-1z" fill="#61d3fa"/><path d="M662 376l1 1-1-1z" fill="#979494"/><path d="M668 376l1 1-1-1z" fill="#6e6b6d"/><path d="M235 377c4 2 8 1 12 1h21c-4-2-8-1-12-1h-21m157 0l1 1-1-1z" fill="#61d3fa"/><path d="M661 377l1 1-1-1z" fill="#6e6b6d"/><path d="M667 377l1 1-1-1m130 0z" fill="#979494"/><path d="M398 378l1 1-1-1m-163 1c4 2 8 1 12 1h21c-4-2-8-1-12-1h-21m158 0l1 1-1-1m6 0l1 1-1-1z" fill="#61d3fa"/><path d="M234 380v7h28c3 0 8 0 8-4-1-4-6-3-9-3h-27z" fill="#f9fcfd"/><path d="M355 380l1 1-1-1m39 0l1 1-1-1z" fill="#61d3fa"/><path d="M659 380l1 1-1-1z" fill="#6e6b6d"/><path d="M665 380l1 1-1-1z" fill="#979494"/><path d="M146 381l1 1-1-1m208 0l1 1-1-1m46 0l1 1-1-1z" fill="#61d3fa"/><path d="M798 381l1 1-1-1m25 0l1 1-1-1z" fill="#979494"/><path d="M147 382l1 1-1-1m206 0l1 1-1-1m42 0l1 1-1-1m6 0l1 1-1-1z" fill="#61d3fa"/><path d="M658 382l1 1-1-1m141 0c7 3 17 1 24 1-7-3-17-1-24-1z" fill="#979494"/><path d="M148 383l1 1-1-1m204 0l1 1-1-1m44 0l1 1-1-1z" fill="#61d3fa"/><path d="M657 383l1 1-1-1m6 0l1 1-1-1z" fill="#979494"/><path d="M149 384l3 2-3-2m32 0l1 1-1-1m139 0l1 1-1-1m31 0l1 1-1-1m51 0l1 1-1-1m-222 1l1 1-1-1m217 0l1 1-1-1m6 0l1 1-1-1z" fill="#61d3fa"/><path d="M656 385l1 1-1-1z" fill="#979494"/><path d="M179 386l1 1-1-1m89 0l1 1-1-1m79 0v2l2-2h-2m51 0l1 1-1-1z" fill="#61d3fa"/><path d="M655 386l1 1-1-1m6 0l1 1-1-1z" fill="#979494"/><path d="M178 387l1 1-1-1m57 0l5 1-2 6c4-6 10-5 17-5 3 0 6-1 8 2 4 4-5 5-7 5h-7l-10-1c6 4 31 5 25-7h4c-4-2-8-1-12-1h-21m-80 1l3 1-3-1m20 0l3 1-3-1m168 0l3 1-3-1m56 0l1 1-1-1m6 0l1 1-1-1z" fill="#61d3fa"/><path d="M597 388c0 5-1 11 1 16 2-5 1-12-1-16z" fill="#6e6b6d"/><path d="M158 389c5 2 12 1 17 1-5-2-12-1-17-1z" fill="#61d3fa"/><path d="M241 390c-3 2-1 5 1 6h16l5-1c3-2 1-5-1-6h-16l-5 1z" fill="#f9fcfd"/><path d="M326 389c5 2 11 1 16 1-5-2-11-1-16-1m74 0l1 1-1-1m6 0l1 1-1-1z" fill="#61d3fa"/><path d="M653 389l1 1-1-1m6 0l1 1-1-1z" fill="#979494"/><path d="M401 391l1 1-1-1m6 0l1 1-1-1m-5 1l1 1-1-1m6 0l1 1-1-1z" fill="#61d3fa"/><path d="M651 392l1 1-1-1m6 0l1 1-1-1z" fill="#979494"/><path d="M403 394l1 1-1-1m6 0l1 1-1-1m-5 1l1 1-1-1m6 0l1 1-1-1z" fill="#61d3fa"/><path d="M649 395l1 1-1-1m6 0l1 1-1-1z" fill="#979494"/><path d="M405 397l1 1-1-1m6 0l1 1-1-1m-5 1l1 1-1-1m6 0l1 1-1-1z" fill="#61d3fa"/><path d="M647 398l1 1-1-1m6 0l1 1-1-1z" fill="#979494"/><path d="M407 400l1 1-1-1m6 0l1 1-1-1m-5 1l1 1-1-1m6 0l1 1-1-1z" fill="#61d3fa"/><path d="M645 401l1 1-1-1m6 0l1 1-1-1z" fill="#979494"/><path d="M409 403l1 1-1-1m6 0l1 1-1-1m-5 1l1 1-1-1m6 0l1 1-1-1z" fill="#61d3fa"/><path d="M643 404l1 1-1-1m6 0l1 1-1-1z" fill="#979494"/><path d="M411 406l1 1-1-1m6 0l1 1-1-1m-5 1l1 1-1-1m6 0l1 1-1-1z" fill="#61d3fa"/><path d="M641 407l1 1-1-1m6 0l1 1-1-1z" fill="#979494"/><path d="M413 409l1 1-1-1m6 0l1 1-1-1m-5 1l1 1-1-1m6 0l1 1-1-1z" fill="#61d3fa"/><path d="M639 410l1 1-1-1m6 0l1 1-1-1m-1 1l1 1-1-1z" fill="#979494"/><path d="M415 412l1 1-1-1m6 0l1 1-1-1m-5 1l1 1-1-1m6 0l1 1-1-1z" fill="#61d3fa"/><path d="M637 413l1 1-1-1z" fill="#979494"/><path d="M643 413l1 1-1-1z" fill="#6e6b6d"/><path d="M642 414l1 1-1-1z" fill="#979494"/><path d="M423 415l1 1-1-1m-5 1l1 1-1-1m6 0l1 1-1-1z" fill="#61d3fa"/><path d="M635 416l1 1-1-1z" fill="#979494"/><path d="M641 416l1 1-1-1z" fill="#6e6b6d"/><path d="M640 417l1 1-1-1z" fill="#979494"/><path d="M425 418l1 1-1-1m-5 1l1 1-1-1m6 0l1 1-1-1z" fill="#61d3fa"/><path d="M633 419l1 1-1-1z" fill="#979494"/><path d="M639 419l1 1-1-1m-7 1l1 1-1-1z" fill="#6e6b6d"/><path d="M638 420l1 1-1-1z" fill="#979494"/><path d="M427 421l1 1-1-1m-5 1l1 1-1-1m6 0l1 1-1-1z" fill="#61d3fa"/><path d="M631 422l1 1-1-1z" fill="#979494"/><path d="M423 423l1 1-1-1z" fill="#61d3fa"/><path d="M630 423l1 1-1-1z" fill="#6e6b6d"/><path d="M636 423l1 1-1-1z" fill="#979494"/><path d="M429 424l1 1-1-1m-5 1l1 1-1-1m6 0l1 1-1-1z" fill="#61d3fa"/><path d="M629 425l1 1-1-1z" fill="#979494"/><path d="M425 426l1 1-1-1z" fill="#61d3fa"/><path d="M628 426l1 1-1-1z" fill="#6e6b6d"/><path d="M634 426l1 1-1-1z" fill="#979494"/><path d="M431 427l1 1-1-1m-5 1l1 1-1-1m6 0l1 1-1-1z" fill="#61d3fa"/><path d="M627 428l1 1-1-1z" fill="#979494"/><path d="M427 429l1 1-1-1z" fill="#61d3fa"/><path d="M626 429l1 1-1-1m6 0l1 1-1-1z" fill="#979494"/><path d="M433 430l1 1-1-1m-5 1l1 1-1-1m6 0l1 1-1-1m-5 1l1 1-1-1z" fill="#61d3fa"/><path d="M624 432l1 1-1-1m6 0l1 1-1-1z" fill="#979494"/><path d="M429 435l1 1-1-1m6 0l1 1-1-1z" fill="#61d3fa"/><path d="M624 435l1 1-1-1z" fill="#979494"/><path d="M630 435l1 1-1-1z" fill="#6e6b6d"/><path d="M275 442l-3-2v-2c2 0 3 0 4 2 1-5-6-4-3 0l2 2m153-6l1 1-1-1m6 0l1 1-1-1z" fill="#61d3fa"/><path d="M272 438v2l4 1v-4l-4 1z" fill="#f9fcfd"/><path d="M631 437l1 1-1-1z" fill="#979494"/><path d="M427 438l1 1-1-1m6 0l1 1-1-1z" fill="#61d3fa"/><path d="M626 438l1 1-1-1m6 0l1 1-1-1z" fill="#979494"/><path d="M426 439l1 1-1-1m6 0l1 1-1-1z" fill="#61d3fa"/><path d="M814 444l1-4h4c-3-1-4 1-5 4z" fill="#979494"/><path d="M815 440v4h4v-4h-4z" fill="#f9fcfd"/><path d="M425 441l1 1-1-1m6 0l1 1-1-1z" fill="#61d3fa"/><path d="M628 441l1 1-1-1m6 0l1 1-1-1z" fill="#979494"/><path d="M797 441c0 3 0 5-3 7v3h3c0 6-2 16 4 20l9 1v-4c-11 2-9-10-9-17h9v-3h-9v-7h-4z" fill="#f9fcfd"/><path d="M801 441v7h9l-8-1-1-6z" fill="#979494"/><path d="M424 442l1 1-1-1m6 0l1 1-1-1m-7 2l1 1-1-1m6 0l1 1-1-1z" fill="#61d3fa"/><path d="M630 444l1 1-1-1m6 0l1 1-1-1z" fill="#979494"/><path d="M177 481h4c0-4 0-7 2-10l-3-1v10h-2v-23c0-3-1-7 2-9 2-3 6-2 9-2-3-1-10-2-11 2-2 3-1 8-1 11v22m29-35l3 4-2-3 9-1h-10m22 9c3-5 5-9 12-9-7-3-12 3-12 9m25-9h8-8m59 0h7-7m110-1l1 1-1-1m6 0l1 1-1-1z" fill="#61d3fa"/><path d="M178 480h2v-10c4 2 9 3 13 1 7-4 8-15 3-21-3-3-13-7-17-2l-1 6v26zm29-31c7-1 12 0 13 8-4 0-9-1-12 1-5 3-5 10 0 13 4 2 10 1 14 0 0-6 2-15-1-21-2-5-11-6-14-1zm22 19c2 6 14 5 16-1 1-7-7-8-11-12-3-4 1-7 5-6h5v-3c-5 0-19 1-13 10 2 4 8 4 10 8 3 7-9 5-12 4m21 1c4 5 16 3 16-4 0-6-8-6-11-10s2-7 5-7l4 1c-4-5-15-3-14 4 1 6 8 6 11 10 3 5-3 7-6 7l-5-1z" fill="#f9fcfd"/><path d="M262 446v3c3 1 3-1 3-3h-3m10 0c0 6-3 24 4 26v-26h-4m9 0c0 5 2 10 4 15 1-5-4-9-1-14l-3-1z" fill="#61d3fa"/><path d="M299 446l-6 21h-2c-2-5-4-19-9-20 1 8 5 16 8 24 7-2 11-18 12-25h-3zm26 23c-8 0-14-1-16-10h18c0-3 0-7-3-10-6-7-17-1-18 8s11 22 19 12z" fill="#f9fcfd"/><path d="M752 446l8 1-8-1m29 0l6 1-6-1m77 0l7 1-7-1z" fill="#6e6b6d"/><path d="M219 447l1 1-1-1z" fill="#61d3fa"/><path d="M273 447v24h2v-24h-2z" fill="#f9fcfd"/><path d="M322 447l1 1-1-1m99 0l1 1-1-1m6 0l1 1-1-1z" fill="#61d3fa"/><path d="M632 447l1 1-1-1m6 0l1 1-1-1m111 0l4 1-4-1z" fill="#979494"/><path d="M749 448v4c6-2 11-3 14 4l-11 1c-11 6 1 20 10 12l5 2c0-9 3-23-10-24l-8 1z" fill="#f9fcfd"/><path d="M760 447l3 1-3-1z" fill="#979494"/><path d="M792 466c-3 1-7 3-10 2-7-4-6-16 2-17 3-1 6 1 8 2-1-6-8-8-13-5-4 3-6 8-6 12s2 9 6 11c5 2 12 1 13-5z" fill="#f9fcfd"/><path d="M794 447l3 1-3-1m20 25h5l-4-1v-23h4c-4-1-5 1-5 5v19m10-23l5-1c-2-1-3-1-5 1m18-2l5 1-5-1zm15 0l1 1-1-1z" fill="#979494"/><path d="M871 467c-8 2-14 2-17-7h18c0-4-1-8-3-10-8-7-18 0-19 9 0 4 2 9 6 12 5 2 13 2 15-4z" fill="#f9fcfd"/><path d="M194 448l1 1-1-1m16 0l6 1-6-1m10 0l1 1-1-1m15 0l5 1-5-1m16 0l1 1-1-1m4 0l6 1-6-1m54 0l1 1-1-1m6 0l4 1-4-1m9 0l1 1-1-1m96 0l1 1-1-1m6 0l1 1-1-1z" fill="#61d3fa"/><path d="M764 448l1 1-1-1m14 0l1 1-1-1m13 0l1 1-1-1z" fill="#979494"/><path d="M815 448v23h4v-23h-4m10 0l8 23c8-1 12-16 14-23h-5l-5 18c-5-5-4-17-12-18z" fill="#f9fcfd"/><path d="M855 448l1 1-1-1m12 0l1 1-1-1z" fill="#979494"/><path d="M180 449c0 6-2 17 4 20-5-6-1-13-4-20z" fill="#61d3fa"/><path d="M181 449v16c2 4 7 5 11 2 5-4 4-15-3-17l-8-1z" fill="#01bdfd"/><path d="M195 449l1 1-1-1m22 0l1 1-1-1m16 0l1 1-1-1m21 0l1 1-1-1m59 0l-4 8h15l-1-6v5h-12l2-7z" fill="#61d3fa"/><path d="M311 456h12c-1-9-11-9-12 0z" fill="#01bdfd"/><path d="M320 449l1 1-1-1z" fill="#61d3fa"/><path d="M765 449l1 1-1-1m64 0l1 1-1-1m17 0l1 1-1-1m8 0l1 1-1-1z" fill="#979494"/><path d="M869 449l1 1-1-1z" fill="#6e6b6d"/><path d="M191 450l1 1-1-1m5 0l1 1-1-1m22 0l1 1-1-1m4 0v21c2-5 2-16 0-21m79 0l-3 9c2-3 4-6 3-9m118 0l1 1-1-1m6 0l1 1-1-1z" fill="#61d3fa"/><path d="M634 450l1 1-1-1m6 0l1 1-1-1m113 0l7 1-7-1m29 0l5 1-5-1m59 0l1 1-1-1m12 0l1 1-1-1m6 0l5 1-5-1z" fill="#979494"/><path d="M1022 450v115c4-9 0-22 1-31 2-28 1-56 1-84h-2z" fill="#6e6b6d"/><path d="M193 451l1 1-1-1m4 0l1 1-1-1m221 0l1 1-1-1m6 0l1 1-1-1z" fill="#61d3fa"/><path d="M750 451l1 1-1-1m11 0l1 1-1-1m14 0l1 1-1-1m13 0l1 1-1-1z" fill="#979494"/><path d="M794 451l3 1-3-1z" fill="#6e6b6d"/><path d="M801 451v15c2-4 2-11 0-15z" fill="#979494"/><path d="M802 451l8 1-8-1m28 0l1 1-1-1z" fill="#6e6b6d"/><path d="M852 451l1 1-1-1m5 0l-1 2 1-2z" fill="#979494"/><path d="M855 457h12c-1-8-10-7-12 0z" fill="#4a4949"/><path d="M865 451l1 1-1-1m5 0l1 1-1-1z" fill="#979494"/><path d="M219 452v4h-10l11 1-1-5m67 1z" fill="#61d3fa"/><path d="M767 452v20c2-5 2-15 0-20z" fill="#6e6b6d"/><path d="M779 452l1 1-1-1m11 0l1 1-1-1m40 0l1 1-1-1m15 0l1 1-1-1m21 0l1 1-1-1z" fill="#979494"/><path d="M194 453l1 9c1-3 1-6-1-9m4 0v12c3-4 3-8 0-12m129 0v6h-18v4l1-3h18l-1-7m90 0l1 1-1-1m6 0l1 1-1-1z" fill="#61d3fa"/><path d="M470 453v2h2v-2h-2z" fill="#6e6b6d"/><path d="M636 453l1 1-1-1m6 0l1 1-1-1m184 0l1 1-1-1m14 0l1 1-1-1m11 0l1 1-1-1m20 1z" fill="#979494"/><path d="M1027 453v2h2v-2h-2z" fill="#1f1d1d"/><path d="M416 454l1 1-1-1m6 0l1 1-1-1z" fill="#61d3fa"/><path d="M778 454l1 1-1-1m66 0l1 1-1-1m23 0zm162 0l1 1-1-1z" fill="#979494"/><path d="M250 455l1 1-1-1m4 0l1 1-1-1m51 0z" fill="#61d3fa"/><path d="M756 455l7 1-7-1zm83 0l1 1-1-1z" fill="#6e6b6d"/><path d="M230 456l1 1-1-1m185 0l1 1-1-1z" fill="#61d3fa"/><path d="M638 456l1 1-1-1m6 0l1 1-1-1m109 0l1 1-1-1m24 0z" fill="#979494"/><path d="M231 457l1 1-1-1m183 0l1 1-1-1m6 0l1 1-1-1z" fill="#61d3fa"/><path d="M639 457l1 1-1-1m112 0l1 1-1-1m81 0l1 1-1-1m11 0l1 1-1-1z" fill="#979494"/><path d="M206 458l1 1-1-1m26 0l1 1-1-1m29 0z" fill="#61d3fa"/><path d="M749 458l1 1-1-1m79 0l1 1-1-1z" fill="#979494"/><path d="M838 458l1 1-1-1z" fill="#6e6b6d"/><path d="M205 459l1 1-1-1m5 0l8 1-8-1m32 0l1 1-1-1m21 0l1 1-1-1m150 0l1 1-1-1z" fill="#61d3fa"/><path d="M640 459l1 1-1-1m6 0l1 1-1-1m102 0l1 1-1-1m8 0l5 1-5-1z" fill="#979494"/><path d="M828 459l1 1-1-1m5 0l1 1-1-1z" fill="#6e6b6d"/><path d="M838 459l1 1-1-1m4 0l1 1-1-1z" fill="#979494"/><path d="M219 469v-9c-3 0-7-1-9 1-7 6 6 8 9 8z" fill="#01bdfd"/><path d="M243 460l1 1-1-1m21 0l1 1-1-1m148 0l1 1-1-1m6 0l1 1-1-1z" fill="#61d3fa"/><path d="M641 460l1 1-1-1m113 0l1 1-1-1z" fill="#979494"/><path d="M763 460h-5l-3 1c-8 4 4 11 7 4l1-5z" fill="#4a4949"/><path d="M833 460l1 1-1-1m21 0z" fill="#979494"/><path d="M239 461l1 1-1-1m5 0l1 1-1-1m21 0l1 1-1-1m152 0l1 1-1-1z" fill="#61d3fa"/><path d="M747 461l1 1-1-1m5 0l1 1-1-1m77 0l1 1-1-1m8 0l1 1-1-1m4 1z" fill="#979494"/><path d="M261 462l1 1-1-1m150 0l1 1-1-1z" fill="#61d3fa"/><path d="M642 462l1 1-1-1m6 0l1 1-1-1z" fill="#979494"/><path d="M410 463l1 1-1-1m6 0l1 1-1-1z" fill="#61d3fa"/><path d="M773 463l1 1-1-1m57 0l1 1-1-1m4 0l1 1-1-1m16 0l1 1-1-1z" fill="#979494"/><path d="M415 464l1 1-1-1z" fill="#61d3fa"/><path d="M836 464l-1 2h2l-1-2m4 0l1 1-1-1m15 0l1 1-1-1z" fill="#979494"/><path d="M292 465l-1 2h2l-1-2m117 0l1 1-1-1z" fill="#61d3fa"/><path d="M644 465l1 1-1-1m6 0l1 1-1-1z" fill="#979494"/><path d="M193 466l1 1-1-1m118 0l1 1-1-1m97 0l1 1-1-1m6 0l1 1-1-1z" fill="#61d3fa"/><path d="M645 466l1 1-1-1m106 0l1 1-1-1m11 0l1 1-1-1m12 0l1 1-1-1m5 0l1 1-1-1m11 0l1 1-1-1m41 0l1 1-1-1m8 0l1 1-1-1m12 0l1 1-1-1z" fill="#979494"/><path d="M869 466l1 1-1-1z" fill="#6e6b6d"/><path d="M870 466l1 4c1-2 1-3-1-4z" fill="#979494"/><path d="M192 467l1 1-1-1m4 0l1 1-1-1m8 0v2h2l-2-2m4 0l1 1-1-1m33 0l1 1-1-1m67 0l1 1-1-1m4 0l1 1-1-1m101 0l1 1-1-1z" fill="#61d3fa"/><path d="M747 467l1 1-1-1m5 0l1 1-1-1m8 0l1 1-1-1m20 0l1 1-1-1m9 0l1 1-1-1m13 0l1 1-1-1m50 0l1 1-1-1m6 0l1 1-1-1z" fill="#979494"/><path d="M867 467l1 1-1-1z" fill="#6e6b6d"/><path d="M868 467l1 1-1-1z" fill="#979494"/><path d="M209 468c3 2 6 2 10 2l-10-2m35 0l1 1-1-1m5 3l3-2c-2-1-3 0-3 2m16-3l1 1-1-1m57 0l3 3c1-3-1-3-3-3m85 0l1 1-1-1z" fill="#61d3fa"/><path d="M652 468l1 1-1-1z" fill="#979494"/><path d="M754 468l4 1-4-1z" fill="#6e6b6d"/><path d="M758 468l1 1-1-1m17 0l1 1-1-1m7 0l5 1-5-1z" fill="#979494"/><path d="M804 468l4 1-4-1z" fill="#6e6b6d"/><path d="M808 468l1 1-1-1zm24 0l1 1-1-1z" fill="#979494"/><path d="M860 468l5 1-5-1z" fill="#6e6b6d"/><path d="M865 468l1 1-1-1z" fill="#979494"/><path d="M232 469l6 1-6-1m21 0l6 1-6-1m11 0l1 1-1-1m142 0l1 1-1-1m6 0l1 1-1-1z" fill="#61d3fa"/><path d="M647 469l1 1-1-1m101 0l1 1-1-1m14 0l1 1-1-1m14 0l1 1-1-1m22 0l1 1-1-1m40 0l1 1-1-1z" fill="#979494"/><path d="M193 470l1 1-1-1m49 0l1 1-1-1m21 0l1 1-1-1m30 0l1 1-1-1m118 0l1 1-1-1z" fill="#61d3fa"/><path d="M749 470l1 1-1-1z" fill="#979494"/><path d="M777 470l1 1-1-1z" fill="#6e6b6d"/><path d="M791 470l1 1-1-1m8 0l1 1-1-1m56 0l1 1-1-1m15 0l1 1-1-1z" fill="#979494"/><path d="M208 471c3 2 7 2 11 2l-11-2m11 0l3 1-3-1m71 0l3 1-3-1m115 0l1 1-1-1z" fill="#61d3fa"/><path d="M648 471l1 1-1-1z" fill="#6e6b6d"/><path d="M654 471l1 1-1-1z" fill="#979494"/><path d="M750 471l1 1-1-1z" fill="#6e6b6d"/><path d="M763 471l4 1-4-1m16 0l1 1-1-1m8 0l3 1-3-1m13 0l1 1-1-1m33 0l5 1-5-1m33 0l3 1-3-1z" fill="#979494"/><path d="M184 472l6 1-6-1m47 0l7 1-7-1m21 0l7 1-7-1m62 0l7 1-7-1m90 0l1 1-1-1m6 0l1 1-1-1z" fill="#61d3fa"/><path d="M649 472l1 1-1-1z" fill="#979494"/><path d="M655 472l1 1-1-1z" fill="#6e6b6d"/><path d="M752 472l5 1-5-1m29 0l6 1-6-1m21 0l5 1-5-1zm57 0l6 1-6-1z" fill="#979494"/><path d="M403 473l1 1-1-1m6 0l1 1-1-1z" fill="#61d3fa"/><path d="M656 474l1 1-1-1z" fill="#979494"/><path d="M402 475l1 1-1-1m6 0l1 1-1-1z" fill="#61d3fa"/><path d="M651 475l1 1-1-1z" fill="#979494"/><path d="M657 475l1 1-1-1z" fill="#6e6b6d"/><path d="M401 476l1 1-1-1m6 0l1 1-1-1z" fill="#61d3fa"/><path d="M658 477l1 1-1-1z" fill="#979494"/><path d="M400 478l1 1-1-1m6 0l1 1-1-1z" fill="#61d3fa"/><path d="M653 478l1 1-1-1z" fill="#979494"/><path d="M659 478l1 1-1-1z" fill="#6e6b6d"/><path d="M399 479l1 1-1-1m6 0l1 1-1-1z" fill="#61d3fa"/><path d="M660 480l1 1-1-1z" fill="#979494"/><path d="M398 481l1 1-1-1m6 0l1 1-1-1z" fill="#61d3fa"/><path d="M655 481l1 1-1-1m6 0l1 1-1-1z" fill="#979494"/><path d="M397 482l1 1-1-1m6 0l1 1-1-1z" fill="#61d3fa"/><path d="M662 483l1 1-1-1z" fill="#979494"/><path d="M396 484l1 1-1-1m6 0l1 1-1-1z" fill="#61d3fa"/><path d="M657 484l1 1-1-1m6 0l1 1-1-1z" fill="#979494"/><path d="M395 485l1 1-1-1m6 0l1 1-1-1m-7 2l1 1-1-1m6 0l1 1-1-1z" fill="#61d3fa"/><path d="M659 487l1 1-1-1m6 0l1 1-1-1z" fill="#979494"/><path d="M393 488l1 1-1-1m6 0l1 1-1-1m-7 2l1 1-1-1m6 0l1 1-1-1z" fill="#61d3fa"/><path d="M661 490l1 1-1-1m6 0l1 1-1-1z" fill="#979494"/><path d="M391 491l1 1-1-1m6 0l1 1-1-1m-7 2l1 1-1-1m6 0l1 1-1-1z" fill="#61d3fa"/><path d="M663 493l1 1-1-1m6 0l1 1-1-1z" fill="#979494"/><path d="M389 494l1 1-1-1m6 0l1 1-1-1m-7 2l1 1-1-1m6 0l1 1-1-1z" fill="#61d3fa"/><path d="M665 496l1 1-1-1m6 0l1 1-1-1z" fill="#979494"/><path d="M387 497l1 1-1-1m6 0l1 1-1-1m-7 2l1 1-1-1m6 0l1 1-1-1z" fill="#61d3fa"/><path d="M667 499l1 1-1-1m6 0l1 1-1-1z" fill="#979494"/><path d="M385 500l1 1-1-1m6 0l1 1-1-1m-7 2z" fill="#61d3fa"/><path d="M669 502l1 1-1-1z" fill="#979494"/><path d="M385 503l1 1-1-1m4 0l1 1-1-1m-1 1z" fill="#61d3fa"/><path d="M672 504l1 1-1-1z" fill="#979494"/><path d="M198 557c2-4 1-8 1-12v-22h3v12l3-1c-3-3-2-8-2-12-6 1-5 5-5 10v25z" fill="#61d3fa"/><path d="M199 523v34c2 0 2 0 3-2 3 1 7 3 11 1 8-3 8-19 0-23-4-2-8 0-11 2v-12h-3z" fill="#f9fcfd"/><path d="M224 524l1 1-1-1z" fill="#61d3fa"/><path d="M224 528h5c-1-4-4-4-5 0z" fill="#f9fcfd"/><path d="M228 524l1 1-1-1m58 2v6h-4l5 1v-6h3v6c3 0 4 1 5 3 1-3-1-4-4-4v-6h-5z" fill="#61d3fa"/><path d="M287 527v6h-5v3h5c0 8-3 21 8 21v-3c-7-2-5-12-5-18h5v-3h-5v-6h-3z" fill="#f9fcfd"/><path d="M225 528l3 1-3-1m105 0z" fill="#61d3fa"/><path d="M331 529c-14 3-8 23 6 20 12-4 6-24-6-20z" fill="#f9fcfd"/><path d="M327 529l1 1-1-1m11 0l1 1-1-1m-12 1l1 1-1-1m14 0l1 1-1-1z" fill="#61d3fa"/><path d="M1023 530v305c-1 8-4 15-6 23 7-8 6-17 7-27V553c0-7 2-17-1-23z" fill="#979494"/><path d="M325 531l1 1-1-1m16 0l1 1-1-1m-201 1z" fill="#61d3fa"/><path d="M134 539c6-1 11-6 14 3-4 0-8 0-11 2-4 3-5 8-1 11s11 1 16 2c0-6 2-15-1-20-4-8-14-5-17 2z" fill="#f9fcfd"/><path d="M158 532v25c3-7 1-17 1-24l6 1-7-2m9 0z" fill="#61d3fa"/><path d="M162 535c-1-2-1-2-3-2v24h3c0-5-1-12 1-17 1-3 6-5 8-2 4 3 2 14 2 19h4c0-5-1-12 1-17 2-3 6-5 8-2 4 3 2 14 2 19h4c0-6 2-16-1-21-4-6-9-2-14-2l-7-2c-3 0-5 2-8 3z" fill="#f9fcfd"/><path d="M224 557c3-7 1-17 1-24h3v24c3-7 1-18 1-25-8 1-5 18-5 25m16-23l3-1-3 1z" fill="#61d3fa"/><path d="M254 554v-2l-1-1c-7 3-12 3-15-5h17c0-4-1-8-3-11-5-5-13-2-16 3-3 6-2 16 5 18 5 2 9 0 13-2z" fill="#f9fcfd"/><path d="M259 557c3-7 1-17 1-24l5 2c-3-4-6-2-6 2v20m7-23l3-1-3 1z" fill="#61d3fa"/><path d="M263 535c-1-2-1-2-3-2v24h4c0-5-1-12 1-17 1-4 6-5 8-2 4 4 2 14 2 19h4c0-7 3-26-9-25l-7 3z" fill="#f9fcfd"/><path d="M324 532l1 1-1-1m18 0l1 1-1-1m-205 1l1 1-1-1m11 0l1 1-1-1m26 0l1 1-1-1m5 0l1 1-1-1m10 0l1 1-1-1m25 0l1 1-1-1z" fill="#61d3fa"/><path d="M225 533v24h3v-24h-3z" fill="#f9fcfd"/><path d="M250 533l1 1-1-1m25 0l1 1-1-1m-126 1l1 1-1-1m26 0l1 1-1-1m15 0l1 1-1-1m25 0l1 1-1-1m23 0l1 1-1-1m13 0l1 1-1-1m25 0l1 1-1-1m67 0l1 1-1-1m-203 1l5 1-5-1m10 0l1 1-1-1m66 0l1 1-1-1m21 0l1 1-1-1m15 0l1 1-1-1m25 0l1 1-1-1m-143 1l1 1-1-1m5 0l1 1-1-1m12 0l1 1-1-1m20 0l1 1-1-1m15 0l1 1-1-1m19 0c-4 5-5 12 0 17-3-7-1-10 0-17z" fill="#61d3fa"/><path d="M206 537c-6 4-3 21 6 15 5-4 2-19-6-15z" fill="#01bdfd"/><path d="M211 536l1 1-1-1m25 0l1 1-1-1m5 0l-1 2 1-2z" fill="#61d3fa"/><path d="M239 542h11c-2-7-9-7-11 0z" fill="#01bdfd"/><path d="M247 536l1 1-1-1m19 0l1 1-1-1m6 0l1 1-1-1m14 0v17c2-4 2-13 0-17m4 0v16c2-4 2-12 0-16m-157 1c1 3 2 3 5 3l-5-3m5 0l1 1-1-1m25 0l1 1-1-1m9 0l1 1-1-1m15 0l1 1-1-1m25 0l1 1-1-1m5 0l1 1-1-1m36 0l1 1-1-1m12 0l1 1-1-1m8 0l1 1-1-1m-81 1v19c2-5 2-14 0-19m21 0l1 1-1-1m22 0l1 1-1-1m14 0l1 1-1-1m15 0l1 1-1-1m10 0v19c2-5 2-14 0-19m-112 1v18c2-5 2-13 0-18m15 0v18c2-5 2-13 0-18m73 0c-2 4-7 3-11 3 4 2 8 1 12 1l-1-4m93 3l1 1-1-1m-20 1l1 1-1-1z" fill="#61d3fa"/><path d="M343 543l1 1-1-1z" fill="#979494"/><path d="M135 544l1 1-1-1m207 0l1 1-1-1m-208 1l1 1-1-1m6 0l7 1-2 7c3-2 3-4 3-8h-8m184 0l1 1-1-1m-191 1l1 1-1-1m5 0c-1 5 1 8 6 8-4-2-5-3-6-8z" fill="#61d3fa"/><path d="M147 546h-4c-9 1-1 11 3 4l1-4z" fill="#01bdfd"/><path d="M325 546l1 1-1-1m16 0l1 1-1-1m-15 1l1 1-1-1m14 0l1 1-1-1m-12 1l1 1-1-1m10 0l1 1-1-1z" fill="#61d3fa"/><path d="M464 548v216c2-5 1-12 1-18V564c0-5 1-11-1-16z" fill="#979494"/><path d="M330 549l6 1-6-1m-91 1l1 1-1-1m-4 1l1 1-1-1m5 0l1 1-1-1m13 0l1 1-1-1m-41 1l1 1-1-1m5 0l1 1-1-1m24 0l1 1-1-1m9 0l1 1-1-1m-117 1l1 1-1-1m73 0l5 1-5-1m30 0l1 1-1-1m6 0l1 1-1-1m6 0l1 1-1-1m43 0l4 1-4-1m-157 1l1 1-1-1m103 0l1 1-1-1m16 0l1 1-1-1m-118 1l1 1-1-1m11 0l1 1-1-1m56 0v2l2-2h-2m13 0l1 1-1-1m23 0l1 1-1-1m13 0l1 1-1-1m36 0l1 1-1-1m-151 1l1 1-1-1m9 0l1 1-1-1m3 0l1 1-1-1m57 0l1 1-1-1m8 0l1 1-1-1m27 0l1 1-1-1m10 0l1 1-1-1m38 0l1 1-1-1m-150 1l5 1-5-1m69 0l5 1-5-1m35 0l6 1-6-1m48 0l5 1-5-1z" fill="#61d3fa"/><path d="M871 574l4 1-4-1z" fill="#6e6b6d"/><path d="M871 575v6h-4v3h4c0 9-3 21 9 21v-3c-7-2-5-12-5-18h4v-3h-4v-6h-4z" fill="#f9fcfd"/><path d="M914 576l1 1-1-1z" fill="#979494"/><path d="M915 577c-13 4-8 24 5 20 14-3 8-24-5-20z" fill="#f9fcfd"/><path d="M921 576l1 1-1-1z" fill="#6e6b6d"/><path d="M912 577l1 1-1-1m11 0l1 1-1-1m1 1l1 1-1-1m1 1l1 1-1-1z" fill="#979494"/><path d="M667 580l4 1-4-1z" fill="#6e6b6d"/><path d="M676 580l1 1-1-1z" fill="#979494"/><path d="M671 583c-1-2-1-2-3-2v24h4c0-5-2-15 2-19 2-3 7-1 8 2 2 5 1 12 1 17h3c0-5-1-12 1-17 2-3 6-5 8-2 4 3 2 14 2 19h4c0-6 2-14-1-20-2-7-10-5-14-1-5-4-9-4-15-1z" fill="#f9fcfd"/><path d="M680 580l1 1-1-1m15 0l1 1-1-1m20 0l1 1-1-1z" fill="#979494"/><path d="M716 581c-14 2-11 26 4 24 13-3 10-27-4-24z" fill="#f9fcfd"/><path d="M719 580l1 1-1-1z" fill="#979494"/><path d="M731 580l4 1-4-1m16 0l5 1-5-1z" fill="#6e6b6d"/><path d="M762 580l1 1-1-1z" fill="#979494"/><path d="M774 600l-1-1c-7 3-12 3-15-5h17c0-4-1-9-4-11-7-6-16 1-17 8-1 11 14 20 20 9z" fill="#f9fcfd"/><path d="M767 580l1 1-1-1z" fill="#979494"/><path d="M780 580l4 1-4-1z" fill="#6e6b6d"/><path d="M788 580l1 1-1-1z" fill="#979494"/><path d="M783 583c-1-2-1-2-3-2v24h4c0-5-2-15 2-19 2-3 7-2 8 2 2 5 1 12 1 17h4c0-5-1-12 1-17 1-3 5-5 7-2 4 3 2 14 2 19h4c0-6 2-14-1-20-2-7-10-5-14-1-5-4-9-4-15-1z" fill="#f9fcfd"/><path d="M792 580l1 1-1-1m35 0l1 1-1-1z" fill="#979494"/><path d="M839 600c-7 0-14 4-16-6h16c0-4 0-8-3-11-5-5-14-2-16 5-4 13 10 23 19 12z" fill="#f9fcfd"/><path d="M831 580l1 1-1-1z" fill="#979494"/><path d="M844 580l4 1-4-1z" fill="#6e6b6d"/><path d="M853 580l1 1-1-1z" fill="#979494"/><path d="M849 583l-5-2v24h4c0-5-1-12 1-17 2-3 5-5 8-2 4 3 2 14 2 19h4c0-6 2-14-1-20-2-6-9-5-13-2z" fill="#f9fcfd"/><path d="M857 580l1 1-1-1z" fill="#979494"/><path d="M866 580l5 1-5-1m9 0l5 1-5-1z" fill="#6e6b6d"/><path d="M926 580l1 1-1-1m-259 1v24c2-6 2-18 0-24m4 0v2h2l-2-2z" fill="#979494"/><path d="M673 581l1 1-1-1z" fill="#6e6b6d"/><path d="M683 581l1 1-1-1m5 0l1 1-1-1z" fill="#979494"/><path d="M698 581l1 1-1-1z" fill="#6e6b6d"/><path d="M712 581l1 1-1-1z" fill="#979494"/><path d="M731 581l6 17c1 2 2 6 4 6 3 1 4-3 4-5l6-18h-4l-5 18-6-18h-5z" fill="#f9fcfd"/><path d="M751 581l1 1-1-1m28 0v24c2-6 2-18 0-24m4 0v2h2l-2-2m12 0l1 1-1-1m5 0l1 1-1-1m10 0l1 1-1-1m14 0l1 1-1-1m10 0l1 1-1-1m16 0l1 1-1-1m58 0l1 1-1-1m-224 1l1 1-1-1m15 0l1 1-1-1z" fill="#979494"/><path d="M724 582l1 1-1-1z" fill="#6e6b6d"/><path d="M758 582l1 1-1-1m13 0l1 1-1-1m40 0l1 1-1-1z" fill="#979494"/><path d="M709 583l1 1-1-1z" fill="#6e6b6d"/><path d="M725 583l1 1-1-1z" fill="#979494"/><path d="M736 583l1 1-1-1z" fill="#6e6b6d"/><path d="M746 583l1 1-1-1m11 0l1 1-1-1m15 0l1 1-1-1m25 0l1 1-1-1m15 0l1 1-1-1m-138 1l1 1-1-1m15 0l1 1-1-1m6 0l1 1-1-1m19 0l1 1-1-1z" fill="#979494"/><path d="M715 585c-7 3-4 20 5 16 7-4 4-20-5-16z" fill="#4a4949"/><path d="M720 584l1 1-1-1m12 0l1 1-1-1z" fill="#979494"/><path d="M750 584l1 1-1-1z" fill="#6e6b6d"/><path d="M759 590h11c-2-8-9-7-11 0z" fill="#4a4949"/><path d="M767 584l1 1-1-1z" fill="#6e6b6d"/><path d="M786 584l1 1-1-1m6 0l1 1-1-1m9 0l1 1-1-1m6 0l1 1-1-1m19 0l1 1-1-1z" fill="#979494"/><path d="M824 590h11c-2-7-9-8-11 0z" fill="#4a4949"/><path d="M832 584l1 1-1-1m5 0l1 1-1-1m14 0l1 1-1-1z" fill="#979494"/><path d="M856 584l1 1-1-1m6 0l1 1-1-1z" fill="#6e6b6d"/><path d="M928 584l1 1-1-1m-247 1l1 1-1-1m92 0l1 1-1-1m20 0l1 1-1-1m15 0l1 1-1-1m12 0l1 1-1-1m13 0l1 1-1-1z" fill="#979494"/><path d="M687 586l1 1-1-1z" fill="#6e6b6d"/><path d="M712 586l1 1-1-1z" fill="#979494"/><path d="M722 586l1 1-1-1m5 0l1 1-1-1z" fill="#6e6b6d"/><path d="M745 586l1 1-1-1m10 0l1 1-1-1z" fill="#979494"/><path d="M769 586l1 1-1-1z" fill="#6e6b6d"/><path d="M799 586l1 1-1-1m14 0v19c2-5 2-14 0-19m11 0l1 1-1-1m14 0l1 1-1-1m20 0l1 1-1-1m-157 1v18c2-5 2-13 0-18m22 0l1 1-1-1m10 0l1 1-1-1m26 0l1 1-1-1m35 0v18c2-5 2-13 0-18m25 0l1 1-1-1m15 0l1 1-1-1z" fill="#979494"/><path d="M848 587v18c2-5 2-13 0-18z" fill="#6e6b6d"/><path d="M682 588v17c2-4 2-13 0-17m4 0v17c2-4 2-13 0-17m25 0l1 1-1-1m59 0c-3 2-7 2-11 2 2 1 13 3 11-2m4 0l1 1-1-1z" fill="#979494"/><path d="M744 589l1 1-1-1z" fill="#6e6b6d"/><path d="M754 589l1 1-1-1z" fill="#979494"/><path d="M928 589l1 1-1-1z" fill="#6e6b6d"/><path d="M111 590l-1 12c3-3 2-8 1-12z" fill="#61d3fa"/><path d="M112 590v12c-3-1-7-3-11-1-7 4-7 17-2 21s12 2 17 2v-34h-4m101 0v34c5 0 12 2 17-1 6-6 5-18-2-22-4-2-7 0-11 1v-12h-4z" fill="#f9fcfd"/><path d="M217 590c0 4-2 11 3 12l-3-12z" fill="#61d3fa"/><path d="M734 590l1 1-1-1m4 0l1 1-1-1m85 0c4 2 8 1 12 1-4-2-8-1-12-1m84 0l1 1-1-1z" fill="#979494"/><path d="M122 595l4-3c-3-1-3 1-4 3z" fill="#61d3fa"/><path d="M123 592v4c3-1 3-1 4-4h-4z" fill="#f9fcfd"/><path d="M735 592l1 1-1-1m12 0l1 1-1-1m161 0l1 1-1-1zm-169 1l1 1-1-1m187 0l1 1-1-1z" fill="#979494"/><path d="M158 594v6h-4v4h4v17c2-5 1-12 1-18h-4v-2h4v-6h4l-5-1z" fill="#61d3fa"/><path d="M925 594l1 1-1-1z" fill="#979494"/><path d="M1019 594v134c2-4 1-8 1-12v-91c0-9 3-23-1-31z" fill="#1f1d1d"/><path d="M126 595l1 1-1-1z" fill="#61d3fa"/><path d="M159 595v6h-4v2h4c0 8-3 21 8 22l-4-7v-15h4v-2h-4v-6h-4z" fill="#f9fcfd"/><path d="M366 596h7-7z" fill="#61d3fa"/><path d="M736 595l1 1-1-1z" fill="#979494"/><path d="M740 595l1 1-1-1z" fill="#6e6b6d"/><path d="M746 595l1 1-1-1m178 0l1 1-1-1z" fill="#979494"/><path d="M368 597c-13 3-7 23 6 20 12-4 7-24-6-20z" fill="#f9fcfd"/><path d="M740 596l1 1-1-1m2 0l1 1-1-1m170 0l1 1-1-1z" fill="#979494"/><path d="M364 597l1 1-1-1m12 0l1 1-1-1z" fill="#61d3fa"/><path d="M711 597l1 1-1-1m12 0l1 1-1-1m100 0l1 1-1-1z" fill="#979494"/><path d="M914 597l1 1-1-1z" fill="#6e6b6d"/><path d="M920 597l1 1-1-1z" fill="#979494"/><path d="M363 598l1 1-1-1m15 0l1 1-1-1z" fill="#61d3fa"/><path d="M465 598l-1 171v51c0 10 1 18-1 28 4-4 3-11 3-17V616c0-6 1-13-1-18z" fill="#6e6b6d"/><path d="M707 598l1 1-1-1m20 0l1 1-1-1m10 0l1 1-1-1m4 0l1 1-1-1m18 0l1 1-1-1m60 0l1 1-1-1z" fill="#979494"/><path d="M206 599l3 1v4c1-3 0-4-3-5m156 0l1 1-1-1z" fill="#61d3fa"/><path d="M712 599l1 1-1-1m10 0l1 1-1-1m33 0l1 1-1-1z" fill="#979494"/><path d="M760 599l1 1-1-1z" fill="#6e6b6d"/><path d="M824 599l1 1-1-1m11 0l1 1-1-1m2 0l1 1-1-1z" fill="#979494"/><path d="M108 600l1 1-1-1m14 0v25h5l-4-1v-23h4l-5-1z" fill="#61d3fa"/><path d="M137 617h-4c2 8 15 12 18 3 3-8-8-7-12-11-3-4 3-6 6-5 2 2 3 3 6 3-2-7-15-11-17-1-1 8 11 6 13 11 1 3-3 5-5 4-3 0-4-2-5-4z" fill="#f9fcfd"/><path d="M146 600l1 1-1-1m17 0l4 1v2h-4l5 1v-4h-5z" fill="#61d3fa"/><path d="M172 600c0 7-3 21 5 24 4 2 10 0 14 0v-23h-4c0 5 1 11-1 16-1 2-3 5-6 4-6-3-4-16-4-21h-4z" fill="#f9fcfd"/><path d="M176 600v18c2-5 2-13 0-18m11 0l4 1v23h-4l5 1v-25h-5m10 0v25h5l-4-1v-23h4l-5-1m7 0l-1 2 1-2z" fill="#61d3fa"/><path d="M198 601v23h4c0-7-3-19 7-20v-4l-11 1z" fill="#f9fcfd"/><path d="M227 600l1 1-1-1z" fill="#61d3fa"/><path d="M239 607c6-1 12-7 14 3-4 0-8 0-11 2-4 3-5 9 0 12 5 2 11 0 16 0-1-6 1-15-2-20-4-7-15-4-17 3z" fill="#f9fcfd"/><path d="M252 600l1 1-1-1m11 0v25h5l-4-1v-23l6 1c-2-2-4-2-7-2z" fill="#61d3fa"/><path d="M267 603c-1-2-1-2-3-2v23h4c0-5-1-11 1-16 1-3 4-5 7-4 5 3 3 15 3 20h4c0-8 3-27-11-23l-5 2z" fill="#f9fcfd"/><path d="M278 600l1 1-1-1m17 0z" fill="#61d3fa"/><path d="M308 617h-4c-8 15-19-14-5-13 3 0 6 4 9 5-2-13-19-10-20 2-1 13 16 20 20 6z" fill="#f9fcfd"/><path d="M302 600l1 1-1-1z" fill="#61d3fa"/><path d="M332 620c-8-1-14 4-16-7h16c0-3 0-7-2-10-6-6-15-2-17 5-4 12 10 23 19 12z" fill="#f9fcfd"/><path d="M326 600l1 1-1-1m35 0l1 1-1-1z" fill="#61d3fa"/><path d="M708 600l1 1-1-1m5 0l1 1-1-1m8 0l1 1-1-1m5 0l1 1-1-1m35 0l1 1-1-1m59 0l1 1-1-1m14 0l1 1-1-1z" fill="#979494"/><path d="M99 601l1 1-1-1z" fill="#61d3fa"/><path d="M123 601v23h4v-23h-4z" fill="#f9fcfd"/><path d="M136 601l1 1-1-1m12 0l1 1-1-1m81 0l1 1-1-1m13 0l1 1-1-1m12 0l1 1-1-1m26 0l1 1-1-1m12 0l1 1-1-1m12 0l1 1-1-1m13 0l1 1-1-1m11 0l1 1-1-1m52 0l1 1-1-1z" fill="#61d3fa"/><path d="M715 601l1 1-1-1z" fill="#979494"/><path d="M719 601l1 1-1-1z" fill="#6e6b6d"/><path d="M738 601l1 1-1-1m25 0l1 1-1-1m5 0l1 1-1-1m59 0l1 1-1-1m5 0l1 1-1-1m6 0l1 1-1-1z" fill="#979494"/><path d="M876 601l4 1-4-1z" fill="#6e6b6d"/><path d="M98 602l1 1-1-1m37 0l1 1-1-1m14 0l1 1-1-1m81 0l1 1-1-1m25 0l1 1-1-1m26 0l1 1-1-1m10 0l1 1-1-1m14 0l1 1-1-1m24 0l1 1-1-1m31 1z" fill="#61d3fa"/><path d="M757 602l1 1-1-1m80 0l1 1-1-1m34 0l1 1-1-1z" fill="#979494"/><path d="M104 603l4 1-4-1m30 0l1 1-1-1m6 0l5 1-5-1m10 0l1 1-1-1m71 0l4 1-4-1m10 0l1 1-1-1m14 0l6 1-6-1m11 0l1 1-1-1m15 0l5 1-5-1m19 0l1 1-1-1m6 0l5 1-5-1m10 0l1 1-1-1m11 4c3-1 5-3 8-3-4-1-6 0-8 3m13-4l1 1-1-1m51 0z" fill="#61d3fa"/><path d="M823 603l1 1-1-1m13 0l1 1-1-1z" fill="#979494"/><path d="M97 604l1 1-1-1m5 0l-1 2 1-2z" fill="#61d3fa"/><path d="M103 605c-6 4-2 20 6 15 5-3 2-20-6-15z" fill="#01bdfd"/><path d="M109 604l1 1-1-1m29 0l1 1-1-1m7 0l1 1-1-1m59 0l1 1-1-1m15 0c-2 4-2 9-2 14 2-4 2-10 2-14z" fill="#61d3fa"/><path d="M220 605c-5 3-2 20 6 15 6-4 2-20-6-15z" fill="#01bdfd"/><path d="M226 604l1 1-1-1m13 0l1 1-1-1m5 0l1 1-1-1m7 0l1 1-1-1m19 0l1 1-1-1m7 0l1 1-1-1m18 0l1 1-1-1m7 0l1 1-1-1m5 0l1 1-1-1m7 0l1 1-1-1z" fill="#61d3fa"/><path d="M317 610h11c-1-8-9-7-11 0z" fill="#01bdfd"/><path d="M722 604l1 1-1-1m17 0l1 1-1-1z" fill="#6e6b6d"/><path d="M760 604l1 1-1-1m10 0l1 1-1-1m64 0l1 1-1-1z" fill="#979494"/><path d="M96 605l1 1-1-1m14 0l1 1-1-1m36 0l1 1-1-1m5 0l-4 2c2 1 5 1 4-2m52 0l1 1-1-1m24 0l1 1-1-1m5 0l1 1-1-1m11 0l1 1-1-1m9 0l1 1-1-1m5 0v18c2-5 2-13 0-18m12 0l1 1-1-1m20 0l1 1-1-1m14 0l1 1-1-1m10 0l1 1-1-1z" fill="#61d3fa"/><path d="M716 605l3 1-3-1m48 0l3 1-3-1m64 0l4 1-4-1m47 0l3 1-3-1z" fill="#979494"/><path d="M111 606v13c2-4 2-9 0-13m91 0l1 1-1-1m26 0l1 1-1-1m40 0l1 1-1-1m10 0v19h5l-4-1c0-6 1-13-1-18m15 0l1 1-1-1m39 1v6h-16v4l1-3h16l-1-7m-194 1l1 1-1-1m166 0l1 1-1-1m-165 1l1 1-1-1m107 0l7 1-7-1m-112 1l1 1-1-1m1 1l1 1-1-1m106 0l1 1-1-1m139 0l1 1-1-1m-243 1l1 1-1-1m11 0l1 1-1-1m92 0l1 1-1-1m121 0l1 1-1-1m-122 1l1 1-1-1m7 0z" fill="#61d3fa"/><path d="M253 613h-5c-10 2 0 13 4 4l1-4z" fill="#01bdfd"/><path d="M362 613l1 1-1-1z" fill="#61d3fa"/><path d="M379 613l1 1-1-1z" fill="#979494"/><path d="M243 614l1 1-1-1m120 0l1 1-1-1m15 0l1 1-1-1m-232 1l1 1-1-1m218 0l1 1-1-1m13 0l1 1-1-1m-2 1l1 1-1-1m-275 1l1 1-1-1m268 0l5 1-5-1m-272 1l1 1-1-1m132 0l1 1-1-1m24 0l1 1-1-1m41 0l1 1-1-1m24 0l1 1-1-1m-216 1l1 1-1-1m9 0l1 1-1-1m27 0l1 1-1-1m81 0l1 1-1-1m9 0l1 1-1-1m5 0l1 1-1-1m19 0l1 1-1-1m38 0l1 1-1-1m14 0l1 1-1-1m10 0l1 1-1-1m5 0l1 1-1-1m10 0l1 1-1-1m3 0l1 1-1-1m-234 1l1 1-1-1m5 0l1 1-1-1m7 0l1 1-1-1m24 0l1 1-1-1m5 0l1 1-1-1m8 0l1 1-1-1m5 0l1 1-1-1m12 0l1 1-1-1m21 0l1 1-1-1m35 0l1 1-1-1m7 0l1 1-1-1m24 0l1 1-1-1m45 0l1 1-1-1m7 0l1 1-1-1m5 0l1 1-1-1m12 0l1 1-1-1m8 0l1 1-1-1m-223 1l4 1-4-1m36 0l5 1-5-1m24 0l3 4 1-4h-4m9 0l1 1-1-1m6 0l4 1-4-1m42 0l4 1-4-1m10 0l1 1-1-1m14 0l4 1-4-1m45 0l1 1-1-1m6 0l5 1-5-1m10 0l1 1-1-1m8 0l1 1-1-1m7 0l5 1-5-1m10 0l1 1-1-1m-233 1l1 1-1-1m61 0l1 1-1-1m71 0l1 1-1-1m61 0l1 1-1-1m14 0l1 1-1-1m10 0l1 1-1-1m15 0l1 1-1-1m-230 1l1 1-1-1m10 0l1 1-1-1m26 0l1 1-1-1m12 0l1 1-1-1m12 0l1 1-1-1m25 0l1 1-1-1m44 0l1 1-1-1m12 0l1 1-1-1m10 0l1 1-1-1m41 0l1 1-1-1m12 0l1 1-1-1m13 0l1 1-1-1m12 0l1 1-1-1m-221 1l1 1-1-1m4 0l4 1-4-1m49 0l1 1-1-1m52 0l4 1-4-1m14 0l1 1-1-1m22 0l1 1-1-1m5 0l4 1-4-1m73 0z" fill="#61d3fa"/><path d="M1024 679v103c3-7 1-17 1-24v-52c0-8 2-20-1-27m-433 3v69c2-5 1-12 1-18v-34c0-5 1-12-1-17z" fill="#6e6b6d"/><path d="M39 693v118c3-8 1-21 1-30v-61c0-8 2-20-1-27m983 20v101l-1-4c-2 6-1 15-1 21l1-9 1 10c3-8 1-20 1-28v-61c0-9 2-22-1-30m-424 14v90c2-6 1-15 1-21v-46c0-7 2-17-1-23z" fill="#1f1d1d"/><path d="M594 735v71c0 17-1 34 6 50 1-4-2-9-3-13l-2-19v-62c0-8 2-20-1-27m-559 6v68c0 18-1 37 9 53 1-5-3-10-4-14-3-8-3-15-4-23-2-19 0-40 0-59 0-7 2-18-1-25z" fill="#979494"/><path d="M54 747c4 2 8 1 12 1h381c-4-2-8-1-12-1H54z" fill="#30419d"/><path d="M1027 751v24c2-6 2-18 0-24z" fill="#6e6b6d"/><path d="M135 758c6 3 16 1 23 1-6-3-16-1-23-1z" fill="#979494"/><path d="M249 758l4 1-4-1zm445 0c6 3 16 1 23 1v22c2-5 1-12 1-17 0-2 0-4-2-5-6-3-16-1-22-1m113 0l5 1-5-1m115 0l1 1-1-1z" fill="#6e6b6d"/><path d="M134 759v23c2-5 2-18 0-23z" fill="#4a4949"/><path d="M135 759v23h23v-23h-23z" fill="#f9fcfd"/><path d="M158 759v23c2-5 2-18 0-23m87 0l1 1-1-1z" fill="#6e6b6d"/><path d="M246 759l1 1-1-1z" fill="#979494"/><path d="M247 760c-14 4-6 26 7 21 14-5 7-26-7-21z" fill="#f9fcfd"/><path d="M254 759l1 1-1-1z" fill="#979494"/><path d="M255 759l1 1-1-1m106 0l1 1-1-1z" fill="#6e6b6d"/><path d="M362 759l1 1-1-1z" fill="#979494"/><path d="M363 759l-18 10v2l19 11c0-7 2-17-1-23z" fill="#f9fcfd"/><path d="M364 759v23c2-5 2-18 0-23z" fill="#979494"/><path d="M694 759v23h23v-23h-23z" fill="#f9fcfd"/><path d="M804 759l1 1-1-1z" fill="#4a4949"/><path d="M805 760c-14 5-5 27 9 21 13-6 5-27-9-21z" fill="#f9fcfd"/><path d="M814 759l1 1-1-1m106 0l1 1-1-1z" fill="#4a4949"/><path d="M903 770c5 5 13 9 20 12 2-7 1-16 1-23-7 1-15 7-21 11z" fill="#f9fcfd"/><path d="M137 760c5 2 13 1 19 1-5-2-13-1-19-1z" fill="#6e6b6d"/><path d="M243 760l1 1-1-1z" fill="#4a4949"/><path d="M244 760l1 1-1-1m4 0l5 1-5-1m8 0l1 1-1-1z" fill="#979494"/><path d="M257 760l1 1-1-1m102 0l1 1-1-1z" fill="#4a4949"/><path d="M360 760l1 1-1-1m336 0c5 2 13 1 19 1-5-2-13-1-19-1m112 0l3 1-3-1m-672 1v19c2-5 2-14 0-19z" fill="#979494"/><path d="M137 761v19h19v-19h-19z" fill="#1f1d1d"/><path d="M156 761v19c2-5 2-14 0-19z" fill="#979494"/><path d="M242 761l1 1-1-1m4 0l1 1-1-1z" fill="#6e6b6d"/><path d="M247 762c-10 4-4 21 6 17 12-4 6-22-6-17z" fill="#1f1d1d"/><path d="M254 761l1 1-1-1m4 0l1 1-1-1z" fill="#6e6b6d"/><path d="M358 761l1 1-1-1m4 0l1 1-1-1z" fill="#979494"/><path d="M696 761v19h19v-19h-19z" fill="#1f1d1d"/><path d="M801 761l1 1-1-1m4 0l1 1-1-1z" fill="#4a4949"/><path d="M806 762c-11 4-4 22 7 17s4-22-7-17z" fill="#1f1d1d"/><path d="M813 761l1 1-1-1m4 0l1 1-1-1z" fill="#4a4949"/><path d="M917 761l1 1-1-1z" fill="#979494"/><path d="M921 761l1 1-1-1m-680 1l1 1-1-1z" fill="#6e6b6d"/><path d="M244 762l1 1-1-1m12 0l1 1-1-1z" fill="#979494"/><path d="M259 762l1 1-1-1m97 0l1 1-1-1z" fill="#6e6b6d"/><path d="M360 762l1 1-1-1z" fill="#979494"/><path d="M361 762v17c3-3 3-14 0-17m439 0l1 1-1-1z" fill="#4a4949"/><path d="M803 762l1 1-1-1m12 0l1 1-1-1z" fill="#979494"/><path d="M818 762l1 1-1-1z" fill="#4a4949"/><path d="M915 762l1 1-1-1m4 0l1 1-1-1z" fill="#6e6b6d"/><path d="M907 770c4 4 10 7 15 9v-17l-15 8z" fill="#1f1d1d"/><path d="M240 763l1 1-1-1z" fill="#4a4949"/><path d="M243 763l1 1-1-1m14 0l1 1-1-1z" fill="#979494"/><path d="M260 763l1 1-1-1m94 0l1 1-1-1z" fill="#4a4949"/><path d="M355 763l1 1-1-1m3 0l1 1-1-1z" fill="#979494"/><path d="M359 763l1 1-1-1z" fill="#4a4949"/><path d="M348 770l14 8v-15c-5 1-9 4-14 7z" fill="#1f1d1d"/><path d="M802 763l1 1-1-1m14 0l1 1-1-1z" fill="#979494"/><path d="M913 763l1 1-1-1z" fill="#4a4949"/><path d="M917 763l1 1-1-1m-677 1l1 1-1-1m2 0l1 1-1-1m16 0l1 1-1-1m2 0l1 1-1-1z" fill="#979494"/><path d="M352 764l1 1-1-1z" fill="#4a4949"/><path d="M353 764l1 1-1-1m3 0l1 1-1-1z" fill="#979494"/><path d="M357 764l1 1-1-1z" fill="#6e6b6d"/><path d="M799 764l1 1-1-1m2 0l1 1-1-1m16 0l1 1-1-1m2 0l1 1-1-1m93 0l1 1-1-1z" fill="#979494"/><path d="M916 764l1 1-1-1m-677 1l1 1-1-1m3 0l1 1-1-1m16 0l1 1-1-1m3 0l1 1-1-1z" fill="#4a4949"/><path d="M351 765l1 1-1-1z" fill="#979494"/><path d="M355 765l1 1-1-1m555 0l1 1-1-1m4 0l1 1-1-1z" fill="#6e6b6d"/><path d="M239 766l1 1-1-1m2 0l1 1-1-1m18 0l1 1-1-1m2 0l1 1-1-1z" fill="#979494"/><path d="M349 766l1 1-1-1z" fill="#6e6b6d"/><path d="M350 766l1 1-1-1m3 0l1 1-1-1m445 0l1 1-1-1m2 0l1 1-1-1m18 0l1 1-1-1m2 0l1 1-1-1z" fill="#979494"/><path d="M908 766l1 1-1-1z" fill="#4a4949"/><path d="M912 766l1 1-1-1z" fill="#979494"/><path d="M347 767l1 1-1-1z" fill="#4a4949"/><path d="M348 767l1 1-1-1m3 0l1 1-1-1z" fill="#979494"/><path d="M352 767l1 1-1-1m-114 1zm107 0l1 1-1-1z" fill="#4a4949"/><path d="M346 768l1 1-1-1m3 0l1 1-1-1z" fill="#979494"/><path d="M350 768l1 1-1-1z" fill="#6e6b6d"/><path d="M905 768l1 1-1-1z" fill="#979494"/><path d="M909 768l1 1-1-1z" fill="#4a4949"/><path d="M344 769l1 1-1-1m4 0l1 1-1-1m555 0l1 1-1-1m4 0l1 1-1-1z" fill="#6e6b6d"/><path d="M344 770l2 2-2-2m3 0l1 1-1-1z" fill="#979494"/><path d="M906 770l1 1-1-1z" fill="#6e6b6d"/><path d="M344 771l1 1-1-1z" fill="#4a4949"/><path d="M348 771l1 1-1-1z" fill="#979494"/><path d="M349 771l1 1-1-1z" fill="#6e6b6d"/><path d="M904 771l1 1-1-1z" fill="#979494"/><path d="M908 771l1 1-1-1m-562 1l1 1-1-1z" fill="#4a4949"/><path d="M347 772l1 1-1-1m3 0l1 1-1-1z" fill="#979494"/><path d="M351 772l1 1-1-1z" fill="#4a4949"/><path d="M241 773l1 1-1-1m18 0l1 1-1-1m89 0l1 1-1-1z" fill="#6e6b6d"/><path d="M352 773l1 1-1-1z" fill="#979494"/><path d="M800 773l1 1-1-1m18 0l1 1-1-1m89 0l1 1-1-1z" fill="#4a4949"/><path d="M911 773l1 1-1-1z" fill="#979494"/><path d="M239 774l1 1-1-1z" fill="#6e6b6d"/><path d="M241 774l1 1-1-1m18 0l1 1-1-1z" fill="#979494"/><path d="M261 774l1 1-1-1z" fill="#6e6b6d"/><path d="M350 774l1 1-1-1z" fill="#979494"/><path d="M354 774l1 1-1-1z" fill="#6e6b6d"/><path d="M798 774l1 1-1-1m2 0l1 1-1-1m18 0l1 1-1-1m2 0l1 1-1-1m89 0l1 1-1-1z" fill="#979494"/><path d="M913 774l1 1-1-1m-671 1l1 1-1-1m16 0l1 1-1-1z" fill="#6e6b6d"/><path d="M351 775l1 1-1-1z" fill="#4a4949"/><path d="M352 775l1 1-1-1m3 0l1 1-1-1z" fill="#979494"/><path d="M356 775l1 1-1-1m445 0l1 1-1-1m16 0l1 1-1-1z" fill="#4a4949"/><path d="M911 775l1 1-1-1z" fill="#979494"/><path d="M915 775l1 1-1-1z" fill="#4a4949"/><path d="M1027 775v37l1-11c0-8 2-19-1-26z" fill="#30419d"/><path d="M240 776l1 1-1-1z" fill="#6e6b6d"/><path d="M243 776l2 2-2-2m14 0l-1 2 1-2z" fill="#4a4949"/><path d="M258 776l1 1-1-1z" fill="#979494"/><path d="M260 776l1 1-1-1m93 0l1 1-1-1z" fill="#6e6b6d"/><path d="M354 776l1 1-1-1m3 0l1 1-1-1z" fill="#979494"/><path d="M358 776l1 1-1-1z" fill="#4a4949"/><path d="M799 776l1 1-1-1m20 0l1 1-1-1z" fill="#979494"/><path d="M912 776l1 1-1-1z" fill="#4a4949"/><path d="M916 776l1 1-1-1m-675 1l1 1-1-1m2 0l1 1-1-1m14 0l1 1-1-1m2 0l1 1-1-1z" fill="#979494"/><path d="M355 777l1 1-1-1z" fill="#6e6b6d"/><path d="M359 777l1 1-1-1z" fill="#979494"/><path d="M914 777l1 1-1-1m4 0l1 1-1-1z" fill="#6e6b6d"/><path d="M242 778l1 1-1-1z" fill="#979494"/><path d="M245 778l1 1-1-1m10 0l1 1-1-1z" fill="#6e6b6d"/><path d="M258 778l1 1-1-1m99 0l1 1-1-1z" fill="#979494"/><path d="M804 778l1 1-1-1m10 0l1 1-1-1z" fill="#4a4949"/><path d="M916 778l1 1-1-1m-673 1l1 1-1-1m3 0l1 1-1-1z" fill="#979494"/><path d="M247 779l1 1-1-1m6 0l1 1-1-1z" fill="#6e6b6d"/><path d="M254 779l1 1-1-1m3 0l1 1-1-1z" fill="#979494"/><path d="M358 779l1 1-1-1z" fill="#4a4949"/><path d="M359 779l1 1-1-1m443 0l1 1-1-1z" fill="#979494"/><path d="M806 779l1 1-1-1m6 0l1 1-1-1z" fill="#6e6b6d"/><path d="M816 779l1 1-1-1z" fill="#979494"/><path d="M244 780l1 1-1-1m12 0l1 1-1-1m104 0l1 1-1-1z" fill="#6e6b6d"/><path d="M361 780l1 1-1-1z" fill="#979494"/><path d="M461 780v52c2-4 1-9 1-13v-25c0-5 1-10-1-14z" fill="#1f1d1d"/><path d="M803 780l1 1-1-1m12 0l1 1-1-1m104 0l1 1-1-1z" fill="#4a4949"/><path d="M246 781l1 1-1-1z" fill="#6e6b6d"/><path d="M247 781l1 1-1-1m6 0l1 1-1-1z" fill="#979494"/><path d="M254 781l1 1-1-1m108 0l1 1-1-1z" fill="#6e6b6d"/><path d="M717 781l1 1-1-1m88 0l1 1-1-1z" fill="#4a4949"/><path d="M806 781l1 1-1-1m6 0l1 1-1-1z" fill="#979494"/><path d="M813 781l1 1-1-1z" fill="#4a4949"/><path d="M921 781l1 1-1-1z" fill="#6e6b6d"/><path d="M923 781l1 1-1-1z" fill="#979494"/><path d="M1020 796v13c2-4 2-9 0-13z" fill="#1f1d1d"/><path d="M464 826c0 12-4 22-7 34 7-7 11-25 7-34z" fill="#979494"/><path d="M1024 827v16c2-4 2-12 0-16m-433 4z" fill="#6e6b6d"/><path d="M1019 832l-2 16c6-2 5-12 2-16zm-559 2l-2 15c5-3 5-10 2-15z" fill="#1f1d1d"/><path d="M35 835l1 11c1-3 1-8-1-11z" fill="#6e6b6d"/><path d="M597 836l1 12h4l-2-12h-3z" fill="#1f1d1d"/><path d="M593 845l1 1-1-1m427 6z" fill="#6e6b6d"/><path d="M1023 852l1 1-1-1z" fill="#30419d"/><path d="M596 855l1 1-1-1m423 0l-12 18c4-3 13-12 12-18m3 0l1 1-1-1m-422 1l4 8c1-3-1-6-4-8z" fill="#6e6b6d"/><path d="M1021 857l1 1-1-1z" fill="#30419d"/><path d="M456 860l-13 17c7-3 12-10 15-17h-2m-412 2c1 3 3 4 5 6-1-3-2-4-5-6z" fill="#6e6b6d"/><path d="M93 891c7-2 14-1 21-1h40c-8-4-22-1-31-1H93l-21-5 2 1c-6 0-12-4-18-6 4 7 14 10 21 12 10 4 20 3 30 3h193c25 0 51-2 76 0 28 2 70 1 83-30-7 3-10 9-15 14-7 5-16 9-24 11-16 4-32 3-48 3H172c-26 0-53 1-79-1z" fill="#1f1d1d"/><path d="M605 864l3 4-3-4z" fill="#6e6b6d"/><path d="M601 865l1 1-1-1m416 0l1 1-1-1z" fill="#30419d"/><path d="M603 868l1 1-1-1z" fill="#6e6b6d"/><path d="M608 868l1 1-1-1z" fill="#979494"/><path d="M1015 868l1 1-1-1z" fill="#30419d"/><path d="M609 869l3 3-3-3z" fill="#6e6b6d"/><path d="M1012 872l1 1-1-1m-405 1l1 1-1-1m404 0l1 1-1-1m-403 1l3 3-3-3z" fill="#30419d"/><path d="M609 874c18 25 57 20 84 20h224c21 0 46 3 66-3 8-2 18-6 23-13-11 4-20 10-32 13-14 2-30 1-44 1h-72l-201-1c9-3 19-1 28-1h54c-8-3-21-1-30-1h-53c-7 0-15-3-22-2l1-2-3 1c-3-4-8-2-9-7-6 0-9-4-14-5z" fill="#1f1d1d"/><path d="M1007 877l1 1-1-1m-1 1l1 1-1-1z" fill="#30419d"/><path d="M1005 879l1 1-1-1z" fill="#6e6b6d"/><path d="M634 882l5 2-5-2z" fill="#1f1d1d"/><path d="M1001 882l1 1-1-1m-382 1l1 1-1-1zm379 1l1 1-1-1z" fill="#30419d"/><path d="M972 885l3 1-3-1m-309 1c5 2 12 1 17 1h153v2h-70c5 2 12 1 18 1h165c-4-2-8-1-12-1H834c3-2 7-2 11-2h80c10 0 22-1 32 1-4-4-14-2-19-2H663m301 0l5 1-5-1z" fill="#1f1d1d"/><path d="M629 888l1 1-1-1z" fill="#30419d"/><path d="M947 889c8 3 20 1 28 0h-28z" fill="#1f1d1d"/><path d="M990 888l1 1-1-1m-359 1l1 1-1-1z" fill="#30419d"/><path d="M740 889c6 3 15 1 22 1-6-3-15-1-22-1z" fill="#1f1d1d"/><path d="M634 890l1 1-1-1m351 0l1 1-1-1m-343 2l1 1-1-1m330 1z" fill="#30419d"/><path d="M846 894c8 3 21 1 30 1-8-3-21-1-30-1z" fill="#6e6b6d"/><path d="M876 894c6 2 15 1 21 1h44c-6-2-15-1-21-1h-44z" fill="#30419d"/><path d="M941 894c4 2 9 1 13 1-4-2-9-1-13-1z" fill="#4a4949"/><path d="M954 894l8 1-8-1z" fill="#30419d"/></svg>