<svg width="256" height="194" xmlns="http://www.w3.org/2000/svg" preserveAspectRatio="xMidYMid"><defs><linearGradient x1="0%" y1="50%" y2="50%" id="a"><stop stop-opacity=".1" offset="0%"/><stop stop-opacity=".2" offset="100%"/></linearGradient></defs><path d="M238.8 193.6H16.2c-8.7 0-16-7-16-16V16.9C.2 8.2 7.2 1 16.2 1h222.6c8.7 0 16 7 16 16v160.8c0 8.9-7.1 15.9-16 15.9z" fill="#E3E3E3"/><path d="M32 193.6l95.3-76.6.6-4-98.1-70.7-.2 147.9 2.5 3.4z" opacity=".1" fill="#231F20"/><path d="M16.2 193.6c-9 0-16-7-16-16v-161C.2 7.7 7.2 6 16.2 6 25 6.1 32 8 32 16.6v177H16z" fill="#D54B3D"/><path d="M16.2 8.4c11.3 0 13.6 3.4 13.6 8.2v174.7H16.2c-7.5 0-13.7-6.1-13.7-13.6V16.6c0-5 2.3-8.2 13.7-8.2zm0-2.3c-9 0-16 1.9-16 10.5v161c0 9 7 16 16 16H32v-177C32 7.7 25 6 16 6z" fill="#D72B27"/><path d="M238.8 193.6H223V16.1c0-8.8 7-10 16-10 8.8 0 15.8 1.2 15.8 10V178c0 8.7-7 15.7-15.9 15.7z" fill="#D54B3D"/><path d="M238.8 8.4c10.3 0 13.7 2 13.7 7.7V178c0 7.5-6.2 13.6-13.7 13.6h-13.6V16.1c0-5.9 3.4-7.7 13.6-7.7zm0-2.3c-8.8 0-15.9 1.2-15.9 10v177.7h16c8.8 0 15.8-7 15.8-15.9V16.1c0-8.8-7-10-15.9-10z" fill="#D72B27"/><path d="M170.7 193.6L1.6 23.2l8.9 3.6 117.7 84.8 126.5-92.8v159.1c0 8.7-7 15.7-15.9 15.7h-68.1z" fill="url(#a)"/><path d="M127.3 117L7 29.8C0 24.5-2 14.5 3.2 7.5c5.2-7 15.5-8.6 22.7-3.4l101.6 73.8L229.7 3.2c7-5.2 17-3.7 22.3 3.6 5.2 7 3.6 17-3.6 22.3l-121.1 88z" fill="#D54B3D"/><path d="M238.8 2.3c4.4 0 8.4 2 11.2 5.7a14 14 0 0 1-3 19l-119.7 87.3L8.4 27.9C2.3 23.4.7 14.8 5 9c2.5-3.4 6.8-5.7 11.4-5.7 3 0 5.9.9 8.2 2.7l101.3 73.6 1.4 1 1.3-1 102-74.7a15 15 0 0 1 8.2-2.5zm0-2.3c-3.1 0-6.6 1-9.3 3L127.3 77.7 25.7 4A16.4 16.4 0 0 0 3 7.5c-5 7-3 17 4 22.3l120.3 87.4 120.9-88.1c7-5.2 8.6-15 3.6-22.3-3.2-4.5-8-6.8-13-6.8z" fill="#D72B27"/></svg>