<svg xmlns="http://www.w3.org/2000/svg" style="isolation:isolate" width="300" height="300"><defs><clipPath id="a"><path d="M0 0h300v300H0z"/></clipPath></defs><g clip-path="url(#a)"><path d="M15 1C9 3 3 9 1 15c-2 5-1 12-1 17v237c0 7-1 15 3 21 7 10 16 10 27 10h234c7 0 15 1 22-1 6-2 11-8 13-14 2-5 1-12 1-17V30c0-8 1-15-5-22-6-8-15-8-25-8H37c-7 0-15-1-22 1z" fill="#0176B4"/><path d="M60 42c-18 4-26 27-15 42 7 10 19 13 30 10 20-4 26-30 13-45-7-7-18-10-28-7zm97 95c-2-7-1-16-1-24h-43v142h45v-57c0-10-1-21 2-31 5-14 24-23 37-15 10 6 11 16 13 27v76h45v-74c0-17 0-37-10-52-13-21-49-23-69-12-8 4-16 11-19 20zM45 113v142h45V113H45z" fill="#FEFEFF"/></g></svg>