<svg xmlns="http://www.w3.org/2000/svg" height="74" width="67"><path d="M12 0c-2 0-3 1 5 4 7 2 11 6 13 8h-5c-1 1-1 2-2 1A32 32 0 0 0 2 5s-6 1 5 2c8 1 12 4 14 6-8-1-11 6-11 9v2c-1 1-6 10-4 15 1 2 2 4 4 4s4 0 5-2l2 1c-1 3-4 2-5 5l2 6c1 1 3 2 4 1l3-2h1l1-2c-1-1 1 0 2-1l-1-3c-1-1 0-2 1-3h5l6 2v4s-6 4-1 13c0 2-4 8-7 11 0 0 6-1 13-8 1 0 13 2 14-12v-6c-1 0 2-6-4-10l-2-3 1-2h3c7-1-3 2 3 4l2 2c1 1 2 2 4 0 0-2 2-3 1-5-1-3-5-4-5-6l7-4c3-5-1-4-3-4 2-2 5-7 4-9 0 0 0-2-2-1-6 0-11 4-15 8-1-1 2-7 1-11l-1-1-2 1c-3 3-5 6-6 10l-7-2-3-2C28 9 21 2 12 1V0z" fill="#231f20"/><path d="M49 7l-2 1c-3 2-5 5-6 9l3 6 2-4c2-1 5-12 3-12zm15 2l-2 1c-6 1-11 5-14 9l-5 5v4h1c5-8 12-2 13-1 11-5 10-10 1-6 0-1 9-6 7-11l-1-1zM37 22l-2 2 1 2 2-2s1-2-1-2zm-2 3l-3 2v2l4-2-1-2zm17 0l-1 4 1 2h3l2-3c1-1-4-3-4-3h-1zm-21 3l-3 2 1 1 3-2-1-1zm-3 3l-1 1 1-1zM15 46h-1l-1 2c0 2 1 4 3 5l-1-1 2-3v-2l-1-1h-1z" fill="#fff"/><path stroke-linejoin="round" d="M29 13h-1c-1 0-2 1-1 2h1l2-1-1-1z" stroke="#fff" fill="#fff"/><path d="M35 15c1 5-2 8-4 10-4 4-16 3-12-8C6 26 4 38 8 41c0 0-2-3 1-12l5-7-4 8c-1 1-4 11 0 12 2 1 6-2 8-4l9-7 6-6 4-3v-1c1 0 3 2 1 4l-6 5c-3 2-6 2-9 5l-6 6s9-1 14-4l7-7 4-2c2-5-1-13-7-13zm15 10c-2 0-4 0-6 4-2 0-2 1-3 2v3l3 2 3-3 2-2v-4 1l1 2 2-5h-2zm8 4l-2 2v1c1 1-1 1-1 2v1h1l3 2h-1l2 1h1v-1l1-3h1l-2-3-3-2zm-10 5s2 4-2 8c0 0-2 3-10 2 0 0 2 4 7 4 0 0 4 0 7-4 0 0 4-6-2-10zm-26 7l-4 1-1 2-3 2 3-1 3-1h2l2-2-2-1zm-1 4h-2c-3 1-1 3-1 4l-1 2v-1l-1 1 1 2h2l2-2 1 1h-1 1l1-1-1-2v-1c1-1-1-1-1-1l-1-1h1l1 1 1-1-2-1zm2 2v2l1-1-1-1zm31 1c-3 8-11 6-11 6-5-1-7-3-7-5 0 0-2 5 2 8 4 4 8 2 9 2 6-1 7-9 7-11zm-18 1zm0 13s-2 7-6 10c0 0 10-5 11-7l-5-3z" fill="#eeb211"/></svg>