<svg version="1" xmlns="http://www.w3.org/2000/svg" width="171" height="152" viewBox="0 0 1710 1520"><path d="M525 1334c-49-46-123-110-162-142l-73-57V314l33-24c17-13 80-66 139-117l108-93h521l92 83c51 45 111 98 135 116 23 19 42 40 42 46s18 26 40 44l41 32-3 142-3 142H995l-3-37c-3-32-7-38-26-38-35 0-46-20-46-85 0-33-4-66-9-73-5-9-28-12-77-10l-69 3v540h150l5-80 5-80h430l3 42c3 40 4 42 40 45l37 3 3 146 3 146-40 26c-22 14-84 62-139 107l-100 80H888l-273-1-90-85z" fill="#060404"/><path d="M535 1310c-19-19-75-69-124-110l-90-75V725l-1-400 120-100 120-100 264-5 264-5 121 104 121 105v246H950v-58c0-82-22-102-112-102-67 0-98 16-98 51 0 12 2 11 10-1 6-10 10 77 10 255s-4 265-10 255c-8-12-10-11-10 5 0 36 20 45 95 45 95 0 115-19 115-108v-62h380v148l-1 147-37 28-122 98-85 70-258 2-258 2-34-35z" fill="#860502"/><path d="M535 1310c-19-19-75-69-124-110l-90-75V725l-1-400 120-100 120-100 264-5 264-5 121 104 121 105v246H950v-58c0-82-22-102-112-102-67 0-98 16-98 51 0 12 2 11 10-1 6-10 10 77 10 255s-4 265-10 255c-8-12-10-11-10 5 0 36 20 45 95 45 95 0 115-19 115-108v-62h380v148l-1 147-37 28-122 98-85 70-258 2-258 2-34-35zm545-45c13-14 52-46 87-72 35-25 63-53 63-61 0-20-229-234-231-216l1 50c1 37-3 45-37 73-36 30-41 31-133 31-93 0-97-1-123-28l-28-29 1-198 2-198-29-27c-93-90-275-250-283-250-6 0-10 132-10 375v376l52 47 107 99 56 53h482l23-25z" fill="#484440"/><path d="M483 1263l-126-110-37-32V325l120-100 120-100 264-5 264-5 121 104 121 105v246H950v-58c0-82-22-102-111-102-56 0-69 4-87 23-21 23-22 30-22 289 0 313-5 298 107 298 93 0 113-19 113-108v-62h380v138c-1 151 0 148-70 202a3474 3474 0 0 1-119 99l-64 51H571l-88-77zm593 6c10-12 52-46 92-76 39-30 72-58 72-62 0-12-230-217-237-211-4 3-6 24-4 46 2 37-2 45-36 73-36 30-41 31-133 31-93 0-97-1-123-28l-28-29 1-198 2-198-29-27c-93-90-275-250-283-250-6 0-10 133-10 379v379l78 65c42 36 90 79 106 96l30 31h241c234 0 243-1 261-21z" fill="#a56062"/><path d="M483 1263l-126-110-37-32V325l120-100 120-100 264-5 264-5 121 104 121 105v246H950v-58c0-82-22-102-111-102-56 0-69 4-87 23-21 23-22 30-22 289 0 313-5 298 107 298 93 0 113-19 113-108v-62h380v138c-1 151 0 148-70 202a3474 3474 0 0 1-119 99l-64 51H571l-88-77zm662-49c50-41 91-79 93-83 2-5-36-44-84-87-48-44-100-94-117-111-17-18-34-33-39-33-4 0-8 25-8 55 0 50-3 58-32 85-32 28-37 29-128 29h-95l-28-36-28-37 1-195c1-157-1-197-13-206-7-5-76-66-151-135-76-69-143-125-150-125-16 0-19 144-11 483l7 283 107 94 106 94h480l90-75z" fill="#d3a6a5"/><path d="M483 1263l-126-110-37-32V325l120-100 120-100 264-5 264-5 121 104 121 105v246H950v-58c0-82-22-102-111-102-56 0-69 4-87 23-21 23-22 30-22 289 0 313-5 298 107 298 93 0 113-19 113-108v-62h380v138c-1 151 0 148-70 202a3474 3474 0 0 1-119 99l-64 51H571l-88-77zm606 2l53-47c10-10 22-18 28-18 5 0 14-9 20-20s17-20 24-20c8 0 20-7 27-16 11-14 5-23-45-67-32-29-88-80-123-114-36-35-69-63-74-63s-9 24-9 54c0 51-2 56-39 85s-43 31-127 31l-89-1-28-37-28-37 2-196 2-197-38-34-65-53c-15-11-43-36-62-55-82-82-140-131-151-127-9 3-12 99-12 387 0 350 1 383 17 394 10 7 52 44 94 82l98 87c18 16 41 18 256 15l235-3 34-30z" fill="#bcbfc1"/><path d="M527 1295c-30-24-68-57-84-72-73-68-103-93-113-93-7 0-10-133-10-399V332l87-72c49-40 95-80 103-89 46-50 54-51 322-51 209 1 256 3 273 16 35 26 94 77 160 140l65 61v233H950v-55c0-34-6-65-16-80-15-23-22-25-94-25-116 0-110-17-110 313 0 274 0 276 22 291 35 25 132 21 168-6 28-20 30-26 30-90v-68h376l2 133c1 72-1 137-5 143-5 7-64 57-133 113l-125 101H582l-55-45zm594-52c38-31 69-61 69-65s6-8 13-8 30-17 51-39l37-38-3-99-3-99-147-1c-100 0-148 3-149 10v57c1 42-2 49-36 75s-42 28-127 26c-89-1-91-2-119-33l-28-33 2-278 2-278 27-29c25-29 28-30 128-32 95-1 105 0 128 22 20 19 24 32 24 81v58h145c109 0 145-3 146-12l-1-96-1-83-42-37-107-99-65-62H828l-237 1-34 26-110 88c-42 34-81 64-87 66-15 5-16 98-7 463l7 310 34 30 108 97 73 67 238 1h238l70-57z" fill="#f1efef"/></svg>